/* XPM */
static char *a12113d364074055d253be712d44eaa0oTZ92ZCZRD5iS4kg[] = {
/* columns rows colors chars-per-pixel */
"64 64 233 2 ",
"   c None",
".  c #010000",
"X  c #0F0000",
"o  c #071401",
"O  c #350000",
"+  c #281717",
"@  c #330E0E",
"#  c #023602",
"$  c #012F02",
"%  c #3E2020",
"&  c #490000",
"*  c #540000",
"=  c #522C2C",
"-  c #663939",
";  c #045805",
":  c #087D0A",
">  c #067409",
",  c #066F08",
"<  c #654444",
"1  c #6C5A5A",
"2  c #785858",
"3  c #7A6464",
"4  c #594040",
"5  c #8F7A00",
"6  c #D8653F",
"7  c #8C7777",
"8  c #886B6B",
"9  c #FE535A",
"0  c #F75355",
"q  c #EE6B5D",
"w  c #FF5863",
"e  c #FF4569",
"r  c #FD6868",
"t  c #F37C70",
"y  c #C47E40",
"u  c #008500",
"i  c #008B00",
"p  c #09890C",
"a  c #019302",
"s  c #009C00",
"d  c #059409",
"f  c #0B950E",
"g  c #0B9A0F",
"h  c #0E9511",
"j  c #069C14",
"k  c #169719",
"l  c #1A950D",
"z  c #2E9809",
"x  c #00AC02",
"c  c #03AE0B",
"v  c #08A20A",
"b  c #00B302",
"n  c #02B30C",
"m  c #02BA08",
"M  c #05AE11",
"N  c #09AF11",
"B  c #08A410",
"V  c #16AE16",
"C  c #0AB212",
"Z  c #0ABB12",
"A  c #04B612",
"S  c #14B21A",
"D  c #13B51B",
"F  c #17B509",
"G  c #28AE14",
"H  c #26B517",
"J  c #1B9824",
"K  c #0A9A2E",
"L  c #24982C",
"P  c #239A25",
"I  c #2F9D37",
"U  c #1CB322",
"Y  c #1EB826",
"T  c #12A729",
"R  c #25A329",
"E  c #25B62B",
"W  c #23B72A",
"Q  c #27A638",
"!  c #3CAA3E",
"~  c #35A736",
"^  c #2CBB33",
"/  c #3BB33F",
"(  c #35BD3B",
")  c #39BE3F",
"_  c #31BB36",
"`  c #5C870F",
"'  c #509228",
"]  c #62A324",
"[  c #01C30B",
"{  c #07CB13",
"}  c #16D929",
"|  c #1DD830",
" . c #25C52D",
".. c #2AC933",
"X. c #35C33C",
"o. c #38C33F",
"O. c #35CB3E",
"+. c #38C93F",
"@. c #28DE38",
"#. c #34D43E",
"$. c #32DC3E",
"%. c #2BE03A",
"&. c #31E23F",
"*. c #3EAB40",
"=. c #3ABE40",
"-. c #39B341",
";. c #3D9F41",
":. c #45AC49",
">. c #4AB152",
",. c #58AB67",
"<. c #53AF64",
"1. c #63B56D",
"2. c #3AC241",
"3. c #37CE40",
"4. c #39CB41",
"5. c #37D240",
"6. c #3AD343",
"7. c #34DD41",
"8. c #3ADC45",
"9. c #33E242",
"0. c #36EB45",
"q. c #3EE24B",
"w. c #39E646",
"e. c #36F246",
"r. c #39F447",
"t. c #44C54B",
"y. c #44CC4B",
"u. c #40C546",
"i. c #44D84C",
"p. c #4CCC53",
"a. c #4BC751",
"s. c #55CD5B",
"d. c #54C959",
"f. c #4BD253",
"g. c #4ADB54",
"h. c #54D65B",
"j. c #40E24D",
"k. c #45E352",
"l. c #4AE256",
"z. c #4EE45A",
"x. c #4DEB5A",
"c. c #52E45E",
"v. c #51EA5B",
"b. c #48F656",
"n. c #5CCC61",
"m. c #5DD563",
"M. c #5EDB65",
"N. c #56DF60",
"B. c #61D566",
"V. c #60DA67",
"C. c #63D569",
"Z. c #62DB68",
"A. c #70CE73",
"S. c #56E461",
"D. c #5CE366",
"F. c #5AEB66",
"G. c #5EE468",
"H. c #5DE969",
"J. c #53E961",
"K. c #5BF768",
"L. c #62E36B",
"P. c #62EB6D",
"I. c #61F86E",
"U. c #6CE875",
"Y. c #6BE975",
"T. c #74E87D",
"R. c #72E77B",
"E. c #73F77D",
"W. c #6AF575",
"Q. c #978F26",
"!. c #B98935",
"~. c #B49231",
"^. c #9BA82D",
"/. c #A28642",
"(. c #DB9071",
"). c #6CB884",
"_. c #76BA8A",
"`. c #5EBC87",
"'. c #7AD683",
"]. c #79C093",
"[. c #7DEA86",
"{. c #79FB82",
"}. c #968383",
"|. c #AAA3A3",
" X c #B7AEAE",
".X c #A89D9D",
"XX c #FB9699",
"oX c #F88F8E",
"OX c #C4BABA",
"+X c #FF9DA0",
"@X c #86D98B",
"#X c #8ADB8D",
"$X c #83D787",
"%X c #83C39B",
"&X c #87D68B",
"*X c #84EC8C",
"=X c #84E68A",
"-X c #8CEC93",
";X c #95EE9B",
":X c #95ED9B",
">X c #8CF594",
",X c #95F39C",
"<X c #85FD8E",
"1X c #9BD3B8",
"2X c #90CAA8",
"3X c #A1D5BB",
"4X c #9CEFA2",
"5X c #9DF2A4",
"6X c #A4F2AA",
"7X c #A6F2AC",
"8X c #ADF3B3",
"9X c #B0F4B6",
"0X c #B3F4B9",
"qX c #B9F5BE",
"wX c #B2D7C7",
"eX c #B7E5D6",
"rX c #BAF6C0",
"tX c #D9D9D9",
"yX c #CCCBCB",
"uX c #C5E9DC",
"iX c #C9F3EC",
"pX c #D8F1E8",
"aX c #DCFFFE",
"sX c #D7FAF8",
"dX c #D2EDE7",
"fX c #E8E4E4",
"gX c #E3FFFF",
"hX c #EBFEFE",
"jX c #EBF5F2",
"kX c #F3FEFE",
"lX c #FEFEFE",
"zX c #F6F4F4",
"xX c #EAF0ED",
/* pixels */
"                                                        9.l.z.J.S.l.k.$.$.                                                      ",
"                                                  } q.I.{.W.F.H.H.H.K.x.e.0.9.                                                  ",
"                                                w.{.5X8X8X8X*XS.G.D.H.G.q.&.0.e.9.                                              ",
"                                            9.b.>X0X9X9X8X0X6XJ.H.G.M.G.g.#.7.9.0.0.                                            ",
"                                          q.K.*X0X9X8X8X8X9X[.S.D.D.D.D.i.O.4.#.5.9.e.                                          ",
"                                          K.x.6X9X8X8X9X9X*XS.D.H.D.L.D.5.5.5.4.4.3.9.r.                                        ",
"                      7.$.9.9.9.7.9.    J.U.T.*X8X8X8X4XT.S.M.D.D.D.L.g.$.5.5.4.4.2.4.9.&.  7.$.9.7.9.9.                        ",
"                  j.r.e.0.0.0.0.e.r.0.9.v.7XqXL.H.R.G.g.l.S.z.c.c.l.g.$.$.5.#.+.O.4.4.$.0.r.e.0.0.0.0.e.r.q.j.                  ",
"              c.I.K.H.l.$.5.5.5.4.3.5.7.@.L.*XP.S.8.9.z.J.v.F.H.H.H.F.l.&.9.7.#.#.#.9.9.7.5.4.3.5.6.5.q.F.H.I.F.z.              ",
"          l.K.I.H.G.G.Z.i.O.4.4.O.4.2.4.2.| @.q.q.P.*X,X;X*XH.D.D.H.H.H.l.&.9.9.7.9.4.2.o.2.4.4.3.5.6.M.L.D.F.P.I.z.            ",
"        q.I.Y.S.G.G.D.G.h.#.5.5.3.3.4.4.2.2.q.J.;X7X9X9X9XqX-Xv.H.D.D.L.S.$.9.9.9.9.$.o.+.5.+.5.5.#.8.M.M.D.F.S.P.I.x.          ",
"      9.{.6X7X*Xc.H.D.G.c.$.5.5.3.3.4.O.O.q.H.6X0X9X8X8X8X9X-Xc.L.D.D.M.M.6.#.6.7.9.9.9.+.4.5.5.5.#.g.G.D.H.D.L.6X8X-Xx.        ",
"    | {.9X9X0X5Xv.D.D.L.S.$.6.#.3.5.4.O.z.F.4X0X8X8X8X8X0X7XL.S.F.D.D.L.h.#.4.+.4.5.9.9.9.+.5.5.5.#.i.G.H.D.J.[.0X8X0X5Xq.      ",
"    K.8X9X8X9X:Xc.L.D.L.h.#.5.6.5.3.O.z.J.G.8X9X8X8X9X0X7XU.S.L.D.D.D.L.g.#.6.5.4.4.4.7.9.9.+.5.5.#.i.G.M.G.S.R.8X8X8X0X<X|     ",
"  %.>XqX8X8X9XT.c.L.h.L.g.#.6.+.3.X.g.F.Y.Y.;X8X8X8X6X-XL.c.L.D.D.D.L.S.8.#.5.#.5.4.4.o.7.9.$.5.3.#.6.M.G.G.D.D.6X0X8X9X6Xx.    ",
"  x.5X0X8X0X:Xc.L.Z.L.V.y.O.6.+.4.6.J.[.9X4XS.[.[.[.G.z.D.D.D.D.D.D.L.i.#.5.5.5.4.+.+.4.2.7.9.+.4.O.5.M.M.M.D.v.[.8X8X8X8X{.%.  ",
"  K.5XqX9X4XD.D.M.M.Z.m.O.3.4.2.X.l.U.7XqX4XS.c.c.c.N.L.M.M.D.Z.Z.Z.g.#.6.5.5.4.3.4.4.X.2.4.9.5.2.4.O.f.Z.M.M.L.S.*X8XqX8XE.k.  ",
"x.K.U.;X*XD.D.M.M.M.Z.p.O.2.2.) 4.z.=XqX7XU.D.L.L.Z.Z.Z.M.M.M.M.Z.h.#.5.#.5.5.#.3.3.4.4.4.2.4.9.O.2.4.4.m.Z.M.M.M.c.U.;X*XF.c.  ",
"k.E.5XU.l.G.M.M.M.Z.m.2.X.o.=.( 8.S.R.-XU.S.D.M.M.V.Z.V.Z.V.V.M.f.#.#.4.5.#.5.4.3.+.4.4.4.=.( 7.#.=.2.X.p.m.M.M.M.M.S.z.;X>Xv.  ",
"k.>XrX-XS.G.M.M.m.C.y.X.2.2.=.X.q.m.m.h.N.Z.M.M.V.M.M.B.V.V.m.y.O.+.4.4.4.4.3.4.5.4.4.4.X.2.=.4.7.=.2.X.2.m.C.m.M.L.D.Y.8X7XF.  ",
"k.,XqX[.h.Z.M.m.C.p.X.=.=.=.( #.7.s.Z.Z.Z.M.V.m.C.B.C.C.m.p.+.O.+.+.4.+.4.4.O.4.+.O.o.4.+.o.o.=.7.4.=.=.) 2.m.C.M.V.M.L.8X8XF.  ",
"k.T.:XL.D.M.C.C.d.X.=.=.) =.^ ..4.u.h.Z.Z.C.C.C.C.m.s.a.u.X.o.2.o.2.o.2.2.o.2.X.4.4.4.2.2.2.2.=.3.O.=.2.=.=.t.m.B.M.Z.c.*X-Xc.  ",
"q.K.M.M.M.M.C.d.) =.=.) =.) C #.2.o.4.y.s.s.s.d.a.t.2.X.) 2.=.=.=.=.2.) =.=.2.2.X.X.X.X.X.( ) =.2.7.( =.=.2.) t.m.C.V.M.N.M.z.  ",
"  v.C.Z.m.m.t.( =.=.) =.=.U n O.2.=.X.O.X.X.X.( ( ) ) =.=.) 2.=.2.=.=.2.=.( ^ W D S C C C C S S Y  ._ =.=.=.=.) 2.s.m.V.Z.M.7.  ",
"  7.u.y.y.X.X.=.=.) 2.=.W x D O.=.=.=.2.2.) =.=.2.=.=.=.) ) 2.=.=.=.( W S N c c c M M N c C N x x [ C ) =.=.=.=.) X.4.y.y.8.$.  ",
"  5.4.X.o.2.=.=.) =.2.E c c D X.=.=.) =.) o.=.) =.=.) ) ) ) =.) _ U N c c N N N N N N N V c b ~ V A n V ) 2.=.=.=.=.2.X.) 6.    ",
"  $.i.) =.=.=.=.) ) E c C N C _ =.=.=.=.+.o.) =.=.=.2.=.) ( E S c c N N N N N N N N N N S x d.#Xn.c D c S _ =.=.) =.=.2.2.#.    ",
"    4.2.2.=.2.=.^ S c N N C N N U ^ ( =.:.2.=.2.2.) ( ^ W N c c N N N c N N n N C N N S x E '.#XA.c N N c M E ) =.2.=.=.i.#.    ",
"    O.4.( _ E S c c V N C M N N c c C U W E E W W S N c c c N N N n N N N N N N N N N V x / $X#XA.b V N N N c C W ^ ( o.X.      ",
"      C n M N c N N N N S N N c c C c c c c c c c c N N N N N N N N N N N N N N N N c S n N A.$X>.b S N N N N N c c c Z  .      ",
"      $. .b b n V N C c c x x S S c V N N N N N N N N N N N N N N N N N C n N N N N N N V x S E x n c n N N N N N c c ..0.      ",
"      b.c.:.U c x x x c S _ y.M.s.n x S M M N N N N N N N N C N N N N N N N N N n N N N c S x c X.W S N c c c c N U _ 7.r.&.    ",
"    @.b.Z.C.h.s.p.y.p.h.M.Z.Z.Z.L.s.N x V S N N c N N N N C N N N N N N N N C N C c N C N x S O.4.4.3.X._ ^ ..X._ 2.=.4.9.9.    ",
"    &.q.m.V.Z.Z.L.D.L.L.M.M.M.M.V.Z.s.^ x x N N C N N N N M N N N N N c N N N N N N N c c W O.4.O.4.4.4.4.4.2.2.2.o.) =.7.9.    ",
"    r.#.d.B.M.M.M.M.M.M.M.M.M.V.B.B.Z.B.a.^ c x c N N C N N C N C N N N N C c c c c C Y ..4.4.4.4.3.O.X.O.o.o.o.2.2.2.=.4.e.    ",
"  &.r.2.2.h.V.M.M.M.V.M.B.M.B.B.B.B.B.B.C.C.n.t.W N c c c c c n c c x c c c N S Y ^ X.4.4.2.4.4.4.2.4.4.+.2.4.o.X.2.=.) =.0.9.  ",
"  9.w.) X.4.m.Z.B.V.m.V.m.m.B.C.B.C.C.C.C.m.s.y.2.o.X.^ ^ E E E W E W ^ ^ _ X.o.2.4.2.2.4.2.2.4.X.4.o.4.o.o.+.o.o.2.=.=.=.8.9.  ",
"  9.4.( 2.O.4.s.m.V.B.B.C.C.C.C.B.n.s.d.a.2.X.) 2.2.2.2.2.2.2.2.2.2.2.2.2.2.2.2.=.2.2.2.2.X.4.2.2.4.4.+.2.4.2.2.2.o.=.=.=.2.9.  ",
"  q.2.=.o.2.O.O.+.y.f.s.n.s.d.a.d.d.2.( ) ) 2.=.2.2.2.) ) ) ( -.2.) o.) o.) 2.o.=.=.2.=.=.2.y.2.o.o.t.u.X.O.X.X.) 2.=.=.=.2.w.  ",
"  0.=.=.2.o.o.+.o.O.X.W a a s s s x _ t.=.=.=.( / / / / / *.*.! / ! ! -.! / / / =.=.=.2.=.F v s j s a a R D C D D U W E ^ ( 9.  ",
"  q./ 2.) o.2.o.2.-.a i %XeXdXpXuX2XQ c :.! ! ! ! ! ! ! ! ! ! ! ! ! ! ! ! ! ! ! ! ~ P R a >.1XuXpXdXuX_.i a U b c c c c c c { } ",
"&.8.=.=.=.2.2.o.-.u <.pXlXlXlXlXlXlXxX).x :.! ! ! ! ! ! ! ! ! ! ! ! ! :.! ! ~ k f d k u 2XkXlXlXlXlXlXlXuXK i T N N N N C c { { ",
"$.8.=.) o.o.o.-.i >.jXlXlXlXlXfXzXlXlXkX).s :.! ! ! ! ! ! ! ! ! *.*.! I P f a d a P i 2XlXlXlXlXzXfXlXlXlXuXa a N C S V S C [ { ",
"#.4.=.=.) +.:.k i eXlXlXlXlXlX7 = yXlXlXpXQ ~ :.! ! *.! ! *.*.! ~ P k a a f f f J i <.gXlXlXlXlXfXO }.fXlXlX1Xu L N x x x N Z { ",
"6.4.=.=.) =.-.u 1.aXlXlXlXlXkX3 X O yXlXkX2Xx :.! ! ! *.! ! ~ J h a d f h f f a L u wXgXlXlXlXlXyXO X 3 zXlXsXQ a x / A.d.v N [ ",
"..4.2.=.) 2.~ u 1XgXhXzXlXlX|.. < & 8 lXlXwXs :.*.! *.~ ~ k d a f h h f f g f h f a iXgXzXzXlXxX1 O < X OXlXkX).u >.$X#X#Xn.b D ",
"n D ^ ( =.2.P i 3XgXkX7 7 1 . + % = - xXlXeXk ! *.~ P h a a f h f f f f f f f k i I iXhXtX1 }.% . + 4 O .XlXkX%Xu 1.#X$X&X$XZ n ",
"M Z c V E _ R i 1XgXhX7 O = % + = & < zXlXeXs R J a a f h f f f f f f f f f f k a J iXgXtX* & = + % < .  XlXgX_.u 1.#X$X$X$X .b ",
"  Z C c n n R u %XaXgXyX& < < < - 2 OXlXhX1Xu J h h f f f f f f f f f f f f f d P i eXaXhX7 & 2 < 4 < 7 fXlXsX<.u 1.#X@X@X'.U   ",
"  C C C M M R i ;.iXaXaX.X* * O 8 zXlXhXsX,.i L f h g f f f f h f f f f f f g d L i %XgXaXdX8 * * O  XlXlXgXeXi P A.@X$X#XA.b   ",
"  M Z M F H j K i 2XgXaXaXyX X|.tXlXlXgX1Xi L h g : : g f f g p : g g g g p , g f h a eXhXaXsX X|. XzXlXkXaX1.a K &X#X@X#X2.x   ",
"    Z V b b ` ' ' i 2XaXaXgXaXgXgXgXhXwXa f k d g : . ; p : ; o o ; p p , . , g f k i I uXaXaXgXgXgXgXhXaX`.u ' ` 1.'.'.>.b     ",
"    G m ] (.XXt r q 5 1.uXsXaXaXaXiX_.i a k d f f h p ; $ # ; f f ; $ $ # p f f h d J i a 1XiXaXaXaXsXeX,.y oXoXq q (.( m V     ",
"      x (.+XXXt r r w ` a ,._._.1.a i J k d f f f f g g f f g f g g f p f g f f f f a J a u P 1._._.>.a 5 oXXXoXr r 9 y [       ",
"        ~.9 9 9 w 0 6 I j i i i i h P f f f f f f f f f f f f f f f f f f f f f f f h f h L a i i i i K ` 0 9 e 9 9 0 ^.b       ",
"        b ] ~.!.!.Q.d a k L L L P f d h f f f f f f f f f f f f f f f f f f f f f f f f f a k L L L J l d z Q.!.!.~.] b         ",
"          A [ b b n n l j a a d d f f f f f f f f f f f f f f f f f f f f f f f f f f f f f f a a a f d z M n b b [ n           ",
"              G H G V M N g f h f f f f f f f f f f f f f f f f f f f f f f f f f f f f f f f f h f g B A G G H G               ",
"                F C A C N N N B g f f h f f f f f f h g f f f f f f f f f f f f f f f d f f f g B N C C M A Z C                 ",
"                    M C Z N N N N N B g g f f f f f p f f f f f f f f f f f f f f f f g g B N N N N C Z A C                     ",
"                        N C Z Z C M C C N N B B B g g g g f g d f f f g g g g B B N N N C C C C Z Z N M                         ",
"                              N C C [ Z C C N C N N N N c N N N N N c N N N N N C C N C Z [ C C N                               ",
"                                    N C N N Z Z Z Z Z Z Z C A C C C C Z Z Z Z Z Z C N N N N                                     ",
"                                                  N N N N N N N N C N C N N c N                                                 "
};
