/* XPM */
static char *_f12d896eba34bc4d64a8526072f074fFkNfPNBLRWDkmyiy[] = {
/* columns rows colors chars-per-pixel */
"64 64 227 2 ",
"   c None",
".  c #000101",
"X  c #0C0200",
"o  c #020C00",
"O  c #0D0A00",
"+  c #00000D",
"@  c #0B050F",
"#  c #110004",
"$  c #120B00",
"%  c #13000B",
"&  c #130D0E",
"*  c #001401",
"=  c #001C00",
"-  c #06170C",
";  c #191107",
":  c #000112",
">  c #000B14",
",  c #07091A",
"<  c #150015",
"1  c #140E12",
"2  c #15061A",
"3  c #160D1A",
"4  c #180E1B",
"5  c #001914",
"6  c #151017",
"7  c #17111B",
"8  c #19121C",
"9  c #171A1B",
"0  c #231D1C",
"q  c #30001E",
"w  c #002100",
"e  c #022218",
"r  c #18251D",
"t  c #222F1B",
"y  c #000826",
"u  c #1B0022",
"i  c #1C1423",
"p  c #1F182E",
"a  c #1B1728",
"s  c #1A1A32",
"d  c #001C2D",
"f  c #291A28",
"g  c #271A37",
"h  c #361735",
"j  c #2E0A2F",
"k  c #1C2324",
"l  c #192927",
"z  c #1E352A",
"x  c #1D2237",
"c  c #143631",
"v  c #282328",
"b  c #35262E",
"n  c #243929",
"m  c #333228",
"M  c #2C2232",
"N  c #272538",
"B  c #342533",
"V  c #3B253C",
"C  c #362739",
"Z  c #343136",
"A  c #470736",
"S  c #471736",
"D  c #501335",
"F  c #630D36",
"G  c #492427",
"H  c #572A2C",
"J  c #46293B",
"K  c #5C2E31",
"L  c #5B2838",
"P  c #5D323B",
"I  c #6A3438",
"U  c #753939",
"Y  c #783B3A",
"T  c #662F38",
"R  c #4C2C1C",
"E  c #164231",
"W  c #254B35",
"Q  c #224735",
"!  c #27553C",
"~  c #34502D",
"^  c #17673D",
"/  c #376730",
"(  c #51463E",
")  c #4D7333",
"_  c #131D47",
"`  c #331C4E",
"'  c #1A344F",
"]  c #282242",
"[  c #29254B",
"{  c #272149",
"}  c #372747",
"|  c #2D2B55",
" . c #372A58",
".. c #313C42",
"X. c #3B3265",
"o. c #383367",
"O. c #352B63",
"+. c #501D50",
"@. c #44264C",
"#. c #482748",
"$. c #562947",
"%. c #492553",
"&. c #4B265A",
"*. c #462757",
"=. c #562858",
"-. c #5E3049",
";. c #652D4E",
":. c #65285B",
">. c #6D3454",
",. c #4A2565",
"<. c #452966",
"1. c #512563",
"2. c #532965",
"3. c #55296A",
"4. c #592869",
"5. c #43346E",
"6. c #413163",
"7. c #5D2A7D",
"8. c #572A77",
"9. c #4C3374",
"0. c #463473",
"q. c #55327A",
"w. c #692B68",
"e. c #722A6B",
"r. c #7B3966",
"t. c #622A74",
"y. c #642A7C",
"u. c #6A2A7B",
"i. c #762B73",
"p. c #7D3075",
"a. c #653579",
"s. c #164E46",
"d. c #2B4D43",
"f. c #2A5D41",
"g. c #345648",
"h. c #136056",
"j. c #29644A",
"k. c #33684B",
"l. c #25724C",
"z. c #34724C",
"x. c #357C54",
"c. c #357A56",
"v. c #2A7258",
"b. c #853C69",
"n. c #822C7D",
"m. c #863477",
"M. c #913C76",
"N. c #974675",
"B. c #A1487F",
"V. c #529032",
"C. c #639A39",
"Z. c #59A839",
"A. c #64AB38",
"S. c #35835B",
"D. c #39855A",
"F. c #3A8A5D",
"G. c #378259",
"H. c #448B54",
"J. c #489858",
"K. c #559B52",
"L. c #56A95A",
"P. c #5EB45B",
"I. c #5DA748",
"U. c #6FBE43",
"Y. c #64B958",
"T. c #67C548",
"R. c #74C646",
"E. c #7BD44A",
"W. c #79D453",
"Q. c #73C958",
"!. c #93A24B",
"~. c #83DA4A",
"^. c #AAD157",
"/. c #85E34D",
"(. c #9AEF55",
"). c #86E551",
"_. c #B1F962",
"`. c #C1DC62",
"'. c #D9FF6F",
"]. c #C7EA66",
"[. c #5F3080",
"{. c #652B82",
"}. c #6A2B83",
"|. c #6F2D8A",
" X c #732D83",
".X c #782E8A",
"XX c #703788",
"oX c #872E87",
"OX c #8B3287",
"+X c #97378B",
"@X c #872F95",
"#X c #853091",
"$X c #8B3295",
"%X c #95359C",
"&X c #973497",
"*X c #912886",
"=X c #A2349A",
"-X c #A63B97",
";X c #A73A8F",
":X c #A336A3",
">X c #A439A5",
",X c #AB3BA3",
"<X c #AD3AAA",
"1X c #AB37A4",
"2X c #B33BAC",
"3X c #B93DAE",
"4X c #B13CA6",
"5X c #BD3EB2",
"6X c #B63CB2",
"7X c #C13EB7",
"8X c #9E4087",
"9X c #AC4A85",
"0X c #B34F89",
"qX c #BD5392",
"wX c #B2439D",
"eX c #BD42B2",
"rX c #B342A8",
"tX c #C9589A",
"yX c #C24CA3",
"uX c #CA51A8",
"iX c #D55AAB",
"pX c #C945B8",
"aX c #D44DBC",
"sX c #D956B6",
"dX c #E25DB9",
"fX c #E160B2",
"gX c #D64CC0",
/* pixels */
"                                                                                                                                ",
"                                                                                                                                ",
"                                                                                                                                ",
"                                                                                                                                ",
"                                                                                                                                ",
"                                                                                                                                ",
"                                                                                                                                ",
"                                                                                                                                ",
"                                                                                                                                ",
"                                      2 2 2 2 1 2 2                   7                                                         ",
"                                    ~ Z.T.U.U.U.R.A.t               G K b                                                       ",
"                                  . ) ~.(.E.~.~./.E.V.9           > K Y K ,                                                     ",
"                                      '.].) ~ ) K.P.E.A.+ + 9     > H U P v i                                                   ",
"                                      `.`.) E { ' H.W.R.V.~ u     > H U P g u +                                                 ",
"                                  . . q C.~.Y.c.....x.Y.~.C.j 2 > : H U P g y + : : : , : % %                                   ",
"                                  !.^.Z.Z.R.P.S.k.g.v.L.Q.K.d.N j H K T A Z V.A.A.A.A.A.C.z.Q                                   ",
"                                m ^.'.(.T.D.v.D.D.D.D.D.D.S.G.d.D U T B j ) E.)./.~.).).W.J.j.9                                 ",
"                              . ~ ^._.W.J.! E ! G.F.D.D.S.S.G.d.D Y F C K.R.Y.P.Y.I.V.I.P.J.j.< X X                             ",
"                                r A.R.F.s.< X 2 k.D.D.F.D.F.G.d.D U F C U.W.J.h.v.s.y h.S.F.z.n n z                             ",
"                                  / / ~ l 3 < 3 k ! D.F.F.F.D.! A U F h H.J.! a n f.c.S.S.S.G.x.G.c.W X                         ",
"                                  : + . % 3 i 3 X k k.l.l.l.k.( L T ( g.j.s.l X X W c.D.D.D.F.F.G.k.Q #                         ",
"                                    4 3 7 7 7 7 4 8 r l l c m I I S k.D.f.< 3 3 4 < l z.F.F.F.D.f.< < 7                         ",
"                                      f o . . o o + . ;.;X+X*X>.R h W ^ E X < 8 7 X 4 x.D.j.z.F.x.! z <                         ",
"                                      > f h S h i i M B.fXsX2Xe.e C S +.h 6 7 7 7 % k z.x.r Q G.F.G.W % 3                       ",
"                                      . ;.qXyX=X=.-.qXuXaXrX#X}.O.5 e.=Xe.= O X       W W 7 k W ! W z <                         ",
"                                      $.0XsXsX2Xw.;.tXuX=X#X8.{.u.>.-X7XOXN { s       # % 3 < % # % < 8                         ",
"                                  . ;.tXsXaX1X X*.b $.$.#.t.{.` r.tXsX5X$X8.0.| o       3 7 4 3 3 4 7 7 7                       ",
"                                    $.0XyX:X@X8._ b N.m.p.t.,.d b.iXsX7X&X7.5.X.&.`   o 1 4 7   7 7 7 7 7                       ",
"                                      $ &.u.|.y._ >.iXsXpXn.k = e.3XpX5X%X8.} %.{.1.o O 6 7       7 7 7 7                       ",
"                                      . y [  .4.N.tXuXaXpX&X*.N #.u.p.p.w.*.v %.}.}.4.<.[ p O                                   ",
"                                      o h $.x J tXsXpX5X3X%X7.*.b $.$.#.C B V &.y.{.{.q.o.N X                                   ",
"                                    . . :.4Xm.J wXgXpX<X#X.X{.d -.qXuX-Xe.N 4.4.%.@.*.0.o.g X                                   ",
"                                  >.b.:.OX3XoXM oX,X2X%X7.8.t.4.B.iXsX2Xi.g u.y.} m M  . .s $                                   ",
"                                h 0XiXpX1X.X<.5 v =. X.X{.*.=.=XpXpX<X X%.} y.[.5. .C f a i 6 7                                 ",
"                              . f yXdX5X@X,.b.B.M.i.2.,.4.s M +X<X:X@X7.6. .2.2.X.} f ; O 3 7 7                                 ",
"                                j ;X6X#XO.N B.dXaX:X=.e C B #.8.}.}.}.{.q.o.} B V f 4 4 7 7 7 7                                 ",
"                                  e.n.1.] k 8XsXaX6X X[ M N.qXrX&X2.} &.8.a.8.3.6.[ 1 1 i 7 7                                   ",
"                                  . o 0 v k OX7X5X1X|. .M 0XfXaX&X$.w } 4.u.}.q.o.[ 1 & 3 7                                     ",
"                                  o - 8 * * &X7X>X}.` * = -XaX>Xu.k } 8.=.*.9.5.] i 7 7 7                                       ",
"                                    1 . J N.;X&Xu.3.b.b.p.+X&Xy.1.p. X|.&.v  .[ & $ 7 7 7                                       ",
"                                      . M.iX0XN 5 r.uXiXeXOXb 5 e.3X,X{.&.v f 3 6 7 7 7 7                                       ",
"                                      . M.uXyXn.C >.uXaX>Xi. .- w.%X%Xq. .Z [ ] i 1 7 7                                         ",
"                                      o i.5X7X5Xw.=.3X<X{.[.{. .@.t.q.o.} C 5.O.i $ 7                                           ",
"                                      . n.7X6X$X*.:.5X2X}.[.0.O.'  .} } B } 5.X.a O                                             ",
"                                      o e.1X&X<.x =.-X&Xy.X.o.a.a.@.} #.V V X. .i O                                             ",
"                                          :.=.} V V =.#.N e =.,X2X}.8.y.&.b g p 7 4 7                                           ",
"                                          = - v v #.w.i.p.w.2.+X&X.X{.[.*.0 $ O 3 7 7                                           ",
"                                          7 3 f w w.4XpX5X&X8.@.%.}.[.5.[ $ 4 7 7 7 7                                           ",
"                                            @ 7 w w.pXpX:X#Xy.} N q.9.[ p & 7 7 7 7                                             ",
"                                              8 = w.,X:X{.q.y.@.} o.[ $ O 7 7 7 7                                               ",
"                                                * +.#X.X0.0.9.} C N s 1 1 7 7 7                                                 ",
"                                                  g ,.9.O.O.X.} f $ O 7 7 7 7                                                   ",
"                                                    g g g p p i 8 7 7 7 7 7                                                     ",
"                                                    o o O O $ 1 6 8 7 7 7                                                       ",
"                                                    7 7 3 7 7 7 7 7 7 7                                                         ",
"                                                        4 7 7 7 7 7 8                                                           ",
"                                                        7 7 7 7 8 7                                                             ",
"                                                                                                                                ",
"                                                                                                                                ",
"                                                                                                                                ",
"                                                                                                                                ",
"                                                                                                                                ",
"                                                                                                                                ",
"                                                                                                                                "
};
