/* XPM */
static char *_53518dd6f5b44c3e13092cf3453b663oNZ6Oil88iGj902Z[] = {
/* columns rows colors chars-per-pixel */
"64 64 197 2 ",
"   c None",
".  c #00000D",
"X  c #000B0A",
"o  c #000313",
"O  c #000C15",
"+  c #000E19",
"@  c #0C0F19",
"#  c #090D15",
"$  c #100E17",
"%  c #130F1A",
"&  c #001017",
"*  c #031019",
"=  c #0E101A",
"-  c #001A1E",
";  c #16111B",
":  c #1B121B",
">  c #23121D",
",  c #2C131F",
"<  c #37141D",
"1  c #001A20",
"2  c #241124",
"3  c #2C1B25",
"4  c #2A1823",
"5  c #341421",
"6  c #3B1623",
"7  c #361C21",
"8  c #3B1E23",
"9  c #42171E",
"0  c #49181F",
"q  c #48171E",
"w  c #461726",
"e  c #4D172F",
"r  c #4F1829",
"t  c #4B1727",
"y  c #5A1D23",
"u  c #53192D",
"i  c #5D1B2E",
"p  c #551920",
"a  c #491331",
"s  c #591536",
"d  c #621D25",
"f  c #631D2F",
"g  c #651C31",
"h  c #6B1E33",
"j  c #671C39",
"k  c #6C1D3A",
"l  c #601639",
"z  c #721F37",
"x  c #731F3A",
"c  c #7F1F3A",
"v  c #412125",
"b  c #442329",
"n  c #4F272A",
"m  c #50272A",
"M  c #54292C",
"N  c #5C2D2E",
"B  c #472934",
"V  c #4A2A35",
"C  c #6D2227",
"Z  c #64292A",
"A  c #752326",
"S  c #792327",
"D  c #7E2528",
"F  c #742037",
"G  c #76203A",
"H  c #7B213B",
"J  c #643132",
"K  c #6D3535",
"L  c #64343A",
"P  c #6A363A",
"I  c #713737",
"U  c #723738",
"Y  c #733838",
"T  c #7A3B3A",
"R  c #85252A",
"E  c #8B272B",
"W  c #8C2A2C",
"Q  c #822D2A",
"!  c #942A2D",
"~  c #9D342F",
"^  c #82233B",
"/  c #8C263B",
"(  c #8A2B3B",
")  c #9C2D31",
"_  c #93293B",
"`  c #9A2B3C",
"'  c #91273B",
"]  c #963130",
"[  c #9D3234",
"{  c #9F303D",
"}  c #A32E31",
"|  c #A42D3C",
" . c #A82F3D",
".. c #A73434",
"X. c #AD3334",
"o. c #A3323E",
"O. c #AD323D",
"+. c #B5333D",
"@. c #BA343D",
"#. c #B63837",
"$. c #E60000",
"%. c #E71300",
"&. c #E71E0C",
"*. c #E52F00",
"=. c #EB250F",
"-. c #E53301",
";. c #E63A00",
":. c #E6390F",
">. c #E82F1C",
",. c #E5361E",
"<. c #CE382C",
"1. c #C3373C",
"2. c #C5383D",
"3. c #CB3A3D",
"4. c #D43D3E",
"5. c #D83F3F",
"6. c #E64204",
"7. c #E64419",
"8. c #E64217",
"9. c #C5413C",
"0. c #D8473F",
"q. c #D74B3D",
"w. c #DA4A3E",
"e. c #E74B2D",
"r. c #E84B27",
"t. c #E74C32",
"y. c #E5463D",
"u. c #E44D3D",
"i. c #EB4C3C",
"p. c #E75436",
"a. c #E7533B",
"s. c #E9533D",
"d. c #E75A3B",
"f. c #E85C3E",
"g. c #EA5636",
"h. c #BB3E42",
"j. c #C73841",
"k. c #CB3941",
"l. c #D43C40",
"z. c #DB3E41",
"x. c #E13F41",
"c. c #D44341",
"v. c #DD4141",
"b. c #DC4943",
"n. c #D84B47",
"m. c #E24342",
"M. c #E84342",
"N. c #EA4543",
"B. c #E44C44",
"V. c #E94C43",
"C. c #EC4E48",
"Z. c #E64B49",
"A. c #F04545",
"S. c #E55345",
"D. c #EB5345",
"F. c #E65A43",
"G. c #E95B43",
"H. c #E6534A",
"J. c #EB5448",
"K. c #E85C4A",
"L. c #F35642",
"P. c #E86345",
"I. c #E8604E",
"U. c #EA6958",
"Y. c #E97457",
"T. c #E97563",
"R. c #EA7B6A",
"E. c #EB7D65",
"W. c #EC866D",
"Q. c #ED8A74",
"!. c #EE957D",
"~. c #EE8F83",
"^. c #EE9783",
"/. c #EF9E8A",
"(. c #ED9981",
"). c #F09C90",
"_. c #F0A38D",
"`. c #F2AC9D",
"'. c #F1AB93",
"]. c #F3BBA6",
"[. c #F5C4AC",
"{. c #F4C8AF",
"}. c #F6CBB4",
"|. c #F7C7BD",
" X c #F6D1BA",
".X c #F8D2B9",
"XX c #FCDCD4",
"oX c #FAE3CB",
"OX c #FAE8CF",
"+X c #FBE9D1",
"@X c #FFF1D6",
"#X c #FFFADE",
"$X c #FFFCE3",
"%X c #FFF5E8",
"&X c #FFFEEA",
"*X c #FFF4E2",
"=X c #FFFFF3",
/* pixels */
"                                                                                                                                ",
"                                                                                                                                ",
"                                                                                                                                ",
"                                                                                                                                ",
"                                                                                                                                ",
"                                                                                                                                ",
"                                                                                                                                ",
"                                                            o                                                                   ",
"                                                          8 v 7                                                                 ",
"                                                        o N K 8 o                                                               ",
"                                                      8 n P P B O                                                               ",
"                                                    O M Y L V 3 O                                                               ",
"                                                    o M T P V 3 #                                                               ",
"                                                    % M U L B 3 # ;                                                             ",
"                                                  8 N P L B 3 > $ ;                                                             ",
"                                                o b Y K B 4 O @ : :                                                             ",
"                                    o o o       o v Y J 4 = % % : > O o o o O &                                                 ",
"                                  A ) ) D       X v Y J $ O ; + O o y ! ! E M 2                                                 ",
"                            o o + X.M.M.#.: o O o w I J : + @ O o o ) z.y.4.' a : O &                                           ",
"                          y [ O.X.0.M.k.+.X.X.} q - I J : o @ E X.} 3.x.N.x.j.` f u u 5                                         ",
"                        o W B.J.Z.N.l./ ` 5.A.5.E - I J : . y 3.M.z.z.x.m.x.M.k.^ G G u &                                       ",
"                      @ ~ q.S.G.J.B.v.j.+. .4.A.4.} Z - & E 3.M.z.h.j.x.m.m.M.3.H k H F i 5                                     ",
"                    ; Q w.L.d.f.G.S.B.V.3.^ O.z.M.3.d o > X.M.z.2.^ O.x.m.m.x.k./ x G ^ F 6 O                                   ",
"                  = ~ q.F.g.6.-.;.g.F.V.m.4.O./ _ / l e s ^ _ / | j.l.x.B.B.M.z.l.h.G H z 4 X                                   ",
"                  + 9.L.e.Y.(./.^.T.d.s.y.N.1./ / ` { o.h./ / ( O.m.N.B.B.S.v.M.M.@.G G F u 5                                   ",
"                  o #.i.$.Q.OX*XXX).,.u.B.m.z.l.z.l.w.b.n.z.4.c.v.x.m.S.b.m.x.m.M.@.x x H H i >                                 ",
"                C ! <.U.^. X$X=X&X`.-.u.u.v.m.M.M.u.D.V.B.V.N.S.V.m.B.B.m.y.m.m.M.+.x x H ^ h >                                 ",
"              o [ B.>.E.oX&X$X&X$X`.-.t.m.m.x.m.B.B.B.B.m.m.B.B.u.v.x.m.z.v.V.u.M.+.x x H H g :                                 ",
"              o ..H.=.R.+X=X&XOX].W.t.u.u.x.v.B.B.B.Z.m.v.m.Z.S.B.m.m.v.m.m.S.V.M.+.x x H H g > +                               ",
"              o [ B.&.T.oX&X&X{.8.r.F.S.B.m.B.S.B.B.B.Z.m.B.B.S.S.v.u.u.m.m.S.S.M.+.x x H H g : * ;                             ",
"              o [ Z.%.R.+X=X&X{.r.r.F.f.a.S.F.H.B.B.B.m.z.B.V.B.m.z.u.B.m.m.B.S.m.+.x G H ^ g > * ;                             ",
"              o [ B.>.T. X*X&X}.d.e.F.F.F.G.F.S.S.u.B.B.m.m.u.v.x.m.B.u.m.v.S.B.M.+.x G H H g : & ;                             ",
"              o [ Z.s.P.Y.].%X|.a.e.F.G.F.F.H.S.S.B.Z.m.x.m.v.m.m.B.M.m.v.m.S.S.M.+.x x H H g : & ;                             ",
"              o [ B.L.f.*.R.|.`.a.p.G.f.F.F.S.S.B.B.B.B.m.m.x.x.w.V.B.x.m.m.B.B.M.+.x x H ^ g > & :                             ",
"              o [ B.K.P.P.I.K.K.G.G.F.f.f.S.Z.S.S.B.B.B.B.B.m.x.M.B.m.z.m.B.m.m.M.+.x x H H g : & ;                             ",
"              o [ m.G.P.d.E.'.!.G.a.F.S.S.B.S.S.Z.m.m.B.B.B.m.m.m.B.B.m.Z.B.v.M.M.@.x x H H g > & ;                             ",
"              O ) x.J.P.:./.@X}.p.e.F.B.B.Z.B.H.S.Z.z.m.Z.Z.B.v.m.Z.m.m.m.Z.m.m.y.+.x x H H f > & ;                             ",
"              o } M.J.F.-._.#X.Xp.e.F.Z.B.Z.B.b.B.B.m.m.b.Z.B.B.m.m.m.z.m.m.m.l.+.' x H c c f : * ;                             ",
"              o E 0.B.B.,.^.oX].a.p.G.Z.B.Z.m.x.m.B.v.m.Z.B.B.B.B.m.x.m.m.m.M.j.H j H H H H f > & ;                             ",
"                p S 2.J.B.U.!.W.G.S.S.B.B.B.m.m.B.B.m.m.B.B.V.m.m.B.y.m.z.M.N.k.H k H H H ^ h > & ;                             ",
"                  o #.C.C.u.8.e.F.S.H.b.B.S.y.v.B.u.m.m.B.B.u.b.m.u.u.v.m.m.4.+.^ x H H G z i : * ;                             ",
"                  * @.A.B.B.G.F.Z.S.S.B.B.S.y.m.v.m.u.B.B.B.u.B.u.S.m.m.M.z.| H H H H H z t ; ; ; :                             ",
"                  = ! 2.m.C.J.B.m.Z.S.B.B.B.v.m.m.m.u.B.Z.B.B.u.u.B.M.m.l.+.^ j H H H H z 4 X ; ; ;                             ",
"                    o y 3.N.B.B.v.B.S.S.y.v.B.Z.B.B.S.V.B.Z.B.S.u.m.y.v.O.k c H x H H ^ h 6 & ; ; ;                             ",
"                      ; R @.m.M.m.B.F.B.B.m.B.B.B.B.B.w.m.Z.H.J.C.M.l.O./ k x H H H H h r > & ; ;                               ",
"                      + . A 4.y.v.B.B.Z.B.B.B.V.m.v.V.u.m.B.H.H.b.m.+.k k c H H H H z w O ; : ;                                 ",
"                        o < S 1.N.C.C.B.m.m.B.u.y.m.J.C.M.N.B.h.h.h.^ x x H H ^ ^ h w > & ; ; ;                                 ",
"                          O o E l.c.c.z.m.z.u.B.m.m.n.n.l.l.3.' a j k c H c x h z r O & : ; ; :                                 ",
"                            + 0 C y W 5.A.M.M.M.N.v.o.( ' ` ' H x H H ^ ^ G r 5 6 , = ; : ; ;                                   ",
"                              O o . < X.3.@.1.3.3.@.^ l k k k H H H F g h f > O & * ; ; ; ;                                     ",
"                                ; * > 9 q 9 h / / ^ H H H H H H H ^ g > > > : ; ; ; : ; ;                                       ",
"                                  > + O X o 2 e e e i g i i i i i g w & O * = : : ; ; ;                                         ",
"                                    ; : ; ; ; = = @ = @ ; = = ; = ; ; ; ; ; ; ; ; ; ;                                           ",
"                                          ; = * + & & * & O & * & & * ; : ; ; ;                                                 ",
"                                          ; ; ; : ; ; ; ; ; ; : ; ; ; ; : ; ;                                                   ",
"                                                ; ; ; : ; : ; ; ; ; : ;                                                         ",
"                                                  : ; ; ; : ; ; : % : ;                                                         ",
"                                                                                                                                ",
"                                                                                                                                ",
"                                                                                                                                ",
"                                                                                                                                ",
"                                                                                                                                ",
"                                                                                                                                ",
"                                                                                                                                "
};
