/* XPM */
static char *_8dcf3ae38f646df897dbfd0d3f858acVr066xwd4C0vIz7F[] = {
/* columns rows colors chars-per-pixel */
"64 64 217 2 ",
"   c None",
".  c #000003",
"X  c #0E0000",
"o  c #00000D",
"O  c #100002",
"+  c #15000B",
"@  c #000011",
"#  c #000E15",
"$  c #080518",
"%  c #140013",
"&  c #15031A",
"*  c #170C1A",
"=  c #1F081A",
"-  c #001017",
";  c #021018",
":  c #0D111A",
">  c #16111B",
",  c #19111B",
"<  c #191B1E",
"1  c #27121E",
"2  c #30141C",
"3  c #16280E",
"4  c #192913",
"5  c #212D1D",
"6  c #1B1F21",
"7  c #2A1222",
"8  c #391425",
"9  c #1A2522",
"0  c #1E342A",
"q  c #193832",
"w  c #213C2C",
"e  c #431625",
"r  c #4A172C",
"t  c #561A26",
"y  c #5D1A33",
"u  c #551832",
"i  c #54002B",
"p  c #621B28",
"a  c #690335",
"s  c #7E0035",
"d  c #760036",
"f  c #6D1E35",
"g  c #691939",
"h  c #731D3A",
"j  c #771A39",
"k  c #730025",
"l  c #53222B",
"z  c #692025",
"x  c #712228",
"c  c #7C223B",
"v  c #762138",
"b  c #70323F",
"n  c #67373C",
"m  c #30561D",
"M  c #1B583C",
"N  c #2E4A23",
"B  c #254B36",
"V  c #244834",
"C  c #28533A",
"Z  c #314F24",
"A  c #3A6523",
"S  c #31613C",
"D  c #46762B",
"F  c #786F3E",
"G  c #704F3B",
"H  c #58004C",
"J  c #5B2841",
"K  c #563544",
"L  c #653E45",
"P  c #743D40",
"I  c #1D5648",
"U  c #2B5E42",
"Y  c #196D5C",
"T  c #1F7D5D",
"R  c #266149",
"E  c #306D4B",
"W  c #32714D",
"Q  c #296D58",
"!  c #346654",
"~  c #2D7B5B",
"^  c #29775C",
"/  c #367E55",
"(  c #347954",
")  c #4B4948",
"_  c #594A48",
"`  c #5B5C4D",
"'  c #67594A",
"]  c #6D4144",
"[  c #56664D",
"{  c #557652",
"}  c #4E7551",
"|  c #860236",
" . c #980437",
".. c #85193A",
"X. c #951A3A",
"o. c #A50036",
"O. c #B3003A",
"+. c #BA0036",
"@. c #BA0935",
"#. c #89253C",
"$. c #94293B",
"%. c #882A30",
"&. c #A52E3C",
"*. c #B72B38",
"=. c #A7373B",
"-. c #BE3639",
";. c #B73639",
":. c #DF013B",
">. c #DE0A3C",
",. c #C21A3B",
"<. c #DF1A3D",
"1. c #C6033C",
"2. c #E0013C",
"3. c #E11E3D",
"4. c #C5283B",
"5. c #DE263E",
"6. c #D62E3E",
"7. c #C2353D",
"8. c #CC343E",
"9. c #CE3B3D",
"0. c #C33939",
"q. c #D63B3E",
"w. c #E12B3E",
"e. c #E1263E",
"r. c #E1323F",
"t. c #DC403F",
"y. c #893C41",
"u. c #983F42",
"i. c #B93840",
"p. c #AB3D40",
"a. c #C33A40",
"s. c #D53C40",
"d. c #DB3D40",
"f. c #E43640",
"g. c #E23D40",
"h. c #EA3E42",
"j. c #E83441",
"k. c #E42A40",
"l. c #924A47",
"z. c #B15F4F",
"x. c #9E744A",
"c. c #926D48",
"v. c #B76847",
"b. c #A07A4B",
"n. c #DC4041",
"m. c #DF4942",
"M. c #D35244",
"N. c #E24241",
"B. c #EA4443",
"V. c #E24A42",
"C. c #E35444",
"Z. c #E45846",
"A. c #F14746",
"S. c #C7794C",
"D. c #CF6E49",
"F. c #E8774D",
"G. c #E86749",
"H. c #4E8632",
"J. c #579835",
"K. c #5FA238",
"L. c #63A93B",
"P. c #6BB83E",
"I. c #72C03C",
"U. c #2B855C",
"Y. c #34845B",
"T. c #39855A",
"R. c #3B8A5D",
"E. c #378057",
"W. c #36A759",
"Q. c #4C9A58",
"!. c #479658",
"~. c #5A8C51",
"^. c #619851",
"/. c #7A9740",
"(. c #5AAD56",
"). c #54A455",
"_. c #5DB657",
"`. c #47AB58",
"'. c #6DB840",
"]. c #65B954",
"[. c #70B04A",
"{. c #4A9D61",
"}. c #77CC46",
"|. c #78C646",
" X c #7AD44E",
".X c #7EDB4D",
"XX c #7BD247",
"oX c #6AC353",
"OX c #69C655",
"+X c #72CB52",
"@X c #6FD04F",
"#X c #A3884F",
"$X c #BA864F",
"%X c #B3904D",
"&X c #8AA644",
"*X c #B5AF50",
"=X c #EA8751",
"-X c #E78E53",
";X c #F1A65A",
":X c #F4B55F",
">X c #EEAB5B",
",X c #ECBE62",
"<X c #F9BC62",
"1X c #83CC48",
"2X c #82DE4C",
"3X c #80DE50",
"4X c #84E24C",
"5X c #86EA4D",
"6X c #89E94D",
"7X c #89E74A",
"8X c #8AEB50",
"9X c #F8C966",
"0X c #F6D56A",
"qX c #E9D46A",
"wX c #F4E36F",
"eX c #F9E971",
"rX c #F6EA72",
/* pixels */
"                                                                                                                                ",
"                                                                                                                                ",
"                                                                                                                                ",
"                                                                                                                                ",
"                                                                                                                                ",
"                                                                                                                                ",
"                                                                                                                                ",
"                                                                                                                                ",
"                                                                                                                                ",
"                                                                                                                                ",
"                                                                                                                                ",
"                                                                                                                                ",
"                                                                                    & o o X                                     ",
"                                                                                  @ & D H.S q                                   ",
"                                                                                    & P..XQ.R <                                 ",
"                                                                                  D L.oX].{.Q 6                                 ",
"                                                        3 3 3 3 4 5 w 5         & P.4X(.^ T.W <                                 ",
"                                              . . . . D P.|.'.P.P.P.P.'.D . . A L.2X6X_.Y U V , %                               ",
"                                            m A A A Z L.5X6X6X6X6X6X6X7XL.Z N L.4X8XXX).R 9 X * , >                             ",
"                                      o . . J.XXXX}.}..X4X7X5X4X4X4X4X2X.X}.}.1X4X+X!.R & & & > > ,                             ",
"                                      H.J.H.}.8X8X6X6X3X+XOX+X3X4X4X2X4X4X8X8X6X4X].Y I w , + > >                               ",
"                                  o A }.8X4X.X4X4X4X6X+XR.^ !. X7X2X4X2X2X3X2X2X4X].~ ~ W w X *                                 ",
"                                  @ N J.'.[.1X5X+X_.OX^.` H ' '.4X4X2X4X4X4X2X4X2X X].Q.~ E V <                                 ",
"                                    $ o i s &X.X).^ ~ ` j | F 1X5X4X4X2X4X4X4X2X2X7X2X(.~ R.W 6                                 ",
"                                      . k 1.#X`.} K _ y d /.1X2X4X3X4X2X4X4X4X4X4X7X2X).Y R.! %                                 ",
"                                      t *.B.z.! P o. . .$.&X2X2X4X4X4X4X4X2X X X2X7X2X].!.!.( q 9                               ",
"                                  o p 0.N.N.=.n i.g.n.d.q.p.F 1X4X4X4X4X7X3X).(.7X7X2X2X].!.^ ( C X                             ",
"                                  o x q.A.B.,.O.s.V.B.V.N.O.j '.8X4X.XOXoX].} ~.]. X7X6X3XQ.~ !.( C 0                           ",
"                                  @ z 9.B.N.r.q.g.g.N.N.N.O.G 1X5X5XoXT.U.} ] ] / ].4X4X XQ.~ T.R.E.B X                         ",
"                                  o z 9.h.r.;X9X=X<.d.f.r.%XP.]._._.^.) ) _ h j L ~.].3X3XQ.~ T.R.T.C X                         ",
"                                  @ z 9.r.e.,XrX-X:.g.k.N.*X.X`.Q ^ '  . .....h ..` !.+X+XQ.~ T.R./ B O                         ",
"                                  @ z 9.h.h.S.#XD.j.g.f.N.#XW.} l ) l.8.6.7.X.L [ (.+X(.!.!.Y.T.R.T.B O *                       ",
"                                  o t 9.B.B.O. .4.B.N.N.f.c.! y.o.X.*.j.h.d. .) U.oX4X(.Y Y.T.T.R./ V O *                       ",
"                                  . t 9.B.N.q.q.N.N.n.N.h.=.b a.g.d.k.:.j.d. .) ~ OX4X_.T U.Y./ R./ V X &                       ",
"                                  %.;.q.N.N.N.B.N.g.3.k.N.a.*.d.h.j.=X<X=X5.i.u.` Q.OX~.` [ { !.R.T.W C 9                       ",
"                                2 -.B.N.N.N.N.n.n.N.V.N.g.g.r.N.d.2.<XrX;X2.j.a...[ T.] s s ' / Y.T.T.( w X                     ",
"                                2 0.B.N.N.N.N.N.>.F.9X<XV.w.N.N.g.j.S.*XS.r.B.q.a.u._ P s s n C M U R B 9                       ",
"                                2 -.B.N.N.N.g.N.2.=XwX9XV.e.N.N.N.V.@.| ,.B.N.B.B.*.| j c ..g + . + + % ,                       ",
"                                2 -.B.N.g.N.N.n.j.M.x.x.n.r.m.N.N.N.q.6.q.N.g.B.B.-.h h c #.f = @ & & & * > >                   ",
"                                2 0.N.w.q.N.N.N.B.6. .O.N.N.N.N.N.N.N.B.N.N.N.n.9.&.h c v f t , ; > > > > > >                   ",
"                                2 -.h.e.w.h.N.N.N.n.d.t.N.N.N.N.N.N.N.N.g.N.B.s.#.v v P v e - > > > , > >                       ",
"                                2 +.G.:X;XC.w.N.N.N.N.B.N.5.>.r.N.n.n.N.e.>.4.=.h h j j r > # > , >                             ",
"                                2 +.F.eX0XC.>.N.N.N.N.N.N.C.Z.N.g.N.N.N.C.M.$.g c j j e # > > > > >                             ",
"                                2 *.Z.%X$Xm.r.N.N.N.N.6.r.:X0X=X:.n.k.N.<XqXx.a #.f e 1 # > > >                                 ",
"                                2 0.d. .o.t.B.t.N.N.N.w.q.,XwX=X:.g.e.N.9XqXx.a h r # # > > , >                                 ",
"                                2 0.g.q.t.t.N.N.N.N.N.r.N.z.c.M.h.n.g.B.v.c.y.a e , : > > > >                                   ",
"                                2 0.B.B.B.N.N.N.r.w.N.N.N.+. .6.B.B.n.a.| i a l # # > , , >                                     ",
"                                2 0.B.N.t.N.N.n.r.q.r.N.N.N.N.N.N.B.i.c c v e ; , * , > >                                       ",
"                                  %.;.q.N.N.5.C.:X<XG.<.h.h.h.a.i.;.$.e r r 1 # > > ,                                           ",
"                                  . t 9.B.N.>.Z.0XwXF.:.d.f.s.#.u f u - # ; > , > > >                                           ",
"                                  o z 9.B.B.r.V.$X$XC.6.p.u.$.p 7 8 7 : - : > > >                                               ",
"                                  o z q.N.9.t.9.| d a.;.y u u 7 # ; - > > > > > >                                               ",
"                                  @ x q.d.y.#.#...#.$.v 2 1 7 1 : * > > > > > ,                                                 ",
"                                    t ;.&.u r r y y u 8 # # # : , * > > >                                                       ",
"                                      : * & > > : > > > > , > , > > > >                                                         ",
"                                      # ; ; ; ; - - - ; > > > > ,                                                               ",
"                                        > > , > > > > , > , > >                                                                 ",
"                                          > > > > > > > >                                                                       ",
"                                            >         > ,                                                                       ",
"                                                                                                                                ",
"                                                                                                                                ",
"                                                                                                                                ",
"                                                                                                                                ",
"                                                                                                                                "
};
