/* XPM */
static char *d04a8e1fc3bc4fe4c5368e8c3731e4f2UAX5JREH9RuP2atU[] = {
/* columns rows colors chars-per-pixel */
"26 32 142 2 ",
"   c None",
".  c #5C4C56",
"X  c #554D59",
"o  c #5A4F59",
"O  c #53505C",
"+  c #5D515A",
"@  c #64545A",
"#  c #6D565A",
"$  c #6F5A5C",
"%  c #70575A",
"&  c #725A5C",
"*  c #7B5F5C",
"=  c #75615F",
"-  c #78615E",
";  c #4F5361",
":  c #535562",
">  c #5C5662",
",  c #555966",
"<  c #5E5B64",
"1  c #5C5E6A",
"2  c #635F66",
"3  c #5E616C",
"4  c #5F6572",
"5  c #5E6875",
"6  c #63626A",
"7  c #68676F",
"8  c #6A696F",
"9  c #756464",
"0  c #7B6462",
"q  c #7E6965",
"w  c #70656B",
"e  c #7E6F6B",
"r  c #636770",
"t  c #636A75",
"y  c #6A6C74",
"u  c #656E7A",
"i  c #6A6F79",
"p  c #67707B",
"a  c #6C717B",
"s  c #7A7071",
"d  c #70747D",
"f  c #86645E",
"g  c #89675F",
"h  c #826661",
"j  c #886760",
"k  c #826C66",
"l  c #8B6C63",
"z  c #836F69",
"x  c #8F7165",
"c  c #86716A",
"v  c #8C7269",
"b  c #927366",
"n  c #9A7264",
"m  c #947669",
"M  c #957B6E",
"N  c #9D7B6B",
"B  c #977F71",
"V  c #9D7F70",
"C  c #A17C6A",
"Z  c #A87F6D",
"A  c #9C8271",
"S  c #A7816F",
"D  c #A38573",
"F  c #A78975",
"G  c #AC8B76",
"H  c #AC8E79",
"J  c #B18D77",
"K  c #B28F78",
"L  c #AC907A",
"P  c #B4947D",
"I  c #B8977E",
"U  c #B7987F",
"Y  c #B9997F",
"T  c #B8987F",
"R  c #B9987F",
"E  c #6F7781",
"W  c #6F7982",
"Q  c #6F7882",
"!  c #757A82",
"~  c #757E86",
"^  c #767F87",
"/  c #747C85",
"(  c #778087",
")  c #798289",
"_  c #7A838A",
"`  c #7A838B",
"'  c #7A848B",
"]  c #7B848B",
"[  c #7B858B",
"{  c #7B858C",
"}  c #7C858C",
"|  c #7C868C",
" . c #7A848B",
".. c #7E888E",
"X. c #818A90",
"o. c #818B91",
"O. c #828B90",
"+. c #828B91",
"@. c #818B92",
"#. c #828C92",
"$. c #838C92",
"%. c #838D93",
"&. c #848E93",
"*. c #848E94",
"=. c #848F94",
"-. c #858F94",
";. c #858F95",
":. c #848D93",
">. c #859095",
",. c #869095",
"<. c #869095",
"1. c #899499",
"2. c #8E989C",
"3. c #8E999D",
"4. c #909B9E",
"5. c #919C9F",
"6. c #B69B81",
"7. c #B89980",
"8. c #B99980",
"9. c #B89A80",
"0. c #BA9A80",
"q. c #BB9A80",
"w. c #BA9B81",
"e. c #BB9B81",
"r. c #BC9C81",
"t. c #BD9C81",
"y. c #BC9C82",
"u. c #BD9D82",
"i. c #BE9D82",
"p. c #BE9E83",
"a. c #B89E84",
"s. c #BA9B81",
"d. c #BCA286",
"f. c #BDA488",
"g. c #BDA689",
"h. c #939EA2",
"j. c #96A1A4",
"k. c #97A2A5",
"l. c #98A3A6",
"z. c #99A4A7",
"x. c #9AA6A8",
"c. c #C1AA8C",
/* pixels */
"        6 r r r t t r t y i d d y r r y t 6         ",
"      r u 6 6 6 2 2 2 2 6 r 7 r 6 6 6 2 2 u t       ",
"    4 s m C b - N N C C * q N N N n & m C b w r     ",
"  r y J D P F z y.P A u.m A i.V P K 0 P P A C 7 r   ",
"  u e Y F P F q I P G 9.v B 6.G P P 0 H P F P 9 a   ",
"6 u M Y P 9.D z 9.f.g.9.v B I P P P 0 H P 7.P h p 6 ",
"6 u A Y P I D q 9.a.6.6.l B Y P P P q H P P P j u 6 ",
"6 u A u.P 9.D c u.P I y.v A u.6.P K q P y.P H j a 6 ",
"6 a 0 m x x - @ b x x b & = m x b f + l b l h # a 6 ",
"2 a ; t p t u i u p p u u u t t t u p t t u u : a 2 ",
"6 i r <.@.<.>.<.5.x.l.j.<.<.<.<.>.=.<.<.;.+.@.r i 6 ",
"6 y u +.a @.@.@.>.3.2.>.@.=.@.=.@.@.@.:.@.d ' 3 a 6 ",
"7 d 3 ! / ) ' ' _ [ | ' ' ' ' ' ' ' ' ' ' ^ p 3 a 2 ",
"7 ! X , : : : > , O : O : : ; : : : , : : : , O a 6 ",
"y / . % # # # X # $ $ % @ + # # % % o @ # # & . a 6 ",
"7 E m K G H V q J G G G l M K G K S & F K G Z f E 2 ",
"7 u A Y P U D k 9.P P I v A 9.P U P 0 L U P G f p 6 ",
"6 u A d.g.d.D k 9.P P 7.v B 7.d.d.P 0 L U P U g p 6 ",
"6 u A Y g.d.D q 7.P P 7.v B 9.f.y.P 0 L P P P g p 6 ",
"6 u A Y P P D e 7.P P 9.v B I P P P 0 L U P U f / 8 ",
"6 y A I P P F q P P P 7.v B I P P P - L U P P f ! y ",
"6 i D u.P U F l i.7.7.I l A u.7.U P q P y.U K g d 8 ",
"6 p 9 m x b * @ b v x x # = m l x l @ z b x g # Q 6 ",
"2 a O 5 u u u u t t t u u u u u u p i t t u t , a 6 ",
"6 u u ;.+.;.:.<.;.;.;.;.;.<.h.l.z.k.>.:.<.@.<.r a 6 ",
"6 i t ..a @.:.:.;.@.$.;.;.$.$.1.4.:.:.:.@.a @.p i 6 ",
"6 d 1 a ( _ ' _ ` ` ] ] _ _ _ _ [ _ _ ' ) ~ Q 3 a 6 ",
"2 a X , ; : : > : : : : , : : : O : , : : : : X a 6 ",
"2 a . # & % @ + # % % % @ . # & $ # X @ # % & @ a 2 ",
"6 u N P A G C q P G V K h M I V G G 0 G J A Z f a 6 ",
"1 r M H M F b 9 H F B H q v K B D N $ D G M S - t < ",
"X > X X + + O X X . o X X X X + o X X X o + + O > X "
};
