/* XPM */
static char *_48ec9bb61a4489aee0e3fa75ad98870kMbzJCfQqwkzxxcn[] = {
/* columns rows colors chars-per-pixel */
"64 64 186 2 ",
"   c None",
".  c #4B4556",
"X  c #4E4A59",
"o  c #524251",
"O  c #534A57",
"+  c #5A4C56",
"@  c #534E5A",
"#  c #5C4E59",
"$  c #54515D",
"%  c #5B535C",
"&  c #5C585F",
"*  c #604F59",
"=  c #665257",
"-  c #6C5457",
";  c #63535A",
":  c #6A565A",
">  c #64585E",
",  c #6C5B5E",
"<  c #7B5B57",
"1  c #705758",
"2  c #735C5C",
"3  c #795D5B",
"4  c #77615E",
"5  c #7C625E",
"6  c #575460",
"7  c #5A5561",
"8  c #535865",
"9  c #5D5B65",
"0  c #565E6A",
"q  c #5B5E6A",
"w  c #625D65",
"e  c #6C5D61",
"r  c #625F69",
"t  c #715F61",
"y  c #57606C",
"u  c #5B616D",
"i  c #5D6573",
"p  c #5F6875",
"a  c #5F6B79",
"s  c #646167",
"d  c #6D6064",
"f  c #63636C",
"g  c #6A656C",
"h  c #66686F",
"j  c #69686F",
"k  c #746262",
"l  c #7C6563",
"z  c #7E6966",
"x  c #726569",
"c  c #756A6D",
"v  c #7B6B69",
"b  c #646670",
"n  c #646A74",
"m  c #6A6B73",
"M  c #636D7A",
"N  c #6B6F79",
"B  c #736E76",
"V  c #6C7077",
"C  c #66727E",
"Z  c #6D727B",
"A  c #737177",
"S  c #7B7172",
"D  c #72747C",
"F  c #79767B",
"G  c #72787F",
"H  c #7B797E",
"J  c #83635D",
"K  c #8A655D",
"L  c #8D695F",
"P  c #826661",
"I  c #836B66",
"U  c #8C6D64",
"Y  c #846E69",
"T  c #886F68",
"R  c #926D62",
"E  c #8D7066",
"W  c #85716B",
"Q  c #8B736A",
"!  c #8F786D",
"~  c #937366",
"^  c #9B7667",
"/  c #9D7A67",
"(  c #92756A",
")  c #997769",
"_  c #9D7769",
"`  c #94796D",
"'  c #99796A",
"]  c #9D7B6A",
"[  c #9F7D6B",
"{  c #987A6C",
"}  c #9C7E6E",
"|  c #9C7C6C",
" . c #877772",
".. c #827370",
"X. c #8E7D76",
"o. c #8E7A71",
"O. c #917A70",
"+. c #957E71",
"@. c #9A7F70",
"#. c #987E70",
"$. c #997F71",
"%. c #A07666",
"&. c #A17D6A",
"*. c #A67E6A",
"=. c #A37F6C",
"-. c #A17E6D",
";. c #9D816F",
":. c #998071",
">. c #9F8371",
",. c #9C8272",
"<. c #A4806B",
"1. c #A3806D",
"2. c #A5816D",
"3. c #A6816D",
"4. c #A5826F",
"5. c #A3816E",
"6. c #A8836F",
"7. c #A8846F",
"8. c #AA846E",
"9. c #AA846F",
"0. c #A18473",
"q. c #A78672",
"w. c #A38774",
"e. c #A38472",
"r. c #A88773",
"t. c #AD8771",
"y. c #A98571",
"u. c #A38875",
"i. c #A68875",
"p. c #A48976",
"a. c #A98B75",
"s. c #AB8D77",
"d. c #AB8B76",
"f. c #A78C78",
"g. c #AC8E78",
"h. c #AE8E78",
"j. c #AC8E79",
"k. c #B18E77",
"l. c #B28D77",
"z. c #B08F78",
"x. c #B18F78",
"c. c #AE907A",
"v. c #B29077",
"b. c #B3937B",
"n. c #B0917A",
"m. c #B4947C",
"M. c #B4947C",
"N. c #B8957C",
"B. c #B8967D",
"V. c #B7987F",
"C. c #B9987E",
"Z. c #B9987F",
"A. c #667480",
"S. c #6B7680",
"D. c #6E7983",
"F. c #747780",
"G. c #727B83",
"H. c #787E86",
"J. c #707E88",
"K. c #778087",
"L. c #768088",
"P. c #7B848B",
"I. c #7E898F",
"U. c #7E8990",
"Y. c #80898F",
"T. c #838D93",
"R. c #879196",
"E. c #889297",
"W. c #879298",
"Q. c #8B959A",
"!. c #8E999E",
"~. c #909B9F",
"^. c #B79980",
"/. c #BA9B81",
"(. c #BCA186",
"). c #BDA589",
"_. c #BEA88B",
"`. c #929DA1",
"'. c #95A0A3",
"]. c #99A4A6",
"[. c #9AA5A8",
"{. c #9CA8A9",
"}. c #C09F83",
"|. c #C1A185",
" X c #C0A789",
".X c #C1AA8C",
/* pixels */
"                    w r f b n n b b m n n n n n n b b b n n m N V A Z G D D Z V m m n n f n n n n m n f r 9                     ",
"                  f b b b b b b b b f f f f b b b b f b f b n m m V V V V V V V n m f f n f b b f h b f b b u                   ",
"                i i M a i q q u s u s u u 9 u q u q u q 9 i i b b b b b h h i i i u f u f f f s q 0 u i a M n b                 ",
"              f n D D A B x k g g g s g x x x x x x x x x g s s s g j c c c c x x x x x g w s g x k x B A D F.N f               ",
"          u i b m S W ! ( ( R U U k 4 z E ( ~ ~ ( ( ) ) ( P k 2 4 5 U ( ( ( ( ( ~ R R U 3 , l I E ~ ( ( Q Y c f f b f           ",
"        u i C H  .O.{ [ =.6.4.-.( P 5 E 4.t.4.4.=.-.=.t.6._ K 5 5 Q ' 7.8.<.<.<.4.4.=._ K 2 J { 4.4.4.1./ ( Q z B V i u         ",
"      f f i A :.i.r.>.0.s.h.h.r.[ W I +.m.N.M.s.i.$.0.n.N.r.( E ! ,.c.C.b.w.;.i.c.n.l.y.T l Q u.b.b.c.s.;.' ` ( Y m i f f       ",
"    f n N n S ,.m.x.p.f.c.^.M.h.0.Q I ,./.}./.M.p.,.f.^./.h.` Q +.>.b.(.V.p.,.a.b.m.m.j.( l ! f.^.^.m.c.p.5.7.<.( B b Z n n     ",
"    n M Z j ..>.N.m.p.i.M.m.M.d.>.T I $.b./.m.c.f.u.s././.d.( Q ! ,.c.^.^.d.i.s.M.M.^.j.( l Q f.x.^.^.x.r.r.l.l.$.v f S.N m     ",
"    p C G S ! a./.N.h.h.n.m.c.d.@.Y I +.n./.^.b.c.c.^./.V.p.E Q ! :.c.^.m.M.j.h.M.^.N.h.( l W p.^.x.^.x.j.l.^.N.>.P e G A.M     ",
"  s p M F W :.a.^.^.m.M.V.C.M.p.[ Q I $.M./.(.(.)._.).|.C.p.( Y ! :.f.V.N.m.b.^.^.m.N.h.( l W p.j.^.^.x.^.^.^.b.0.P x A Z M r   ",
"r s p M F  .;.c.N.^.N.m.^.C.n.d.$.Q v $.c.(.(.)._._. X(.m.q.( I ! :.c.V.^.^.^.b.m.^.m.j.( l ! p.^.x.^.^.x.^./.x.y.U l A M M s w ",
"s f n M F ! >.c./.m.M.c.m.m.b.s.$.T I +.b.(.(.(.(.(.(.^.m.p.( Q ! :.a.V.V.c.b.^.m.^.^.d.( l Y p.j.j.^.x.^.^.^.^.q.R l B V M f s ",
"s f p M F X.i.b.^.^.M.M././.b.d.[ T I $.b./././.^.^.^./.m.q.( Q ! ,.c.V.^.^.b.b.m.^.^.j.O.P ! p.^.^.^.^.^.x.x.x.e.R l B M M f s ",
"s f i a F +.s.m./.}./.^././.m.h.-.! W ,./.|./././.C./.(.Z.s.` ( +.>.M.(.(./.C./.^./.^.l.O.I O.j././././.^.^./.x.=.R l B M n f w ",
"s f a M F o.5.h.m.N.M.M.N.m.h.-.( I z +.c.^.n.x.x.x.n.m.n.1.E I ! :.f.V.N.m.n.m.x.x.l.-.U l T i.x.x.^.x.l.d.l.*._ P l B C M s r ",
"r s n M A v Q ) =.1.] ' [ ;.^ L 5 1 - P ' <.;./ ] ' / =./ U 5 4 l P ( -.e._ { [ ] ] ~ U 3 = 2 Q ) @.&._ ] ^ ~ R K < t N N M f w ",
"9 f N C N e 2 l I T I I Y I z l , > w d z Y I I I I I I I l d e d t z I Y I I I I P P 2 > % > l I I Y I I P I l 2 - w N Z N r r ",
"9 f N Z m 9 % 9 n m m m m m j j f f b b m n j j m m m m m m h n f n b j m g m g m g h h f b f n m g m j m m m b r % 9 m Z m f 9 ",
"9 b m Z M 0 8 i C S.C A.C C C S.D.G.D.D.D.D.D.L.J.J.G.G.G.D.D.Z G.C A.A.C A.C A.A.A.G C G.G.G.A.A.A.A.A.C C A.A.i 8 q N Z N f 9 ",
"9 f m N V b b G.I.T.P.P.U.Y.U.T.I.I.I.R.W.Q.~.~.~.~.~.~.!.R.T.Y.I.Y.I.I.U.U.U.U.U.U.U.T.U.U.T.I.U.U.Y.U.P.U.U.U.S.b i N N m f r ",
"r s m N V N V P.R.R.T.Y.T.W.T.W.R.R.R.Q.!.'.[.{.{.{.].].'.~.R.R.R.R.R.R.W.R.R.W.W.R.W.T.R.R.T.W.R.R.W.T.Y.Y.T.U.H.b f N N N f r ",
"r b n N Z m Z P.T.Y.F.G.P.T.T.T.R.R.R.R.E.E.~.'.~.~.~.!.Q.R.T.T.T.R.R.R.T.T.R.T.R.T.T.T.T.T.T.T.T.T.T.Y.F.F.P.U.F.n r N N m f r ",
"r f n N Z n N H.P.P.Z Z H.Y.T.T.I.I.U.I.I.R.E.Q.!.Q.R.T.T.Y.U.T.Y.Y.T.Y.T.T.T.T.T.T.T.T.T.T.T.T.T.T.T.H.F.G H.H.Z i i N A M f r ",
"s f m Z Z b n C H.L.H.H.P.U.U.U.I.I.I.I.I.I.T.T.T.T.T.Y.I.I.I.I.I.I.Y.Y.I.I.I.I.U.U.Y.I.I.P.P.T.U.U.U.P.P.H.G.A.M u f Z Z N f r ",
"f n A G D u q i V C D.D.F.F.D.D.L.G G L.G.D.G.G.G.G.G.G.G.G.G.G.G.G.G.G.G.G.G.G.G.D.G.G.G.G.G.G.G.G.G.G.G.S.M n u 9 u N N m s 9 ",
"f f G G.V 9 $ 6 y u y y u u u u u u u u u u u u y u y u u u u u u u u y y y y u i q q i u f i u u u u u q 0 0 0 8 $ 9 m V N f 9 ",
"f m F.H.G 7 . O 6 % $ $ $ @ @ $ $ @ @ $ X @ @ O @ @ X $ @ $ @ @ $ @ $ @ $ @ $ $ @ @ @ @ @ $ @ @ $ $ @ $ @ $ 7 7 $ @ 7 N Z N f 9 ",
"f N F.H.G 7 o + ; ; * # * * ; * % @ @ @ # # % ; % * * * * * % @ @ @ # # = % * * * * ; ; % O @ + + # ; * * * ; ; * + 7 N Z N f 9 ",
"g m G.H.H e - 3 P P P P P P P t 4 : ; , 5 J P J P P P P P 3 : - - , 3 P J J J J P P P t : ; > 2 5 l P J l P P P 3 - e N Z N f r ",
"g m Z D.F.Y E ] i.q.-.-.q.y.-.{ E 5 l Q 5.q.4.1.1.e.-.y.e.( P l I Q ' y.r.1.>.0.=.=.&.( P e z ( -.4.q.y.q.-.&._ R J k A N M f 9 ",
"g m Z A.H o.;.h.N.N.x.x.^.x.x.r.;.T z :.v.C.m.m.x.n.m.N.x.y.( T ! $.d.N.N.m.v.m.N.l.l.y.R t Q 0.x.m.m.n.x.l.l.y.%.K z B M n f r ",
"s h M C G :.>.v.^.^.M.n.m.m.M.p.@.T Y #.^./.^.x.b.m.V.C.m.p.( Q ` ,.j.^./.m.x.M.V.m.m.d.Q l Q p.M.V.V.b.M.h.x.d.&.R l B M M r r ",
"s h p M D :.u.b././.^.^././.M.s.@.Y I #.^./.^.^.^.m.V./.C.p.( Q O.,.s././.^.^.^.^.^.C.h.( l Q a.^.^.V.^.^.^.m.h._ R l B A.n s r ",
"s h p a F ! w.b./.(.).(.)./.b.s.@.T I #.x./.^.x.b.b.V./.N.p.( Q ` ,.s.^./.^./.(.(././.h.( l Q u.c.V.V.V.b.^.^.m.y.U l B M n f r ",
"s g i a F ! w.b./. X_._._.(.b.d.@.T I O.^.^.^.x.b.b.m./.N.p.( T ! :.f.^.(.(.).).(./.^.s.( z Q u.b.b.V.b.b.m.C.m.y.U l B M M f w ",
"s s p M F ! 0.n./.(._._.).(.m.d.-.Y I $.^.^.^.^.^.M.b./.N.i.( T o.,.j./.(.).).)././.^.h.! l Q p.b.V.b.^.c.^.C.b.q.R l A C M f w ",
"s f a M F X.0.v././.(./.(.(.^.d.@.U I $.x./.^.x.c.^.^.^.m.i.! T ! :.j.^./.(.(././.^.^.s.( z Q p.M.b.^.^.b.b.^.m.=.R l A Z M f g ",
"s f i M F ! q.x.^.^.^.^././.n.p.$.T Y $.x./.^.^.h.^.b./.^.i.( T o.:.j.^./.^.b.^.^.^.m.s.! l Q p.M.M.^.b.^.c.^.m.q.U l F G.Z m g ",
"s f i M F o.0.x.^.^.h.h.m.N.m.d.@.W z $.x.^.^.h.^.x.^./.N.i.( T ` :.s.^./.b.c.b.m.m.m.s.` l Q u.c.^.b.^.b.^.^.b.-.R z F.G.G m m ",
"s f p M D o.0.x.C.N.n.b.V.V.n.s.@.Q v ,.n.C.V.b.c.M.b.^.m.i.Q T ! :.j.^./.m.n.b.^.b.m.h.( l W u.x.m.m.^.^.m.^.m.=.R l F.G.F.m j ",
"s f p M F O.q.n.C.C.m.m.V.^.M.d.@.Q I ,.b./.V.b.M.M.^./.m.i.! Y ! :.h.^./.m.m.m.m.^./.h.( l Q p.^.N.^.^.M.m.N.m.-.R l F G.S.m g ",
"g f b a G :.p.m.(.|./.V././.N.h.e.Q Q ,./.|./././././.}./.r.Q U +.p.^./.|./.^././././.h.` I ! c.^././././.^.N.m.=.R P F S.S.m g ",
"r f p M F ! 5.c.M.V.b.c.n.n.h.1.( T I +.c.C.m.n.n.M.m.m.x._ U P Q :.s.b.m.M.n.b.m.n.x.q.E l W w.h.x.m.m.x.j.l.r._ R l F.F.S.j f ",
"r f n C A v E ' 1.<.{ / [ { ) L 5 2 , P ' 1.;.] [ _ [ 1.^ U 1 1 k I ( ] 1.] | { ] ] / ~ 5 = 4 E #._ @.-.] _ ^ R K < t D S.N j r ",
"9 s N Z m g , l Y W Y I I U z k , > > d z I I I I I I Y P l : w e d l I I I I I I I I z k > e k z I Y Y I I P l 2 = w D S.S.g r ",
"9 f N V V 7 % r h h m m j j h h f h f h j m m j m g g m m b m f f b m m m m m m g m m N n f n n g m m j m m m m w # 7 N D N f r ",
"9 f V V M 0 8 u C C C S.C C C G D.G D.D.C C C C A.C A.C A.S.S.S.D.D.D.D.G.J.G.D.J.J.G.D.D.D.G C A.A.C A.A.A.A.A.i 0 9 N N M r r ",
"9 f N N N b n G.P.U.I.P.I.T.P.U.I.I.Y.Y.I.U.T.P.U.U.U.U.Y.U.P.T.U.R.E.E.!.!.!.~.`.`.`.~.R.T.P.U.U.T.U.U.P.U.T.I.G.b f N N m s 9 ",
"f f b N N N A P.T.R.P.Y.T.R.W.R.R.R.R.R.W.R.R.W.W.W.R.W.W.W.W.R.R.Q.~.~.'.'.[.[.].].].`.!.W.T.R.T.W.T.T.I.Y.R.R.P.C N Z N N f u ",
"r f N m V n N H.T.P.G.G.P.T.R.T.T.R.R.T.T.T.R.T.R.T.T.T.T.T.T.T.R.T.R.R.E.!.!.!.`.`.!.T.T.T.T.T.T.T.T.P.F.H.T.T.P.Z m V N n f s ",
"r f m N N n n F.P.L.G G P.T.T.T.T.U.T.T.T.T.T.T.T.T.T.T.T.T.T.T.T.T.T.U.T.T.R.Q.W.R.T.T.T.T.T.T.T.T.T.H.Z Z H.P.H.m M V N N f r ",
"r f m A N b b M D.D.G.P.P.P.U.I.I.U.I.P.I.I.I.I.Y.Y.Y.Y.U.U.U.U.P.U.I.I.I.Y.T.T.T.Y.I.I.U.P.T.U.T.P.P.P.H.H.P.G.Z b b N N m f r ",
"9 f M D N q 0 u p V Z G.G.G.G.G.G.G.G.G.G.G.G.G.G.G.G.J.G.G.G.G.G.G.G.G.G.G.G.G.H.G.G.G.G.G.G.G.G.G.G.D.G.C C C b q r N N m r w ",
"9 f m Z M 9 6 7 y y 0 y y y u u y s u u u u u u q y y y q i u u f u y y y y y y y y q u q b i r u u y u u u y 0 8 6 9 N A N f 9 ",
"r r N Z N 7 X @ 6 6 $ $ $ @ @ @ $ @ $ $ $ X @ @ @ @ $ @ @ @ @ @ @ @ @ @ @ @ @ $ @ $ X @ @ @ @ @ @ @ @ @ @ $ 6 6 @ X 7 M D M f 9 ",
"9 f N Z N % o + % ; ; ; * * * * + @ @ @ + # # * * - ; ; # + # @ @ O + + * - ; ; * * * * # @ X O + + * * : * * w # + 7 N N N f w ",
"r f N C m e , 5 P P P l P P P l 2 > ; , l K P P P P P P P l - ; : , l P P P P P P P I t e ; e t t P I P P P J P 2 - e N C N f w ",
"r f M M A W ( 1.d.y.{ ) @.q.=._ ( P l Q 0.t.d.1.@.{ _ r.y.( P l I ` >.d.r.{ { [ =.i.=.-.U t U #.y.y.y.-.{ { %.%.R K l B C M f r ",
"r s i M F o.e.x.N.m.q.e.j.x.l.r.] W z ` n.B.m.l.r.q.r.x.N.=.U P Q >.s.N.m.i.e.i.l.x.l.y.E t T r.m.x.x.j.0.-.y.y.%.L l B M M s w ",
"w r u n B Q >.h.m.x.e.>.r.l.y._ ( I z ` x.m.x.d.q.@.p.x.n.e.U z W $.r.^.x.0.,.i.r.r.y.&.I t Y ,.x.x.x.r.@.-.r.y.^ R k m M n 9 9 ",
"7 9 0 u j c W [ 0.$.! Q O.#.{ T P 2 e W $.e.>.{ ( W O.0.>.Q l k v Y O.-.e.( Q ( ) { ( U t e l ! $.@.$.+.! ! { { U 3 e g f u 9 % ",
"# 7 7 9 r ; > : t t t e t t e , > % % > e t t t e e t t e e > % % > e t t e e e t e e : ; # 7 e e t t t t e t e : ; & 9 9 7 % $ ",
"O @ 7 7 7 @ . . . X @ + O X O O X X X . . . . X O + + . . X O @ X . . . X + + @ X X X @ @ @ . . . . o O @ + @ X @ X $ 7 % % @ $ "
};
