/* XPM */
static char *eabb64f95fdc4985bca83bbd3efb7dddjQ3dK54A0SbhwKD6[] = {
/* columns rows colors chars-per-pixel */
"64 64 140 2 ",
"   c None",
".  c #323D55",
"X  c #4D414F",
"o  c #444456",
"O  c #4E4452",
"+  c #4E4856",
"@  c #474A5A",
"#  c #4D4D5A",
"$  c #514654",
"%  c #524A55",
"&  c #584D57",
"*  c #544D59",
"=  c #594F5B",
"-  c #4C505F",
";  c #56505B",
":  c #5A525B",
">  c #64545B",
",  c #6B565C",
"<  c #66585D",
"1  c #6A585D",
"2  c #75575A",
"3  c #745D5E",
"4  c #7A5E5E",
"5  c #7B605F",
"6  c #4E5361",
"7  c #535662",
"8  c #5A5661",
"9  c #565864",
"0  c #5B5A65",
"q  c #5B5D69",
"w  c #605965",
"e  c #5F636E",
"r  c #5F6773",
"t  c #62636D",
"y  c #6A636F",
"u  c #67686F",
"i  c #766161",
"p  c #7C6260",
"a  c #7E6965",
"s  c #7E726C",
"d  c #626671",
"f  c #636B75",
"g  c #686B74",
"h  c #646D78",
"j  c #696E78",
"k  c #66707B",
"l  c #6B727B",
"z  c #71757D",
"x  c #73787E",
"c  c #82625E",
"v  c #8A655F",
"b  c #836560",
"n  c #896660",
"m  c #826D67",
"M  c #8C6A62",
"N  c #816D68",
"B  c #956D63",
"V  c #9A6F63",
"C  c #977064",
"Z  c #9B7265",
"A  c #9D7769",
"S  c #92796D",
"D  c #9F7A6A",
"F  c #A17566",
"G  c #A17C6C",
"H  c #A87F6D",
"J  c #978072",
"K  c #988273",
"L  c #A5816F",
"P  c #A68472",
"I  c #AA8672",
"U  c #AC8B76",
"Y  c #AF8F78",
"T  c #B08D77",
"R  c #B18F79",
"E  c #AD917B",
"W  c #B29079",
"Q  c #B29179",
"!  c #B3917A",
"~  c #B49179",
"^  c #B4917A",
"/  c #B2937C",
"(  c #B7957C",
")  c #B4937B",
"_  c #B6987F",
"`  c #B6987F",
"'  c #6D7782",
"]  c #6E7780",
"[  c #6F7882",
"{  c #6F7982",
"}  c #707882",
"|  c #707A83",
" . c #717A83",
".. c #717B83",
"X. c #747980",
"o. c #757981",
"O. c #747B82",
"+. c #757C83",
"@. c #767C83",
"#. c #727B84",
"$. c #757C84",
"%. c #757D84",
"&. c #767C84",
"*. c #767D84",
"=. c #767E86",
"-. c #777F86",
";. c #737A82",
":. c #787F86",
">. c #798187",
",. c #7C8287",
"<. c #77828A",
"1. c #768088",
"2. c #7B8389",
"3. c #78828A",
"4. c #7C8389",
"5. c #7A848B",
"6. c #7B848B",
"7. c #7A858C",
"8. c #7B858B",
"9. c #7E888F",
"0. c #7D8A91",
"q. c #7F8990",
"w. c #80868B",
"e. c #82898D",
"r. c #808A90",
"t. c #808A91",
"y. c #848C91",
"u. c #858E92",
"i. c #878F94",
"p. c #838C92",
"a. c #888F93",
"s. c #869196",
"d. c #889195",
"f. c #899195",
"g. c #8B9497",
"h. c #899094",
"j. c #879298",
"k. c #899499",
"l. c #B79980",
"z. c #B79980",
/* pixels */
"                        % * % $ $ $ $ $ $ % $ $ % $ % + O % % O O O X O O O O % O % % % % % % % O % * %                         ",
"                X % t w z &.@.&.@.o.>.O.x 1.>.x +.@.>.x >.+.x h.u.2.g.h.h.h.g.,.u.%.O.O.O.x >.O.O.O.>.z 0 t % X                 ",
"                u o.7.7.j u f f g f f f f f f f f u f f f f u k j f j j j j j f j f u f f f f g f f u l 7.7.x f                 ",
"              y z [ - 9 : % & * * & % % + + & & ; + % + * % * % % % % % % % % % % % # ; % % % % % + ; 9 9 : { x y               ",
"          X d r.7 $ 1 b Z < B B B C C B : < B Z 5 : > < - : ; : ; : ; ; ; ; ; ; ; ; ; ; : ; ; ; ; : ; ; ; ; + : 0.g X           ",
"        : @.q - 4 M F Z C < C Z C A C F p n Z Z B C 1 C c - ; ; ; ; ; ; ; ; ; ; ; ; ; ; ; ; ; ; ; ; ; ; ; ; ; ; 7 q @.:         ",
"      * z 3.9 > G G b M V > D U v b B Z 5 p Z b v Z 1 B c # ; ; ; ; ; ; ; ; ; ; ; ; ; ; ; ; ; ; ; ; ; ; ; ; ; ; * 9 <.z *       ",
"    * w r.e + b ( E . p Z > D Y , # B A 5 n C # 5 Z 1 M ; ; * ; ; ; ; ; ; ; ; ; ; ; ; ; ; ; ; ; ; ; ; ; ; ; ; ; ; * e e.w ;     ",
"    * ,.l ; # c ! / Z B Z > D U B B B Z 4 c Z C C Z < B M : > ; ; ; ; ; ; ; ; ; ; ; ; ; ; ; ; ; ; ; ; ; ; ; ; ; ; ; ; k ,.*     ",
"    * ,.l * # b ! z.U B Z > D U B V V Z 5 c Z C C Z < B v 5 5 @ : ; ; ; ; ; ; ; ; ; ; ; ; ; ; ; ; ; ; ; ; ; ; ; ; ; * k >.*     ",
"  * t @.r : : c ! _ U B Z > D U B V V F 5 b A B B Z 1 B A A 3 @ ; ; ; ; ; ; ; ; ; ; ; ; ; ; ; ; ; * ; ; ; ; ; ; ; ; * u :.t *   ",
"  = @...o b S 2 ~ _ U B C > G U B C B Z 5 5 Z C C Z 1 M C Z 3 # : ; ; ; ; ; ; ; ; ; ; ; ; ; ; ; ; ; ; ; ; ; ; ; * : ; % ..&.=   ",
"  $ x #.o N J 2 ~ _ I B Z > G U B C V F 5 c Z C C Z 1 B C Z 5 # ; ; ; ; ; ; ; ; ; ; ; ; ; ; ; ; ; ; ; ; ; ; ; ; ; ; ; * ..z %   ",
"  * o.#.o N J 2 ! _ U B Z : G U B C B Z 5 c F C C Z < C C C 3 # ; ; ; ; ; ; ; ; ; ; ; ; ; ; ; ; ; ; ; ; ; ; ; ; ; ; ; * ..x *   ",
"  * o.#.o N J 2 ~ ( L B C > A L B C C Z 5 5 Z C C Z < B M M 5 # ; ; ; ; ; ; ; ; ; ; ; ; ; ; ; ; ; ; ; ; ; ; ; ; ; ; : * ..o.*   ",
"  % o.#.o s K 2 ! / I G V < A U D B C A 5 b Z B C Z < C M c 5 - ; ; ; ; ; ; ; ; ; ; ; ; ; ; ; ; ; ; ; ; ; ; ; ; ; ; * * ..x *   ",
"  * X.#.o a S 4 F Z G Z M : M D Z A C C 1 5 A C Z B : v M @ : ; ; ; ; ; ; ; ; ; ; ; ; ; ; ; * ; ; ; ; ; ; ; ; ; ; ; ; * { o.*   ",
"  * X...* : > < 3 1 2 3 : * ; 2 2 1 3 < % % 1 1 1 ; % ; 1 ; ; ; ; ; * ; ; ; ; ; ; ; ; ; ; ; ; ; ; ; ; ; ; ; ; * ; ; ; * { #.*   ",
"  % o...* * ; 7 7 6 7 7 0 0 0 7 7 7 7 9 0 0 8 7 7 e 7 e ; % ; ; ; ; ; ; ; ; ; ; ; ; ; ; ; ; ; ; ; ; ; ; ; ; ; ; ; ; ; ; ..o.*   ",
"  * o.#.+ u l 0 3.5.7.l r h h h k k h h h h k k h f f k r e : ; ; ; ; ; ; ; ; ; ; ; ; ; ; ; ; ; ; ; ; ; ; ; ; ; ; ; ; * ..x *   ",
"  % o.#.O g x 7 0.j.9...x h r f h r f f f h f f f f f f f h e * ; ; ; ; ; ; ; ; ; ; ; ; ; ; ; ; ; ; ; ; ; ; ; ; ; ; ; * ..X.*   ",
"  % ..#.+ g x 7 q.e.p.7.[ h h h h f f h f f f f f f f f f h : * ; ; ; ; ; ; ; ; ; ; ; ; ; ; ; ; ; ; ; ; ; ; ; ; ; ; ; ; X.X.*   ",
"  * x #.O g o.8 0.: u s.k r h r f f r h h h h f f f f ; : k : * ; ; ; ; ; ; ; ; ; ; ; ; ; ; ; ; ; ; ; ; ; ; ; ; ; ; * * ..o.*   ",
"  * x ..O g o.7 0.e k k.x r h f r f f f f r f f f f f e r h e * ; ; ; ; ; ; ; ; ; ; ; ; ; ; ; ; ; ; ; ; ; ; ; ; ; ; * * ..x *   ",
"  % x #.+ g z 7 r.u.9.3.k r h h h h f r f f r h f f r h r e e * : ; ; ; ; ; ; ; ; ; ; ; ; ; ; ; ; ; ; ; ; ; ; ; ; ; ; # { o.*   ",
"  $ e.6.X g o.7 q.p.q.l #.l h h h h h h h h h h h h h h r e : ; ; ; ; ; ; ; ; ; ; ; ; ; ; ; ; ; ; ; ; ; ; ; ; ; ; ; ; ; #...*   ",
"  $ e.6.+ 8 q 0 d t d d t t e e e e e e e e e t e e e : e % ; ; ; ; ; ; ; ; ; ; ; ; ; ; ; ; ; ; ; ; ; ; ; ; ; ; ; ; ; * ..o.*   ",
"  O e.1.* * ; ; * = * * * * * * ; & ; ; & & ; & ; ; * ; ; ; ; ; ; ; ; ; ; ; ; ; ; ; ; ; ; ; ; ; ; ; ; ; ; ; ; ; ; ; ; * ..x *   ",
"  O a.9.+ * * * # - ; - ; ; ; # # # - * ; ; - - # ; ; ; - ; ; ; ; ; ; ; ; ; ; ; ; ; ; ; ; ; * ; ; ; ; ; ; ; ; ; ; ; ; * X.o.*   ",
"  X u.9.+ 1 3 3 v c c v < # < n v v v 5 ; ; c v v 1 # > 5 # ; ; ; ; ; ; ; ; ; ; ; ; ; ; ; ; ; ; ; ; ; ; ; ; ; ; ; ; ; ; [ ..*   ",
"  O a.9.o p M 5 L L G F D > B C C C Z F 5 5 A C A Z < C v < < ; ; ; ; ; ; ; ; ; ; ; ; ; ; ; ; ; ; ; ; ; ; ; ; ; ; ; * * ..o.%   ",
"  $ 4.:.. m K 3 ( ( G G A > D L B C C Z 5 5 Z C C C 1 C v : 1 ; ; ; ; ; ; ; ; ; ; ; ; ; ; ; ; ; ; ; ; ; ; ; ; ; ; ; * * ..o.*   ",
"  $ 8.6.o N S 2 ! _ R A B > G U B Z Z F 5 b Z C C Z < C M c 5 # ; ; ; ; ; ; ; ; ; ; ; * ; ; ; ; ; ; ; ; ; ; ; ; * : ; ; [ x %   ",
"  * x #.o N K 2 ~ _ I B Z > G U B Z B Z 5 c F C C C 1 M Z Z 1 # : ; ; ; ; ; ; ; ; ; ; ; ; ; ; ; ; ; ; ; ; ; ; ; ; ; ; * { O.*   ",
"  * o.#.o N K 2 ~ _ U B Z > D U v C C Z 3 b Z C C Z 1 B C Z 1 # ; ; ; ; ; ; ; ; ; ; ; ; ; ; ; ; ; ; ; ; ; ; ; ; ; ; ; ; ..o.*   ",
"  * ;.$.o N K 2 ~ _ I B C > G U B Z C Z 3 b Z C C Z 1 B C Z 5 # : ; ; ; ; ; ; ; ; ; ; ; ; ; ; ; ; ; ; ; ; ; ; ; ; ; ; % ..x *   ",
"  % o.#.o N K 2 ~ l.U B Z > G U B V B F 5 b A C C Z 1 B C Z 5 # ; ; ; ; ; ; ; ; ; ; ; ; ; ; ; ; ; ; ; ; ; ; ; ; ; ; ; * ..X.*   ",
"  * o.#.o N K 2 ~ l.I B C > G U B B V V 3 b C C C Z < B C Z 3 # : ; ; ; ; ; ; ; ; ; ; ; ; ; ; ; ; ; ; ; ; ; ; ; ; ; ; * #.o.%   ",
"  * o...o N K 2 ~ l.U B Z : G U B Z V Z 3 b Z C V Z < B C Z 3 # ; ; ; ; ; ; ; ; ; ; ; ; ; ; ; ; ; ; ; ; ; ; ; ; ; ; ; + 9.y.O   ",
"  % o.#.o N K 2 ^ ( I B Z > D U v Z V Z 5 b Z C V C < B C C 3 # : ; ; ; ; ; ; ; ; ; ; ; ; ; ; ; ; ; ; ; ; ; ; ; ; ; : O 9.a.O   ",
"  * o.#.o N S 2 ! _ U B C > G U B V V Z 4 b Z C C Z 1 M C Z 5 # ; ; ; ; ; ; ; ; ; ; ; ; ; ; ; ; ; ; ; ; ; ; ; ; ; ; ; + 9.a.O   ",
"  % o.#.o N K 2 ( _ G Z B > G Q B V C F 5 p Z C C Z 1 C C Z 1 # : ; ; ; ; ; ; ; ; ; ; ; ; ; ; ; ; ; ; ; ; ; ; ; ; ; ; + 7.u.O   ",
"  * o.#.@ N K 2 U I I G B < C U G B B Z 5 b Z Z C C < C B M 5 - ; ; ; ; ; ; ; ; ; ; ; ; ; ; ; ; * ; ; ; ; ; ; ; ; ; ; % -.,.$   ",
"  * x ;.o N K 2 C P L B Z < A G B V B Z 5 b Z C C Z 1 C v M 5 @ : ; ; ; ; ; ; ; ; ; ; ; ; ; ; ; ; ; ; ; ; ; ; ; ; ; ; + 9.y.O   ",
"  * o.o.@ m S 4 F D A Z M : M F Z Z Z Z < 5 A C Z B : v v 1 3 # ; ; ; ; ; ; ; ; ; ; ; * ; ; ; ; ; ; ; ; ; ; ; ; ; ; * * -.4.$   ",
"  % ....* : > > 3 1 2 3 : * ; 1 3 1 2 < # + < 2 3 & % ; 1 # # ; ; ; ; ; ; ; ; ; ; ; ; ; ; ; ; ; ; ; ; ; ; ; ; ; ; ; ; # -.3.$   ",
"  * x ..* ; * 7 6 7 ; 6 0 8 0 9 7 9 9 9 0 0 9 7 - e 0 ; : : % ; ; ; ; ; ; ; ; ; ; ; ; ; ; ; ; ; ; ; ; ; ; ; ; ; ; ; ; * X.x *   ",
"  % ..#.+ t z 0 7.7.<.5.k 1.h h h h h h h h h h j k f r r 9 e * ; ; ; ; ; ; ; ; ; ; ; ; ; ; ; ; ; ; ; ; ; ; ; ; ; ; * * #.o.*   ",
"  * o...O g x : 0.j.9.[ ..h f f h r f f f h r h f f r e r e e * ; ; ; ; ; ; ; ; * ; ; ; ; ; ; ; ; ; ; ; ; ; ; ; ; ; ; * { o.%   ",
"  * o.#.O g @.9 9.0.e.j.1.f f h f f h f h r f h h f f f h k : * ; ; ; ; ; ; ; ; : ; ; ; ; ; ; ; ; ; ; ; ; ; * ; ; ; ; * #...*   ",
"  * x #.+ u o.7 0.; u j.k r h f h f f f f f r f h r h * : k 0 % ; ; ; ; ; ; ; * ; ; ; ; ; ; ; ; ; ; ; ; ; ; ; ; ; ; ; ; ..o.*   ",
"  % o.#.O u @.9 r.t l j...f f f r h f h f h h f f f h e e h 0 ; ; ; ; ; ; ; ; ; ; ; ; ; ; ; ; ; ; ; ; ; ; ; ; ; ; ; ; * ..x *   ",
"  * X.#.O g x 7 9.q.5.9.&.h f f f f f f f f f h f h f h h h 0 * : ; ; ; ; ; ; ; ; ; ; ; ; ; ; ; ; ; ; ; ; ; ; ; ; ; ; * ..X.*   ",
"  * X.#.O d O.9 0.e.5.9.h h h h h h h h h h h h h h h h r e 0 & ; ; ; ; ; ; ; ; ; ; ; ; ; ; ; ; ; ; ; ; ; ; ; ; ; ; ; ; X.X.*   ",
"  % o.#.% 8 e 8 f t u f t t e e e e e e e e e t e e e t 0 ; ; ; ; ; ; ; ; ; ; ; ; ; ; ; ; ; ; ; ; ; ; ; ; ; ; ; ; ; * * ..o.*   ",
"  * o...* ; * ; * * * * * * * * & ; * ; * % * = % ; ; % ; ; ; ; ; ; ; ; ; ; ; ; ; ; ; ; ; ; ; ; ; ; ; ; ; ; ; ; ; ; * * ..x *   ",
"  * ..[ * ; ; * # ; ; # ; : ; # * # # - ; ; # # # * ; ; # ; ; ; ; ; ; ; ; ; ; ; ; ; ; ; ; ; ; ; ; ; ; ; ; ; ; ; ; ; ; # [ o.*   ",
"  * x O.# 1 1 i v 5 c v < # < c b b n p ; ; b n n 3 # > p # : ; ; ; ; ; ; ; ; ; ; ; ; ; ; ; ; ; ; ; ; ; ; ; ; ; ; ; ; ; #...*   ",
"  * o.O.@ p M p L I H Z C > A G Z F Z F 3 b Z Z A Z < B B n 3 # ; ; ; ; ; ; ; ; ; ; ; ; ; ; ; ; ; ; ; ; ; ; ; ; ; ; ; * ..o.%   ",
"  % x ..o s K 2 ( s m C C > G T 4 < B Z i b Z < 5 Z < B w M 3 # : ; ; ; ; ; ; ; ; ; ; ; ; ; ; ; ; ; ; ; ; ; ; ; ; ; ; * ..o.*   ",
"  = l X.o N K 2 ( 1 3 Z C > D I 5 1 B F 4 b Z < p F 1 C : p p # ; ; ; ; ; ; ; ; * ; ; ; ; ; ; ; ; ; ; ; ; ; ; ; ; ; ; * ] l *   ",
"  : q f # i N 5 G Z C Z c ; 5 B Z Z C M : < B A Z b ; 5 M : < * ; ; ; ; ; ; ; ; ; ; ; ; ; ; ; ; ; ; ; ; ; ; ; ; ; ; * 8 f q :   ",
"  8 ; 7 ; ; * : : : ; : # * ; : ; ; : ; * * ; ; : ; ; # ; ; ; ; ; ; ; ; ; ; ; ; ; ; ; ; ; ; ; ; ; ; ; ; ; ; ; ; ; ; ; ; ; : 8   ",
"  8 * = ; ; ; ; ; * ; ; ; ; ; ; ; ; ; ; ; ; ; ; * ; ; ; ; ; ; ; ; ; ; ; ; ; ; ; ; ; ; ; ; ; ; ; ; ; ; ; ; ; ; ; ; ; ; ; ; = 8   "
};
