/* XPM */
static char *d77621a628d24c4ad9a1273144e92e72zatZBbcUfFKe2BNQ[] = {
/* columns rows colors chars-per-pixel */
"32 32 6 1 ",
"  c #92C496",
". c #93C596",
"X c #96C796",
"o c #96C797",
"O c #9FCC98",
"+ c #A0CC98",
/* pixels */
"o o     ...................... X",
"Oo   o o..................... XO",
"OOo o   .................... XOO",
"OOOo   o................... oOOO",
"OOOOo   .................. oOOOO",
"OOOOOo  ................. oOOOOO",
"OOOOOOX ................ oOOOOOO",
"OOOOOO+X .............. oOOOOOOO",
"OOOOOOOOX  o X ....... oOOOOOOOO",
"OOOOOOOOOX     ...... oOOOOOOOOO",
"OOOOOOOOOOX  oo .... oOOOOOOOOOO",
"OOOOOOOOOOOX    ... oOOOOOOOOOOO",
"OOOOOOOOOOOOX o .. oOOOOOOOOOOOO",
"OOOOOOOOOOOOOX  . oOOOOOOOOOOOOO",
"OOOOOOOOOOOOOOo  oOOOOOOOOOOOOOO",
"OOOOOOOOOOOOOOOXX+OOOOOOOOOOOOOO",
"OOOOOOOOOOOOOO+XX+OOOOOOOOOOOOOO",
"OOOOOOOOOOOOOOo  oOOOOOOOOOOOOOO",
"OOOOOOOOOOOOOo .. oOOOOOOOOOOOOO",
"OOOOOOOOOOOOo .... oOOOOOOOOOOOO",
"OOOOOOOOOOOo ...... oOOOOOOOOOOO",
"OOOOOOOOOOo ........ oOOOOOOOOOO",
"OOOOOOOOOo .......... oOOOOOOOOO",
"OOOOOOOOo ............ oOOOOOOOO",
"OOOOOOOo .............. oOOOOOOO",
"OOOOOOo ................ oOOOOOO",
"OOOOOo .................. oOOOOO",
"OOOOo .................... oOOOO",
"OOOo ...................... oOOO",
"OOo ........................ oOO",
"Oo .......................... oO",
"o ............................ o"
};
