/* XPM */
static char *_e41849eacf74f92971715672ba1c802ABvrPHlNQPM4eiJD[] = {
/* columns rows colors chars-per-pixel */
"38 32 189 2 ",
"   c None",
".  c #931512",
"X  c #A91916",
"o  c #B41915",
"O  c #BF2C2A",
"+  c #BC3230",
"@  c #D70000",
"#  c #DA0000",
"$  c #D8040D",
"%  c #D61600",
"&  c #CF1C18",
"*  c #D71016",
"=  c #D71C1E",
"-  c #D91E1A",
";  c #DC1814",
":  c #EB0000",
">  c #E50000",
",  c #EA1900",
"<  c #E01D18",
"1  c #CC201C",
"2  c #DA231E",
"3  c #D8291A",
"4  c #D8280E",
"5  c #F42B00",
"6  c #E93900",
"7  c #FC3E00",
"8  c #E02B1E",
"9  c #E5311C",
"0  c #ED371A",
"q  c #F03F1B",
"w  c #D71E20",
"e  c #D81F20",
"r  c #DB2320",
"t  c #DB2925",
"y  c #DA2D2A",
"u  c #DA302D",
"i  c #D93523",
"p  c #DA3432",
"a  c #DD3B35",
"s  c #DC3C3C",
"d  c #E12420",
"f  c #E02A27",
"g  c #E23427",
"h  c #E23731",
"j  c #FF4300",
"k  c #FD4C00",
"l  c #F6450A",
"z  c #F4480E",
"x  c #FC4B0E",
"c  c #F74907",
"v  c #FD5700",
"b  c #F44611",
"n  c #FF4C13",
"m  c #FB4019",
"M  c #FD4D1C",
"N  c #FF521B",
"B  c #F95618",
"V  c #FF6519",
"C  c #DF413E",
"Z  c #F34121",
"A  c #FD5924",
"S  c #FF5A28",
"D  c #E3423F",
"F  c #FE4733",
"G  c #EB5939",
"H  c #FF5C3B",
"J  c #FC6329",
"K  c #FF6D3C",
"L  c #FF6639",
"P  c #FF703D",
"I  c #F43F41",
"U  c #DB4443",
"Y  c #DF4B4C",
"T  c #DA4B49",
"R  c #DA5E58",
"E  c #E14B48",
"W  c #EF5C47",
"Q  c #E3514D",
"!  c #F05F46",
"~  c #E25755",
"^  c #EA5A57",
"/  c #FC5859",
"(  c #D7635E",
")  c #F46546",
"_  c #F76746",
"`  c #FF7243",
"'  c #FF764A",
"]  c #FF794D",
"[  c #FF7847",
"{  c #E9665B",
"}  c #FF6859",
"|  c #FF7652",
" . c #FF7D54",
".. c #FF7859",
"X. c #D87878",
"o. c #D96B68",
"O. c #EF6A69",
"+. c #FD6B6B",
"@. c #FB6C66",
"#. c #FC7677",
"$. c #E7796B",
"%. c #008500",
"&. c #009800",
"*. c #00C500",
"=. c #00CC00",
"-. c #39D327",
";. c #4DDB38",
":. c #3F804A",
">. c #3F9043",
",. c #60CC47",
"<. c #73D36B",
"1. c #70E578",
"2. c #FF8255",
"3. c #FF825B",
"4. c #FF8661",
"5. c #FF8A65",
"6. c #FF8E6A",
"7. c #FF916E",
"8. c #ED8B7E",
"9. c #E78379",
"0. c #FF9573",
"q. c #FF9977",
"w. c #FF9C7C",
"e. c #D89C9F",
"r. c #E6908D",
"t. c #FF9F81",
"y. c #FA8786",
"u. c #FFA284",
"i. c #FFA689",
"p. c #FFAA8D",
"a. c #FFAE93",
"s. c #FFB195",
"d. c #FFB59B",
"f. c #FFB69D",
"g. c #FFB299",
"h. c #FFB99D",
"j. c #D7A7A8",
"k. c #D5AEB0",
"l. c #D9B8B6",
"z. c #FFB7A0",
"x. c #FFBDA5",
"c. c #FFBEA8",
"v. c #E4B3B5",
"b. c #9FDA99",
"n. c #BFD2BD",
"m. c #B2EBB3",
"M. c #A1F2B7",
"N. c #BCF1B7",
"B. c #FFC1A7",
"V. c #FFC2A9",
"C. c #FFC3AD",
"Z. c #FFC4B1",
"A. c #FFC3B0",
"S. c #FFCAB5",
"D. c #FFCCBB",
"F. c #FFD0BD",
"G. c #B3F7C8",
"H. c #DDC4CB",
"J. c #DACACA",
"K. c #DDD8DB",
"L. c #E8C9CF",
"P. c #FFD3C4",
"I. c #FFD7CA",
"U. c #FFD8CA",
"Y. c #FFDACD",
"T. c #FFDCCF",
"R. c #EAD5D7",
"E. c #FFDDD1",
"W. c #FFDED2",
"Q. c #D0F4CC",
"!. c #DAE0D7",
"~. c #CEFBDD",
"^. c #FFE0D5",
"/. c #E8DBE1",
"(. c #F6DFE4",
"). c #C7FCE1",
"_. c #D4FFFD",
"`. c #DAFBF7",
"'. c #DBE3E6",
"]. c #E9E6E7",
"[. c #E6FDEF",
"{. c #E0EFF3",
"}. c #F6EFF4",
"|. c #E3F3FA",
" X c #EEFFFF",
".X c #E8FBF8",
"XX c #F3FDFD",
"oX c #FDFDFE",
"OX c #F2FAF5",
/* pixels */
"                              a.a.d.g.g.a.i.u.                              ",
"                        i.s.V.V.c.V.c.c.V.c.f.a.i.u.                        ",
"                    u.C.F.P.I.I.S.z.z.z.z.z.z.i.p.s.s.u.                    ",
"                  s.S.Y.^.W.E.W.E.c.g.d.a.i.a.w.q.u.p.s.p.                  ",
"              i.x.Z.E.E.Y.Y.U.T.I.z.d.z.g.a.i.0.3.4.0.u.p.s.u.              ",
"              V.x.U.E.U.Y.Y.T.T.A.d.d.d.g.a.a.q.5.3. .3.0.p.s.              ",
"            f.f.f.T.T.T.E.E.I.C.g.g.g.a.a.a.i.7.7.5.4. .] 5.p.p.            ",
"          s.C.D.Z.C.P.I.P.Z.f.p.a.a.a.a.a.a.w.6.7.5.4.3.2.[ 4.p.u.          ",
"          V.D.^.P.s.f.f.s.a.p.a.a.p.p.p.a.w.7.0.6.5.5.3.3. .` 5.s.          ",
"        s.Z.Y.^.Z.s.a.p.p.p.p.p.i.i.i.p.w.6.6.7.6.5.4.4. . .] K w.p.        ",
"        d.f.I.D.s.a.a.p.i.u.u.u.u.u.u.q.4.4.5.5.5.4.4.3.3. .| [ ] i.        ",
"      p.s.u.s.a.p.i.u.u.u.w.u.w.w.w.7.3.3.3.3.3.4.4.3.3. . .] ' K 0.p.      ",
"      t.q.u.i.i.u.u.w.w.w.w.w.w.0.3.| 2. . . .2.3.3.3.3. . .] ] K  .t.      ",
"      q.| w.u.u.t.u.u.w.0.0.6.3.] ' ] ] ] ] ] ] ] ] 3.3.3. .] ] ` K 0.      ",
"      6.K 4.0.w.0.3.2.3.5.2.` ` ` ` ` ` ` ` [ [ ] ] P V J '  .` ' K 5.      ",
"    q.2.K ] 2.J G 9.9.J v _ K ! ! W W W W W ) _ _ k _ 9.$.6 k L S S ] q.    ",
"    7.[ K 2.c o.R.}.oX(.X.p ~ T Y Y Y Y Y T U s # r.].OXoXL.T 5 M 7 A |     ",
"    4.P ] A T }.oXoXm..X}.R I ~ Q Q Q E a t p # X.OXoXOXm.oX/.# x j j L     ",
"    | `  .> k. XoX!.&.<.oXv.> { Q h u 2 - t 2 # J. XoXn.&.b.oXX.z t. .N     ",
"    M S ' > J.`.<.>.%.=.[.L.# T t - - 2 2 u # @ /.).,.:.&.-.oXe.G h.w.N     ",
"    l k L : j.`.1.=.=.N. Xj.@ s - r t r r f t # H._.;.*.-.Q. XX.{ d.q.z     ",
"      n x , % '._.G.G.oX].3 ; O o & 1 & 1 o + > ( |._.M.~.oXJ.@ 8.a.|       ",
"      j } y./ / J.|.|.J.U @ p & X . . . . X 1 p # o.K.|.{.l.O.#.@...7       ",
"        / #.@.E # 4 3 # # y 2 r f d r d d d 2 2 u # # i % # O.#./ F         ",
"          7 n q a * * p y 2 r 2 2 2 1 2 2 2 r 2 2 y p $ w a 5 j M           ",
"            x n x Z g 2 = = = 2 w r r r r r r w = = 2 g Z x N n             ",
"                n x n n m 0 9 8 2 2 r r 2 3 9 9 0 m n x x n                 ",
"                    z x x x n n n n n n M n n n n x x b                     ",
"                              z n x z x x z z                               ",
"                                                                            ",
"                                                                            ",
"                                                                            "
};
