/* XPM */
static char *_96d2abeaa384c34ef79dcfddc9d0d34HDpa49P0KVqbf0dM[] = {
/* columns rows colors chars-per-pixel */
"32 32 188 2 ",
"   c None",
".  c #150000",
"X  c #240000",
"o  c #380000",
"O  c #4B0000",
"+  c #580800",
"@  c #601B0A",
"#  c #572A22",
"$  c #066D08",
"%  c #077409",
"&  c #0D7211",
"*  c #7D7977",
"=  c #BA6700",
"-  c #807C79",
";  c #D17550",
":  c #FF605B",
">  c #FF536D",
",  c #008400",
"<  c #008C00",
"1  c #09870C",
"2  c #019302",
"3  c #009B00",
"4  c #0B940E",
"5  c #0B9B0F",
"6  c #069408",
"7  c #0D9411",
"8  c #159619",
"9  c #00A300",
"0  c #00AC02",
"q  c #0BA00F",
"w  c #04AE0C",
"e  c #09AC09",
"r  c #00B400",
"t  c #08B00F",
"y  c #03BB06",
"u  c #0AA510",
"i  c #04AE10",
"p  c #0AAF12",
"a  c #0BB113",
"s  c #09B912",
"d  c #00BC14",
"f  c #13B21A",
"g  c #19B21F",
"h  c #12B919",
"j  c #17AF1C",
"k  c #0F9F26",
"l  c #1E9525",
"z  c #1B9921",
"x  c #219924",
"c  c #239927",
"v  c #309D34",
"b  c #19A326",
"n  c #06BA26",
"m  c #1EB523",
"M  c #1DBE27",
"N  c #2BAE27",
"B  c #22B526",
"V  c #23B529",
"C  c #24BA2B",
"Z  c #2CBB2F",
"A  c #3CA93D",
"S  c #34A536",
"D  c #2DBB33",
"F  c #35BD3B",
"G  c #38BE3E",
"H  c #31BA37",
"J  c #34BD27",
"K  c #789D1A",
"L  c #529D25",
"P  c #1CC124",
"I  c #27C12F",
"U  c #2AC02F",
"Y  c #35C33C",
"T  c #38C23F",
"R  c #35CD3E",
"E  c #2AD538",
"W  c #33D43D",
"Q  c #30DB3C",
"!  c #28C933",
"~  c #2CE23C",
"^  c #2D9B43",
"/  c #05A557",
"(  c #3FAB41",
")  c #3BBE41",
"_  c #36B143",
"`  c #35A34F",
"'  c #3BB06E",
"]  c #42B745",
"[  c #50AF57",
"{  c #4DBD51",
"}  c #4EAE4C",
"|  c #5FAE71",
" . c #51AB6C",
".. c #3BC342",
"X. c #37CD40",
"o. c #3ACB42",
"O. c #3BD244",
"+. c #35DC41",
"@. c #39D643",
"#. c #34E241",
"$. c #39E646",
"%. c #43C549",
"&. c #49C74F",
"*. c #44CB4B",
"=. c #41C347",
"-. c #43D24A",
";. c #43D94B",
":. c #4CCB53",
">. c #55CE5B",
",. c #4AD351",
"<. c #4CDC55",
"1. c #54DC5C",
"2. c #56D75D",
"3. c #42E14E",
"4. c #4EE35A",
"5. c #46E353",
"6. c #53E35D",
"7. c #5BD361",
"8. c #5DDB65",
"9. c #5CC86E",
"0. c #64C767",
"q. c #61DB67",
"w. c #63D569",
"e. c #68D66C",
"r. c #63DC6A",
"t. c #68D96E",
"y. c #78D27D",
"u. c #56E461",
"i. c #5BE465",
"p. c #5FE769",
"a. c #62E46B",
"s. c #61E96C",
"d. c #63F96F",
"f. c #6AE773",
"g. c #6CE976",
"h. c #73E97B",
"j. c #74E47C",
"k. c #64FB70",
"l. c #918116",
"z. c #8B9818",
"x. c #819E28",
"c. c #92862E",
"v. c #9AA62C",
"b. c #9F9945",
"n. c #91A259",
"m. c #A7B979",
"M. c #FF6B83",
"N. c #64BE90",
"B. c #7DBF95",
"V. c #78E981",
"C. c #988D8F",
"Z. c #81BC92",
"A. c #FF8187",
"S. c #88C69D",
"D. c #83EC8A",
"F. c #81E888",
"G. c #8FEA95",
"H. c #92EA98",
"J. c #8BF393",
"K. c #92F399",
"L. c #99CBAC",
"P. c #95CDB2",
"I. c #A5D0B3",
"U. c #9CEFA2",
"Y. c #9DF1A4",
"T. c #A8F6AE",
"R. c #ACFDB3",
"E. c #ACF4B2",
"W. c #B4F5BA",
"Q. c #B4FCBB",
"!. c #B5DAC4",
"~. c #A5D9C2",
"^. c #AEE1CC",
"/. c #BBFFC1",
"(. c #BCF6C1",
"). c #DDD1D4",
"_. c #D3DDE0",
"`. c #D7EBE0",
"'. c #DCEFE5",
"]. c #DEFFFF",
"[. c #DCF5F6",
"{. c #EAE8EA",
"}. c #E7F3EE",
"|. c #F6EFF3",
" X c #EBFFFF",
".X c #E2FFFF",
"XX c #F9F8F7",
"oX c #FCFEFF",
/* pixels */
"                          u.g.i.u.5.#.                          ",
"                        V.R./.D.u.p.$.$.                        ",
"                      p.R.W.U.a.i.1.W W $.                      ",
"          6.5.#.$.Q 3.J.h.p.5.6.i.3.Q O.X.+.+.#.$.4.            ",
"        i.d.s.;.R X.o.W s.H.Y.h.i.i.$.#.+...X.W 6.s.k.u.        ",
"      D.R.g.i.<.W X.E g.W.W.W.h.u.p.O.W +.+.R W u.u.D.Q.f.      ",
"    g./.E.s.8.,.R R i.K.T.U.j.u.p.u.X.X.X.+.@.R 1.u.V.(.R.      ",
"    h.E.V.8.8.o.Y <.T.V.8.p.1.p.8.O.@.X.X...+.R *.q.6.G.R.6.    ",
"    J.h.1.r.:.Y Y 8.F.i.8.q.r.7.-.R X.R W ..X.X...7.q.<.J.h.    ",
"    K.j.q.>...) Y ,.2.q.w.7.>...Y o...o.o.....X.G =.w.8.J.F.    ",
"    1.8.>.) ) D I ..*.&.%...F ) ..G F D C C V Z T G =.2.a.<.    ",
"    R -.G ) F w D ..G ) G ) ) G Z m w w w 0 B B g ..) T ;.W     ",
"      o.) D f t m D G G G H V f 0 w p p f 0 y.0.0 V H ) G       ",
"      C 0 0 0 0 0 0 a f p w 0 p p p p p p 0 0.] 9 w 0 h !       ",
"      5.%.D Y *.2...0 0 e p p p p p p p p 0 r Z Z m B D #.      ",
"    ~ 4.t.q.q.q.q.7.&.V p w w 0 w 0 w w p C R o.R R o...@.#.    ",
"    +.O.>.r.r.t.e.e.e.>.Y D C B m C C H Y o.*.*.*.....T o.+.    ",
"    X...X.,.*.C n y ..%...) ) ..) ) ) ..%.U r r r U Y F ..O.    ",
"    o...%.y [ I.`.!._ N ( A A A ( ( A A 3 [ !.`.!.k 0 g g P     ",
"    ....D ^ }.oX{.|.'.k A ( ( ( v N c < ^ }.oX{.|.}.2 0 0 r     ",
"    Y :.9 P.oXXX- # oXS.9 } v z 7 2 x < P.oXXX* # oXZ.N y.B     ",
"    f ) 3 !._.O X o }.I.< v 2 6 4 7 c , ^._.O . o {.L.} H.{     ",
"    e n 3 N.].C.+ ). X .< l 5 7 7 5 l , B..XC.@ ). X/ 9.G.]     ",
"    9 J n.l.!..X[. XL.< l % % $ $ % & 8 < ~.].[. XI.c.m.e.9     ",
"      b.A.> = ' S.[ , 8 7 4 1 1 1 1 6 8 6 < | S./ ; M.: K       ",
"        z.v.L < , 2 l 7 4 7 5 5 4 5 4 4 8 l < , < L v.x.        ",
"          r d m b 8 7 6 4 4 7 4 4 4 4 4 6 7 z b N d r           ",
"              i t s a p u 5 5 5 5 5 q u p a s t t               ",
"                    p p t a p p a a t p p p                     ",
"                                                                ",
"                                                                ",
"                                                                "
};
