/* XPM */
static char *a29c8f2ed4bb4d6f889c513a31c6bbe2wslAUKu6fniQ3Eai[] = {
/* columns rows colors chars-per-pixel */
"36 32 197 2 ",
"   c None",
".  c black",
"X  c #000220",
"o  c #001C29",
"O  c #70443C",
"+  c #6E4842",
"@  c #935C08",
"#  c #9E6615",
"$  c #A06600",
"%  c #BD7A00",
"&  c #A16918",
"*  c #C37E00",
"=  c #CB7624",
"-  c #C96A3A",
";  c #FF494C",
":  c #E26254",
">  c #FF486A",
",  c #F65463",
"<  c #D4696B",
"1  c #E66E62",
"2  c #FF6D6E",
"3  c #FF7578",
"4  c #D38907",
"5  c #F18F00",
"6  c #EB9A00",
"7  c #E39800",
"8  c #F29300",
"9  c #F29D00",
"0  c #F29D0C",
"q  c #F99800",
"w  c #F29E19",
"e  c #F29816",
"r  c #F4A301",
"t  c #FAA201",
"y  c #F4AB00",
"u  c #F8AB00",
"i  c #F6A408",
"p  c #F3B501",
"a  c #F9B500",
"s  c #F5BA01",
"d  c #FABA02",
"f  c #F7B90B",
"g  c #F9BB0B",
"h  c #F3A11C",
"j  c #F2A816",
"k  c #FBBC13",
"l  c #F9BC1A",
"z  c #C3842F",
"x  c #EF9E21",
"c  c #F39C22",
"v  c #F19F28",
"b  c #F79134",
"n  c #F8A322",
"m  c #F4AA2C",
"M  c #F5A726",
"N  c #FBBE23",
"B  c #F7B82B",
"V  c #F4B133",
"C  c #F7BA33",
"Z  c #F8BE34",
"A  c #F7B63C",
"S  c #F2A739",
"D  c #FFC201",
"F  c #FDCB00",
"G  c #FFC20C",
"H  c #F9C11D",
"J  c #FBC91D",
"K  c #FBD109",
"L  c #FAC324",
"P  c #FCCC25",
"I  c #FAC42C",
"U  c #FCCB2C",
"Y  c #FCD025",
"T  c #FDD52C",
"R  c #FCD92C",
"E  c #FBC534",
"W  c #FBCB34",
"Q  c #FBCB3A",
"!  c #F9C23C",
"~  c #FCD335",
"^  c #FCDB34",
"/  c #FCD43C",
"(  c #FEDD3A",
")  c #FEE22E",
"_  c #FFF32F",
"`  c #FFF024",
"'  c #FEE235",
"]  c #FFEC34",
"[  c #FEE43A",
"{  c #FEEB39",
"}  c #FFF134",
"|  c #FFF33D",
" . c #FA9244",
".. c #FB9848",
"X. c #FB8652",
"o. c #F8A445",
"O. c #F4BA44",
"+. c #F4AE59",
"@. c #EDAD61",
"#. c #F0AA66",
"$. c #EDB166",
"%. c #E9B77C",
"&. c #FCCE43",
"*. c #FBC649",
"=. c #FBD444",
"-. c #FCD945",
";. c #FCD54B",
":. c #FCDB4A",
">. c #FDDE53",
",. c #FCDD5D",
"<. c #FCD656",
"1. c #FBC856",
"2. c #FEE444",
"3. c #FFEC49",
"4. c #FFF24D",
"5. c #FFF946",
"6. c #FEE456",
"7. c #FFEB53",
"8. c #FDE35C",
"9. c #FFEB5C",
"0. c #FFF354",
"q. c #FFF25D",
"w. c #FFFE5B",
"e. c #FFFA57",
"r. c #F3C369",
"t. c #FEDC67",
"y. c #F3C67A",
"u. c #FDD87A",
"i. c #FEE564",
"p. c #FFEB67",
"a. c #FFF264",
"s. c #FFFD63",
"d. c #FFF16A",
"f. c #FFF86F",
"g. c #FFE179",
"h. c #FFF372",
"j. c #FFF675",
"k. c #D57D80",
"l. c #FF6A85",
"z. c #FF7887",
"x. c #019CC5",
"c. c #00A5DB",
"v. c #00A2D3",
"b. c #1FAFDA",
"n. c #00B8EB",
"m. c #57A9C9",
"M. c #00CAFD",
"N. c #3CCCFD",
"B. c #57D1FE",
"V. c #7AD5FA",
"C. c #FF9A84",
"Z. c #FA9393",
"A. c #EFBA85",
"S. c #F0C080",
"D. c #E6C090",
"F. c #F2CD9C",
"G. c #FEE683",
"H. c #FEE689",
"J. c #FFF68B",
"K. c #FFFA86",
"L. c #FDE490",
"P. c #FFFD92",
"I. c #FFFC9C",
"U. c #EBD0A8",
"Y. c #EBD7BA",
"T. c #F2D5B7",
"R. c #E7C9A1",
"E. c #FFFFA3",
"W. c #FFFFAB",
"Q. c #FFFCB3",
"!. c #FFFEBD",
"~. c #99DFFC",
"^. c #ADDEF5",
"/. c #BFFAFF",
"(. c #BCE4F8",
"). c #F1D7C3",
"_. c #EBE2CC",
"`. c #F3E3CD",
"'. c #E8E7D4",
"]. c #F0E8D3",
"[. c #DFE6E9",
"{. c #C5EBFF",
"}. c #CBFDFF",
"|. c #CFF2FF",
" X c #D6F4FF",
".X c #D2FFFF",
"XX c #DDFBFF",
"oX c #E3F6EA",
"OX c #FDF3EB",
"+X c #E4FDFC",
"@X c #EEFFFF",
"#X c #E2FAF4",
"$X c #F2F7F6",
"%X c #F0FCFF",
"&X c #FEFEFE",
"*X c #FFF8F1",
"=X c #E4EAED",
/* pixels */
"            _ } ] } }                             } ] ] } }             ",
"        0.w.5.] ( ' [ ^ ]                     ] ' [ ' ' ] 5.e.0.        ",
"      0.s.q.9.' ^ ^ ~ W ( R | 0.0.0.0.4.| ` T ( W ~ ^ ' [ 9.q.s.4.      ",
"    a.W.J.0.9.[ R ^ ~ ~ L G 3.s.s.s.s.s.w.) k L ~ ~ ^ R 2.9.0.P.W.0.    ",
"    I.!.J.7.9.( ^ ~ W H d *.u.G.f.0.q.q.6.u.*.a L ~ ~ R 2.9.7.I.!.K.    ",
"  0.Q.Q.d.9.8.~ ~ E l a s E *.L.K.4.a.0.;.1.N d p L E ~ / 8.9.h.Q.W.    ",
"  0.P.j.7.i.:.U E L a f k a a H.j.0.a.a./ a s f d a I E U >.8.7.K.K.4.  ",
"  j.E.9.6.,.Q E I d d d f a E d.0.0.9.q.6.l a f d d f E E &.,.6.a.E.a.  ",
"  d.P.p.8.&.E E l s d f d p :.q.9.9.q.9.q.~ a f d f d l Q I ;.,.p.P.    ",
"    4.>.=.E E I d d g d p / q.9.9.9.9.9.7.' J p d d p d I Q I ;.8.2.    ",
"    ^ / E E I d f f a a / 9.9.9.9.9.9.6.' ' ' J a a g d g I Q E ( ~     ",
"      ~ E L g g d a k :.p.8.8.8.8.8.6.' ^ ^ ' ' P s a d d g I E W       ",
"      Y D a a a d E 6.i.8.8.8.8.8.6.^ R ^ ^ ^ ^ ^ T H a d d a G T       ",
"      { ;.Q Q -.6.9.8.8.8.,.,.,.-.~ ~ ~ ~ ~ ~ ~ ^ ^ ~ T L H H U ]       ",
"      ] <.i.9.i.i.t.t.,.,.,.;.~ U ~ ~ W ~ ~ W ~ ~ =.=./ ~ ~ Q E [       ",
"    ] [ U -.8.,.-./ :.<.&.W U W W W W W W W U =.Q F F P =.W Q E ' }     ",
"    ' ^ E ~ P p r.y.*.d E Z Z C C C C C Z Z ! G s r.y.m s L L N T R     ",
"    ^ ~ Q U u Y.$X%XOXF.u A V V V V V V m S 9 S `.$X&XOXA.y l p D K     ",
"    ~ W Q r Y.&X&X(.{.&X%.a A V V V m j 0 w 8 `.&X&X^.|.&X@.u N d F     ",
"    U Q I m XX@X=Xm.v.+X`.u O.m j i r 9 M 9 $.#X@X[.x.b.@XT.r u.t.D     ",
"    a P f o.#X~.c.x.n. X].9 m * @ & & @ z q %.+XV.c.x.n.XXT.j H.G.B     ",
"    p D a 9 '.}.B.M.{.%XR.5 n $ . . . . & t 9 oX/.N.N. X@X%.A L.g.p     ",
"      D A c #.oX.X}.%X`.9 9 i % X + + o * M 8 %.#X.X}.@XY.e +.g.&.      ",
"      i C.l.; ..U.Y.D.6 9 w i 4 k.Z.Z.< 4 t c 8 +.U.Y.A.X.z.> o.s       ",
"         ... .q 8 8 8 9 h 9 q 7 1 3 2 : 6 0 6 M 8 5 8 8 b X.S c         ",
"          s F N M h v e 9 9 0 y = , , = r 0 9 9 x x h m d F d           ",
"              d D G d u y r 6 q 6 - - 6 9 9 9 r u d G D g               ",
"                  p f d d D D d d d D d d d D D f s p                   ",
"                          p p d d f f s a p p                           ",
"                                                                        ",
"                                                                        ",
"                                                                        "
};
