/* XPM */
static char *ee3315d66ffb4ce1b55c06991e072fac39b7ec8oo4Kde68l[] = {
/* columns rows colors chars-per-pixel */
"64 64 256 2 ",
"   c None",
".  c #030000",
"X  c #150504",
"o  c #2C0800",
"O  c #003B00",
"+  c #002D07",
"@  c #2F1928",
"#  c #352C26",
"$  c #112C22",
"%  c #680200",
"&  c #483501",
"*  c #4B322A",
"=  c #6C3603",
"-  c #024A00",
";  c #015400",
":  c #005B00",
">  c #0C5701",
",  c #115300",
"<  c #165A01",
"1  c #0C4C0C",
"2  c #33540D",
"3  c #006C00",
"4  c #046600",
"5  c #176801",
"6  c #007300",
"7  c #027A01",
"8  c #1A7400",
"9  c #116516",
"0  c #286901",
"q  c #297703",
"w  c #357A01",
"e  c #326E14",
"r  c #385B35",
"t  c #2E582B",
"y  c #336A30",
"u  c #1B5926",
"i  c #465907",
"p  c #525917",
"a  c #6C5113",
"s  c #4A7008",
"d  c #6F6F0C",
"f  c #54512A",
"g  c #6F5931",
"h  c #4A7035",
"j  c #79643A",
"k  c #77692B",
"l  c #545C56",
"z  c #52634F",
"x  c #7A6A47",
"c  c #6F6A4F",
"v  c #676969",
"b  c #757577",
"n  c #706F72",
"m  c #6E594E",
"M  c #842D00",
"N  c #C50001",
"B  c #90710C",
"V  c #A57C08",
"C  c #896D2A",
"Z  c #8D732C",
"A  c #93762D",
"S  c #967931",
"D  c #9A7D32",
"F  c #947736",
"G  c #897137",
"H  c #996416",
"J  c #FA572D",
"K  c #887654",
"L  c #937957",
"P  c #88704A",
"I  c #967757",
"U  c #018800",
"Y  c #118800",
"T  c #2D8501",
"R  c #358701",
"E  c #389601",
"W  c #2E9500",
"Q  c #3F8B20",
"!  c #478702",
"~  c #4C9A00",
"^  c #459601",
"/  c #559100",
"(  c #6A8900",
")  c #748800",
"_  c #6F9400",
"`  c #59A900",
"'  c #5DB502",
"]  c #4BAA04",
"[  c #64AA03",
"{  c #68B600",
"}  c #77B507",
"|  c #5A9C38",
" . c #78C501",
".. c #788B7B",
"X. c #76A95F",
"o. c #929201",
"O. c #A88C02",
"+. c #B79401",
"@. c #AE9500",
"#. c #90B500",
"$. c #ACAF0F",
"%. c #9E8135",
"&. c #A38435",
"*. c #AC8C36",
"=. c #B3933B",
"-. c #BD9C3D",
";. c #B99837",
":. c #AE8F34",
">. c #ACA332",
",. c #C89B01",
"<. c #DA8E04",
"1. c #F69300",
"2. c #CCA401",
"3. c #DCB702",
"4. c #D3AC09",
"5. c #E3B500",
"6. c #E7A91D",
"7. c #C8A838",
"8. c #D0AE30",
"9. c #85CC00",
"0. c #86C800",
"q. c #8CCE07",
"w. c #AED300",
"e. c #8DCD34",
"r. c #C7D601",
"t. c #D2CA06",
"y. c #F9C800",
"u. c #FED701",
"i. c #E8C908",
"p. c #E6E704",
"a. c #FEE900",
"s. c #FBF700",
"d. c #FFFB19",
"f. c #F2D22C",
"g. c #DDDF23",
"h. c #BC9D40",
"j. c #AF8657",
"k. c #BEA244",
"l. c #988B71",
"z. c #B38B65",
"x. c #B89879",
"c. c #AD916B",
"v. c #B1A775",
"b. c #85B661",
"n. c #C4A442",
"m. c #CBAB45",
"M. c #CCAE4A",
"N. c #C5A945",
"B. c #CFB148",
"V. c #D1B44C",
"C. c #D5B94F",
"Z. c #CBAA54",
"A. c #D3B954",
"S. c #CEB75A",
"D. c #E8B44E",
"F. c #C89D6F",
"G. c #D1AA76",
"H. c #D7BB79",
"J. c #CEA96C",
"K. c #C1984E",
"L. c #94D04E",
"P. c #98C971",
"I. c #A7DB6D",
"U. c #DAC45B",
"Y. c #DDCB5B",
"T. c #D9C455",
"R. c #DBC44D",
"E. c #E5D15B",
"W. c #EACF56",
"Q. c #F5E650",
"!. c #DBC566",
"~. c #DBC27B",
"^. c #E0CF64",
"/. c #E6CB6C",
"(. c #E3D366",
"). c #E5D66A",
"_. c #E6D96D",
"`. c #E8DC6E",
"'. c #E4D867",
"]. c #E9DD71",
"[. c #E9DD79",
"{. c #E6D675",
"}. c #E2CE74",
"|. c #ECE17C",
" X c #FEF878",
".X c #F5EF6D",
"XX c #7C7B85",
"oX c #88998A",
"OX c #979798",
"+X c #908F8C",
"@X c #B29D87",
"#X c #9AA79A",
"$X c #94AD96",
"%X c #B9A887",
"&X c #B7B190",
"*X c #A6A6A7",
"=X c #B6B4B9",
"-X c #B7B7B9",
";X c #B0B4AD",
":X c #9EA0A3",
">X c #C6AC89",
",X c #D8B787",
"<X c #D8BB96",
"1X c #C8B18C",
"2X c #C7BAAE",
"3X c #E2BF95",
"4X c #ABD190",
"5X c #B6C9B0",
"6X c #9FC789",
"7X c #DCC484",
"8X c #D6C795",
"9X c #E1CB8A",
"0X c #EADB86",
"qX c #E2C59C",
"wX c #F0DA94",
"eX c #EEE288",
"rX c #F5EE9F",
"tX c #F3EC95",
"yX c #F6E988",
"uX c #D8CAA6",
"iX c #C9D2B3",
"pX c #E6C9A5",
"aX c #EAD5AB",
"sX c #EDDAB5",
"dX c #F3DDB6",
"fX c #C7E5AE",
"gX c #F5EFA2",
"hX c #FAF4A6",
"jX c #F5E2BA",
"kX c #F8E9BA",
"lX c #E6E4A1",
"zX c #BCBBC1",
"xX c #C0BEC1",
"cX c #BEC5C7",
"vX c #C7C6C9",
"bX c #CCCAD1",
"nX c #DADADE",
"mX c #D7D6D8",
"MX c #CED5CB",
"NX c #E6DDC1",
"BX c #D8ECCA",
"VX c #FBECC2",
"CX c #F6E6C6",
"ZX c #FEF1C5",
"AX c #FFF5CA",
"SX c #FFF9CF",
"DX c #FFF7D5",
"FX c #EAEED6",
"GX c #DDDDE1",
"HX c #E7E7E9",
"JX c #EBEBF3",
"KX c #F3F3F4",
"LX c #FEFEFE",
"PX c #F8F9F6",
"IX c #F5F9E7",
"UX c #E0DFE6",
/* pixels */
"                                                                                                                                ",
"                                                                                                                                ",
"                                                                                                                                ",
"                                                                                                                                ",
"                                                  D S S %.Z f * Z %.F G D D                                                     ",
"                                                j C :.;.F Z >.$.Z G -.h.G k                                                     ",
"                                      D %.S F %.g f j.N.j d p.p.o.g N.h.* g D D A D D                                           ",
"                                Z   D :.7.;.D g $.4.>.%.:.4.s.a.4.&.%.=.t.$.k S ;.7.=.&.  Z                                     ",
"                              D &.D *.N.V.V.%.f t.s.$.f 4.u.u.u.a.5.a >.s.p.f F B.V.M.=.D &.D                                   ",
"                            D *.M.A.U.T.{.0X{.4.5.5.,.@.5.y.1.1.5.i.+.+.1.5.4.^.eX{.T.A.S.M.:.D                                 ",
"                          A =.N.R.).`._.eXhXyXu.<.N <.6.i.6.J J 6.i.6.4.N V u..XhXeX].`.).T.n.-.A                               ",
"                        D *.m.T.'.'.|.tX8Xv.k.3.<.<.D.W.E.^.!.D.Y.W.W.D.<.<.5.n.v.8XtXyX_.(.U.V.:.D                             ",
"                      S ;.m.A.).].'.eXhX7Xa d n.6.f.T._._._.`._.).].].E.f.8.7.B & v.hXyX'._.).R.m.h.S                           ",
"                    D =.M.U.).)._.'.[.eXS.V Z.wX|.E.E.'.(.(.'.'.).).).E.W.{.eXJ.O.!.|.|.)._.'.(.U.V.=.D                         ",
"                  A :.7.C.(.].)._._.'.'.T.8.}.hXtX|.[.[.[.|.|.|.[.[.[.[.].tXgX[.8.C.'._._.).`.|.(.C.n.=.Z                       ",
"                  C D -.V.^.].)._.`.].'.(.T.).|.tXrXrXrXrXrXtXrXrXrXrXrXrXtXeX).Y.E.).`.`._.).`.(.V.-.*.Z                       ",
"                  D =.N.A.).`._.).^.^._.].].(.Y.0XrXrXrXrXrXrXrXrXrXrXrXrXeXY.(.].]._.(.(.)._.`.(.A.M.-.&.                      ",
"                D =.m.U.).).`.`.(.A.C.).].].T.7.T.`.`.`.|.|.|.|.|.|._._.`.Y.7.U.`.].).A.B.(.]._.).).!.M.=.D                     ",
"              A &.N.V.E.].`.).^.U.C.U.).'.Y.!.~.9XeX0X0X^.T.T.R.R.^.0XeXeX0X~.!.Y.(._.U.A.U.!.).`.`.^.C.n.:.Z                   ",
"                D -.V.!.`.].).A.V.!._.`.Y.8.7XkXZXVXZXkX~.4.8.7.2.~.kXZXkXVXVX9X7.T.]._.^.V.A.^.].`.^.V.-.&.A                   ",
"                D -.V.^.].(.T.A.U._.'.Y.!.7XaXAXAXAXAXZXaX7X7X7X~.lXjXAXAXAXAXsX7X!.Y._.`.U.A.U.(.`.^.V.-.&.A                   ",
"                D -.V.^.).A.V.^.`.`.Y.7.7XkXAXZXZXZXAXVXkXVXVXVXVXVXVXZXZXZXZXZXkX9X8.Y.`.`.(.C.C.).).V.-.&.A                   ",
"                D -.V.U.U.m.B.^._.Y.U.H.aXAXSXAXAXAXZXZXZXAXAXAXAXAXZXZXAXAXAXSXSXaXH.!.Y.`.'.B.7.T.U.V.n.D A                   ",
"                D k.m.M.m.m.C.^.'.7.H.aXkXZXAXZXZXZXZXZXZXZXZXZXZXZXZXZXZXAXZXZXAXCXaXH.7.^.).C.m.M.M.M.k.&.A                   ",
"              A &.n.V.m.Z.G.H.{.(.8.H.sXsX&X%X&X&X&XaXAXAXVXZXVXZXZXAXsX&X%X&X%X%XaXNX~.8.Y.{.~.G.Z.7.B.m.*.A                   ",
"                D h.B.7.Z.,XqX[.E.B.~.aX1Xg o & X f 8XAXAXZXVXAXZXZXAXuXx . i o f &XsX,X7.Y.].qX<XS.7.m.h.D Z                   ",
"                  *.;.7.S.<XuX{._.H.G.v.#X*Xb X n =XNXZXAXVXZXZXZXZXZXNXzXK X n *X@Xx.>X9X{.{.qX3XS.7.;.*.                      ",
"                  C &.;.Z.,X8X).{.qX@X& +XGX;X@ OXGXFXZXVXZXZXZXZXZXZXFXUX*X@ :XGXOX& x.qX}.{.<X,XS.7.&.G                       ",
"                  Z *.m.M.c.c.S.H.H.z.X OXHX2X@ XX=XNXAXZXZXVXZXZXZXAXNXzXXX@ *XJX*X. I ,X!.A.c.z.Z.m.=.Z                       ",
"                    %.h.n.%.G ;.M.F.z.g ;XKXxX* @ L uXZXAXZXCXZXZXAXAXaX+X* X zXKXxXj j.F.Z.;.G P n.-.&.A                       ",
"                      &.h.k.h.:.j.F.G.<XCXLXvX* . v 2XAXAXZXZXZXZXZXAXuXn . o xXLXFX<X,XF.j.:.-.k.k.&.                          ",
"                        D n.N.A A j.,XaXDXLXvX= o = <XAXZXZXZXZXZXZXCX<XC o % 2XPXDXaX,Xj.F Z k.7.&.C                           ",
"                          *.*.d p j x.qXCXCX<XM % M <XAXAXZXVXZXZXZXSXuXM % % 1XCXjXpXx.P f p :.:.                              ",
"                          C k 2 : p K x.<XpX<Xz.j.x.aXAXAXVXAXZXZXAXAXaXG.j.z.,XaX3X%XL p : w k C                               ",
"                          2 e 0 4 8 h P x.qXpXaXsXkXVXZXZXZXVXZXZXVXAXVXjXdXaXpXqX>XP h 5 R ^ e 2                               ",
"                          4 6 e T U 6 2 P x.<XpXdXVXVXVXVXVXVXVXCXVXVXVXVXCXaX3Xx.L 2 w E { [ R :                               ",
"                      , < 5 q ^ ^ E Y 6 s j j.,X<XpXaXjXjXjXjXdXdXCXjXsXpX3X>Xz.j i 7 `  . . .' R 0 -                           ",
"                      - : 4 Y ~ b.5X5X$XOX+Xl.I z.@X%X1X1X1X>X&X>X&X1X>X@Xz.z.I +XOX$XfXfXI. . .[ q O                           ",
"                      - : 4 T ' I.IXLXHXMXzX+XP j x x x x j P P x x c x P j P +X-XbXGXLXPX4X . .} w +                           ",
"                    u ..oX..$X5XfXMXMX-X$X$Xc.&.B H +.7.x.@X@X@X@Xx.7.@.V H V l.$X#X5XfXFXBXfXL.{ ! 9 <                         ",
"                  O y #X-X=X2XGXMXX.U 8 Y ^ o.2.+.2.i.f.tXjXdXaXdXwXQ.y.2.,.,.#./ U q ] I.IXKX4X{ ` R 0 -                       ",
"                  i x @X2X1X%X*XoXQ 3 ; 6 E } w.3.y.y.f..XyXeXyXyX Xf.y.y.t.$.#.~ 6 : U ' 4XBXBXiXL.` q O                       ",
"                  m K z.F.8.,.d 6 7 5 > 0 ^ `  .r.u.u.u.s.s.u.a.s.a.a.u.u.t.9.' ~ 0 < s } { I.IXPXI.' 0 +                       ",
"                  j P z.J.J.K.C 2 0 : ; : 4 W { w.r.r.w.w.r.s.a.r.w.r.r.r.w.{ W 6 ; 0 @.t.r..XLXPXI.] q +                       ",
"                  g x z.F.F.c.K g 2 ; , 2 2 s ^ ' }  . .U [ p.p._ U  . . .' ^ s i O p 8.Q.s. XIXHX4X .e +                       ",
"                  2 h G I %.L g t < 1 2 B O.o.6 7 U U U 6 R 0.9.! 7 U U U U 6 ) O.B x 8XhXhXhX9XuXFXfXz .                       ",
"                  : 4 c b P g t ; ; 1 * H ,.@.) ( _ ) ( ! R W W W ! ) ) ( ( ) @.,.V x uXDXDXkX7.,XLXKX..O                       ",
"                , : y oX:X+Xv r ; ; 1 $ C ,.3.i.p.p.i.3.w.] ' ' ] #.i.i.p.p.i.3.,.V K uXSXSXVXaXNXPXPX-X..r                     ",
"              , < 3 Q ;XzX:Xv r ; ; i a B O.4.y.a.s.Q.W.g.w.w.w.q.g.W.Q.d.a.u.5.O.B x uXVXZXkXsXsXIXHXbX*Xy O                   ",
"                > 7 | 5XbX:Xv r ; - d ,.O.d O.,.y.a.9XuX'.s.p.s.s.Q.uX9Xf.y.4.@.s p K 1XaXjXdX<Xx.l.*XmXcXy +                   ",
"              ; 5 W | BXUX*Xl t ; ; d O.o.7 ( $.8./.2XvXlX X X X XlXzX;Xf.t.$._ 7 e x c.>X<X<XF.I = +XmXcXy -                   ",
"            , ; 5 ` L.FXKXzXl t : 4 q s R ^ ' 0.v.=XvXmXmXNXmXmXBXMX-X&Xq.q.q.{ ^ 8 e x L L L P P c :XnXcXh ; >                 ",
"          > 5 8 W ' L.FXPX=Xl t 4 q E E ] [ L.4XfXGXHXJXJXHXJXHXJXUXbX5X4XP.q. .{ ~ T s p p i p z v :XbX-Xe 4 4 :               ",
"        , 5 5 T ^ ' L.FXPXzXl r 8 E [ 0.9. .6XmXJXLXLXLXLXLXLXLXLXPXGXGXGX5Xe. .9.{ ^ w e q q 4 f v OXzX#Xe 3 7 4 ;             ",
"      ; : 7 Y ~ ' '  .IXLXzXl y R [ } 9.L.P.;XbXGXHXJXJXJXJXKXJXUXGXbXbXbX5X9.9.9.} ~ T 6 7 6 : u z b OX#XoXoXoX..z             ",
"    > 5 5 T ^ { 9. .L.FXPX-Xl t ^  .9.9.P.=XzX=X=X-XbXnXnXnXGXmXzX=X=XzX-X6Xe.9.9.} ~ T 8 8 0 < ; ; r n :X=XzX-X*Xb             ",
"    z ..oX#X5XiXBXBXBXnXvX+Xr 9 ^ 0.q.9.4XvXGXGXUXGXHXJXJXJXJXHXUXGXHXmXbX5X&XP.{ [ ~ R q 8 5 5 : ; r n +X*X=X*XOX              ",
"    n OX-XvXmXJXLXLXPX-Xl t ; 4 /  .9. .4XmXJXLXLXLXLXLXLXLXLXLXLXLXLXKXGXbX-XoX/ ^ ~ R 5 < , , ; ; z b XXb b b                 ",
"      +XOX=X=XvXbXnXvX:X    ; : R ~ { { 6XbXGXHXKXLXLXLXLXLXLXLXLXLXLXKXGXmXcX$XR Y w q 5 <                                     ",
"        n n n v v v v         , > 4 8 E b.=XzX=XvXnXmXnXKXLXLXPXUXmXmXbX=X-XzXoX8 : ; , >                                       ",
"                                                                                                                                ",
"                                                                                                                                ",
"                                                                                                                                ",
"                                                                                                                                "
};
