/* XPM */
static char *_47e1dc6900b4537e1964de93a4e407fgEvZTxJZv2QIEtYA[] = {
/* columns rows colors chars-per-pixel */
"32 32 203 2 ",
"   c None",
".  c #05072D",
"X  c #000837",
"o  c #001137",
"O  c #001D3C",
"+  c #2E1439",
"@  c #291839",
"#  c #341B3B",
"$  c #290C38",
"%  c #02243D",
"&  c #002B3F",
"*  c #0E2B3F",
"=  c #00323F",
"-  c #0E303E",
";  c #222538",
":  c #342B3C",
">  c #3C263F",
",  c #3B303F",
"<  c #522F3A",
"1  c #55343F",
"2  c #042943",
"3  c #042F4A",
"4  c #0B2944",
"5  c #112B40",
"6  c #1D2F42",
"7  c #003341",
"8  c #00334A",
"9  c #1E3243",
"0  c #103242",
"q  c #212E41",
"w  c #3A2E41",
"e  c #253343",
"r  c #2D3544",
"t  c #2B3C47",
"y  c #333544",
"u  c #3B3342",
"i  c #363948",
"p  c #3B3C4B",
"a  c #393945",
"s  c #343C50",
"d  c #253A51",
"f  c #582C43",
"g  c #443945",
"h  c #493A47",
"j  c #5C3743",
"k  c #523B43",
"l  c #583845",
"z  c #612C44",
"x  c #623446",
"c  c #6D3B49",
"v  c #693A47",
"b  c #753548",
"n  c #004445",
"m  c #094C58",
"M  c #33484C",
"N  c #2A4B56",
"B  c #3F4250",
"V  c #3D4852",
"C  c #2D545F",
"Z  c #335E54",
"A  c #304A4C",
"S  c #366359",
"D  c #37735E",
"F  c #005F6C",
"G  c #1E5962",
"H  c #2C5B64",
"J  c #2C5660",
"K  c #00636B",
"L  c #006D6C",
"P  c #1A6C6F",
"I  c #007E69",
"U  c #1C6571",
"Y  c #3A7E6E",
"T  c #236F71",
"R  c #2A6A70",
"E  c #4D424C",
"W  c #52444B",
"Q  c #464959",
"!  c #594A51",
"~  c #6C484A",
"^  c #734B4C",
"/  c #754448",
"(  c #7C544F",
")  c #6E5551",
"_  c #765855",
"`  c #664650",
"'  c #4E5067",
"]  c #59566C",
"[  c #57566C",
"{  c #585B73",
"}  c #61647F",
"|  c #893C4D",
" . c #973B4D",
".. c #8C3C51",
"X. c #B53D53",
"o. c #BC3D53",
"O. c #B53551",
"+. c #A73B50",
"@. c #C63B55",
"#. c #854847",
"$. c #9D4F4A",
"%. c #88534F",
"&. c #9D564C",
"*. c #99544A",
"=. c #984B51",
"-. c #825958",
";. c #955651",
":. c #A1594A",
">. c #A64A57",
",. c #BE4055",
"<. c #BD4B59",
"1. c #A55C51",
"2. c #BE565A",
"3. c #826158",
"4. c #9A665A",
"5. c #AC6A5B",
"6. c #A46759",
"7. c #B06A5A",
"8. c #946461",
"9. c #8C7369",
"0. c #907469",
"q. c #AD7361",
"w. c #A77667",
"e. c #B57561",
"r. c #B97B65",
"t. c #B07965",
"y. c #AB7B71",
"u. c #C44456",
"i. c #CA4858",
"p. c #D44E5A",
"a. c #DD5A5F",
"s. c #D7535E",
"d. c #D75F65",
"f. c #E35E61",
"g. c #E95D62",
"h. c #E56062",
"j. c #EA6364",
"k. c #EB6A66",
"l. c #F26666",
"z. c #ED7A6C",
"x. c #ED7069",
"c. c #F1746D",
"v. c #18886B",
"b. c #0A8468",
"n. c #348E6F",
"m. c #2F917A",
"M. c #33927C",
"N. c #339B7C",
"B. c #389577",
"V. c #28837D",
"C. c #36A47C",
"Z. c #3AA97D",
"A. c #B5816A",
"S. c #BC846B",
"D. c #B18C7C",
"F. c #BB8674",
"G. c #C1846B",
"H. c #C2896E",
"J. c #C68477",
"K. c #C48C71",
"L. c #C88679",
"P. c #C78978",
"I. c #CA9274",
"U. c #CC9B7C",
"Y. c #C89477",
"T. c #D09A7B",
"R. c #F38573",
"E. c #F49278",
"W. c #D3A07F",
"Q. c #686C88",
"!. c #6C7387",
"~. c #747A99",
"^. c #349D81",
"/. c #329086",
"(. c #2D8981",
"). c #32A180",
"_. c #77879C",
"`. c #45AF83",
"'. c #B69482",
"]. c #BA9884",
"[. c #8D99AB",
"{. c #D88F80",
"}. c #C39784",
"|. c #D79A88",
" X c #D59887",
".X c #E19B89",
"XX c #D9AA87",
"oX c #DCA38E",
"OX c #D3A685",
"+X c #D9B08C",
"@X c #DBA992",
"#X c #CCA58E",
"$X c #EDAB95",
"%X c #E6A892",
"&X c #EDB39A",
"*X c #E9B89E",
"=X c #F3B49B",
"-X c #F9BEA3",
";X c #F7BBA0",
":X c #FBC3A6",
">X c #FECBAC",
",X c #F9C4A7",
"<X c #FFD0B0",
/* pixels */
"                                                                ",
"                                                                ",
"                0 c =.=.                                        ",
"                2 d.f.p.h                                       ",
"                  x b % =.i.l y / x x z z x v                   ",
"                  =.>.r  .#...<.g.c.c.R.R.c.l.2.c               ",
"                7 >.X.e l O.p.g.h.k.k.x.E.z.k.l.k.l             ",
"                  3 7 b O.u.f.j.j.j.g.j.E.z.z.a.l.>.2           ",
"            3.A.X     ..@.u.f.f.f.h.j.j.h.j.h.f.a.u.y           ",
"            _ 4.#.  7 ..@.o.u.i.a.a.h.h.h.h.h.f.p.X.y           ",
"              h -.i 7 | O.O.@.o.,.,.o.,.,.o.,.,.u.X.y           ",
"            !.[._.Q.e k +. .2 w # + + # # # # + $ @ y           ",
"          ; p Q Q p 0 c b f 8. XoX@X%XoXoXoXoXoX%XD.*           ",
"        y Q ' } Q.[ B @ ) |.$X=X<X'.9.#X<X,X>X].9.*XW           ",
"      t Q Q.~.Q.Q.{ d _ J.>X<X>X>XoX}.>X@X'.].@XP.*XE           ",
"    u h [ [ ] [ ' h . w.F.$X-X,X>X>X>X>X,X%X*X>X<X,Xa           ",
"  e ;.1.:.*.*.:.&.1.&.-.y..X=X=X:X>X>X>X>X>X>X>X>X&Xp           ",
"  e *.e.H.H.K.r.q.7.&.< k F.{.$X=X:X-X-X-X:X-X;X-X X%           ",
"  5 q.G.H.K.K.H.e.*.` m Q o ! _ J.L.L.L.J.J.J.P.8.y             ",
"  5 t.XXXXT.I.K.S.) I /.U 1 / % 3 8 O & % 2 8 < v e i           ",
"  5 A.XX+XU.I.I.^ v.Z.^.P k %.M /.^.S , , n.T 1 %.A N.M         ",
"  5 A.T.OXU.Y.I.^ b.Z.Z.L ^ H.t C.Z.n.S D B.L ( S.3 M.A         ",
"  % F.T.OXU.H.I.( v.`.D 2 ) S.t B.C.n.Z D B.K ( S.4 B.V         ",
"  5 A.I.H.K.K.I.( 7 n 7 ; ` t.r m.C.Z.N.C.C.F ^ q.4 7 r         ",
"  % t.I.K.H.r.G.h y.%Xy.o ` 5.r T ).).^.N.(.F ^ 6.W |.!         ",
"  e 4.r.I.I.H.r.%.w.].9.O k / r R J C J H T G < ~ E '.          ",
"    O 4.r.e.e.5.1.#.. o i h / r H y : M N H N h ^ q             ",
"      u w w : g g k k y y r 9 y w i i i u : y r 9 y             ",
"                    e p y y y y y y y y y y y y y y             ",
"                      i y y y               i y y y             ",
"                    y y y y                 i y y               ",
"                    y p y                   p y                 "
};
