/* XPM */
static char *af55935b188a416a9932a8047b230849bdZ35y4sRLpFIJwA[] = {
/* columns rows colors chars-per-pixel */
"64 64 254 2 ",
"   c None",
".  c #020000",
"X  c #0F0010",
"o  c #2A1007",
"O  c #003900",
"+  c #000024",
"@  c #312F22",
"#  c #2B1A16",
"$  c #4D0C00",
"%  c #473A22",
"&  c #412625",
"*  c #611D04",
"=  c #004800",
"-  c #025800",
";  c #145804",
":  c #17570C",
">  c #2D5511",
",  c #056800",
"<  c #196B00",
"1  c #007300",
"2  c #007C00",
"3  c #187400",
"4  c #006112",
"5  c #2B6F0A",
"6  c #376033",
"7  c #594A17",
"8  c #515511",
"9  c #685019",
"0  c #4F7605",
"q  c #746915",
"w  c #4C4222",
"e  c #564623",
"r  c #515A23",
"t  c #665935",
"y  c #695824",
"u  c #766722",
"i  c #746835",
"p  c #40643F",
"a  c #422F41",
"s  c #51694E",
"d  c #7A6846",
"f  c #766A50",
"g  c #686869",
"h  c #777779",
"j  c #6E7171",
"k  c #745B47",
"l  c #853900",
"z  c #FC0027",
"x  c #8F7010",
"c  c #A47D14",
"v  c #876928",
"b  c #8D722B",
"n  c #92742D",
"m  c #987929",
"M  c #997C31",
"N  c #957830",
"B  c #866E3B",
"V  c #CB5A0F",
"C  c #87734A",
"Z  c #877356",
"A  c #886D52",
"S  c #9A7754",
"D  c #048400",
"F  c #108C00",
"G  c #298500",
"H  c #398902",
"J  c #2B9500",
"K  c #3C9800",
"L  c #38A300",
"P  c #479702",
"I  c #4B9102",
"U  c #6D8F0C",
"Y  c #5AA501",
"T  c #5DB400",
"R  c #46A500",
"E  c #6AB800",
"W  c #76BE02",
"Q  c #73AB00",
"!  c #678A2D",
"~  c #52A927",
"^  c #79C500",
"/  c #72CD26",
"(  c #738E72",
")  c #7BAD5E",
"_  c #B89604",
"`  c #AF8E11",
"'  c #8CAB00",
"]  c #AEA90B",
"[  c #9D802C",
"{  c #9F8235",
"}  c #819132",
"|  c #A38435",
" . c #A98B37",
".. c #B18F34",
"X. c #AE913C",
"o. c #B4943B",
"O. c #BC9B3D",
"+. c #B49537",
"@. c #AD9129",
"#. c #969513",
"$. c #C59C01",
"%. c #D39305",
"&. c #D7AB01",
"*. c #DAB707",
"=. c #CBAD15",
"-. c #E2B700",
";. c #FAB011",
":. c #C4A43B",
">. c #CBAF29",
",. c #EB9D2B",
"<. c #86C903",
"1. c #8BD200",
"2. c #8CCF08",
"3. c #BDC100",
"4. c #D1CE08",
"5. c #EAC402",
"6. c #F6C902",
"7. c #FBD600",
"8. c #E5C21D",
"9. c #CCE600",
"0. c #F9E802",
"q. c #FFFB01",
"w. c #FDFB18",
"e. c #C4CD2D",
"r. c #ECCC30",
"t. c #FEE935",
"y. c #998855",
"u. c #BA9D43",
"i. c #A88D52",
"p. c #BBA44D",
"a. c #978664",
"s. c #958E73",
"d. c #BB9C7A",
"f. c #A9916D",
"g. c #B7A874",
"h. c #8DB16D",
"j. c #C5A542",
"k. c #CBAB45",
"l. c #CDAE49",
"z. c #C6A846",
"x. c #CEB14B",
"c. c #CFB144",
"v. c #D2B44B",
"b. c #D3B74C",
"n. c #D5BC54",
"m. c #D6B956",
"M. c #CDB255",
"N. c #CA9D6E",
"B. c #D4B566",
"V. c #D2B376",
"C. c #D9B364",
"Z. c #94CE53",
"A. c #97CC69",
"S. c #A3D16D",
"D. c #BCC05B",
"F. c #DBC45B",
"G. c #DDCA5C",
"H. c #D8C456",
"J. c #DBC348",
"K. c #E4D45E",
"L. c #E9CB58",
"P. c #F7EB57",
"I. c #DCC965",
"U. c #DBC67A",
"Y. c #E1CF63",
"T. c #E9C365",
"R. c #E3D465",
"E. c #E5D66A",
"W. c #E6D96C",
"Q. c #E9DB6E",
"!. c #EAD76C",
"~. c #E9DD72",
"^. c #E8DA78",
"/. c #F2D46E",
"(. c #EDE176",
"). c #7E7D84",
"_. c #827D86",
"`. c #758C88",
"'. c #848587",
"]. c #969699",
"[. c #8F9090",
"{. c #AB9D8D",
"}. c #96AC93",
"|. c #B6A889",
" X c #B6AB90",
".X c #9E9EA3",
"XX c #A7A7A9",
"oX c #B7B3AA",
"OX c #B2B2B4",
"+X c #BABABE",
"@X c #B5B5BA",
"#X c #AFB2B1",
"$X c #9EADA0",
"%X c #C4A687",
"&X c #C9B996",
"*X c #D7B997",
"=X c #CCAC8A",
"-X c #E0BC96",
";X c #C2B5A8",
":X c #AFD492",
">X c #BDE29D",
",X c #B8CCB4",
"<X c #BFE0A4",
"1X c #D7C499",
"2X c #E9DA84",
"3X c #E8D193",
"4X c #ECE283",
"5X c #EEE48A",
"6X c #F3E689",
"7X c #F3EA92",
"8X c #F3ED9C",
"9X c #F9EA97",
"0X c #FFF998",
"qX c #EEE092",
"wX c #D7C7A3",
"eX c #C3D7BA",
"rX c #D3C9B3",
"tX c #E5C9A6",
"yX c #EAD4AA",
"uX c #ECDAB4",
"iX c #F1DCB6",
"pX c #F1DBAD",
"aX c #CCE7B6",
"sX c #F4ECA3",
"dX c #F6F1A3",
"fX c #F8F4A8",
"gX c #F5E3BB",
"hX c #FAECBC",
"jX c #F6E5B9",
"kX c #F2E8B5",
"lX c #BCBDC2",
"zX c #C3BFC0",
"xX c #C5C5C9",
"cX c #CBCCD4",
"vX c #D6D6D9",
"bX c #D0CCD8",
"nX c #D3E4C8",
"mX c #FBEDC3",
"MX c #F8E8C4",
"NX c #FEF2C5",
"BX c #FFF4CA",
"VX c #FFFACE",
"CX c #E5F3DA",
"ZX c #FFFAD4",
"AX c #EDE5CF",
"SX c #DDDEE1",
"DX c #E2DFE5",
"FX c #EAEAEC",
"GX c #E5E4E8",
"HX c #EDEBF1",
"JX c #F4F4F6",
"KX c #FEFEFE",
"LX c #F7F8F8",
"PX c #F4FAE6",
/* pixels */
"                                                                                                                                ",
"                                                                                                                                ",
"                                                  n N n n N n n n n                                                             ",
"                                                | O.u.o.o.o.o.O.j.|                                                             ",
"                              @ @     n N M } x ..j.k.j.j.k.j.j.z.+.b x n N N                                                   ",
"                            u ` `   i u.+.u f.U.Y.F.H.F.F.n.F.F.H.I.U.U.M.:.O.[                                                 ",
"                          + b 5.5.u i l...% |.fX7XE.Y.E.!.W.W.E.R.^.sX7X~.H.:.+.n M N                                           ",
"                        y v ` 6.6.*.@. .] ] p.V.2XQ.Q.Q.W.W.Q.W.W.(.7X9X7X5X2XI.M.k.+.|                                         ",
"                      @ y ` &.&.-.7.-.9 ] w.4.7 i.Q.Q.W.W.W.W.W.W.W.R.4XdXfXfX7XE.H.k.O.M                                       ",
"                      + 9 _ $.V %.6.-._ %.;.-.4.] y.F.Q.W.W.W.W.W.W.R.~.4X8XfXfX7X^.H.x...M                                     ",
"                      w v ` =.V V ,.8.8.,.z r.q.3.r p.Q.Q.W.W.W.W.W.W.E.E.4XfXfXdX7XE.F.k.u.M                                   ",
"                    M { o.v.m.C.m.H.~.6X/.V ;.7.5.=.J.E.E.R.E.R.R.R.R.~.7XdXfX8X4X~.W.R.F.x...{                                 ",
"                  b  .z.n.R.Q.~.Q.E.4XfXqXr.-.>.r.t./.~.^.~.^.~.^.~.~.4XsXfXdX5XR.R.W.Q.E.F.z.u.n                               ",
"                  v | n.!.!.Q.W.W.W.~.4X~.K.2X7X9X0X9X8X8X8X8X8X8X8X8X8X4X2X4X~.W.W.E.Q.E.Q.I.u.v                               ",
"                  m X.F.~.Q.W.W.W.W.W.R.R.W.5XdXsXsXdXdXdX8XdXsX8X8XsX7XW.K.R.R.W.W.W.W.W.Q.R.z.m                               ",
"                M ..k.I.Q.Q.Q.W.Q.Q.W.K.K.R.W.^.I.m.E.4X4X2X(.^.I.U.^.(.W.E.W.E.W.W.E.W.W.Q.E.v.o.|                             ",
"              n  .:.v.Y.!.E.Y.Y.G.Y.E.2X2X2X4X2XU.B.I.G.K.E.E.K.b.c.G.E.W.W.W.W.W.W.W.W.W.W.R.n.j.o.n                           ",
"                M O.v.Y.W.F.v.k.:.=.U.kXNXhXhXhXgXkXU.>.G.Q.Q.R.E.I.b.m.E.W.W.W.E.W.W.W.~.Q.E.m.O. .n n                         ",
"                M j.v.F.I.b.l.B.V.B.3XmXVXBXBXBXVXBXyXU.I.R.R.Q.~.I.l.v.E.~.W.E.W.W.E.R.I.W.E.m.O.| | O.M                       ",
"              b | j.v.v.v.:.B.3XpXyXuXmXBXmXNXmXmXNXhXkXU.c.I.Q.Q.Y.x.v.W.W.W.W.E.~.E.n.x.R.E.H.:.| | j. .&                     ",
"                M X.j.k.k.@.g.tXAXkXhXmXmXNXBXBXNXBXVXmX1X] G.~.Q.Y.x.b.G.R.Q.W.W.W.W.F.n.I.F.z. .n X.n.H.e.#.                  ",
"                  N ..k.k.m a.wXkXmXNXNXBXBXBXBXBXNXVXhXU.>.G.W.Q.R.b.k.k.F.W.Q.W.W.E.~.E.H.j. .b v i.U.P.w.4.@                 ",
"                    N o.j.v Z wXgXNXBXNXuX1X&X&X X1XgXNXpX2X^.R.Y.n.o.[ [ j.F.E.W.~.W.E.G.z... .+.u.H.P.t.w.0.=.m               ",
"                      M M u a.1XgXmXBXBXwXt o e o t 1XNXBXjX5XG.n.u.C t t i.k.F.W.~.W.n.:.| { u.m.I.P.w.q.7.7.7.=.%             ",
"                        b 9 a.wXgXmXBXBXuXXXj X g .X{.&XkXNX7XH.@.y.|.&X&X|.i.:.F.F.F.b.:.M { M.~.7X(.r.7.7.7.-.` w             ",
"                          9 f.wXMXmXNXNXAXDX.X# XXSX].7 wXNX7XH.N s.tXmXVXwXd [ k.x.k.x.k.|  .F.4XfXqX:.&.7.6.$.c e             ",
"                          7 f.tXhXNXNXNXAXzX).# @XGX[.X wXNX2XM.=X&X*XpXVXwXf m j.n.F.n.j.| | l.E.5X^.l.` @._ %.[ w             ",
"                          7 a.wXgXhXBXBXyX_.a # zXJXoXB tXNXV.m.pXyXN.*XNXwXd [ v.Y.Q.F.j.| M O.b.Y.R.b. .e x $.` %             ",
"                          y s.*XiXMXBXBXwXf . $ xXKXAXwXhXhX^.U.hXiXN.-XhXwXd i.Y.Q.Q.F.j.| M j.b.n.n.b.j.c x u y e             ",
"                          t S %XtXjXBXBXwX9 o * zXKXPXBXBXhX4X^.hXiXV.=XtX XC p.E.W.Y.n.j. .| u.k.j.j.k.:.*._ 9 w e             ",
"                          t i.N.-XuXmXBXwXl $ l &XZXZXBXBXhX^.^.kXiX1X%Xs.y.u.c.m.n.v.v.k.j.o.X. .X.o.X.>.6.*.c v w             ",
"                          t A i.V.tXiXNXtXd.S i.1XhXBXmXBXmXqX2XyXyXtX=XB [ c.c.k.k.k.k.k.v.k. .b n B v =.6.7.*.` w             ",
"                              i d.-XuXiXgXiXiXiXhXNXmXBXNXNXkXyXtX-XtX=Xp.:.k.k.k.k.k.k.v.b.l.O.b         &.7.0.3.%             ",
"                              7 Z d.*XtXiXmXmXMXmXmXmXmXmXMXiXtXtX*X-X=XC.k.k.k.k.c.x.k.j.k.u.| n         c 0.q.e.%             ",
"                                  A N.N.-XtXtXtXuXiXgXgXjXgXyXtXtX*XN.N.N.N.v.c.c.v.l.O. .o.|             t 4.q.8.w             ",
"                                  7 B S d.d.d.d.%X&X&X&X&X&X=XN.%X%X%X%X%XN.+.$.+.:.O. .v b n             + ] 4.] w             ",
"                                      C C d i C C d f A d C A C d s.#XlXOX{.x x x ` M                       u u u               ",
"                                      t a.{.|. X X|.p._ c x 8 > > ! [.lXvXvXrX&X Xs.A                         +                 ",
"                                      t d.yXMXBXBXMX6X6.-._ 0 2 H K J :XLXKXKXFXvX#Xg                                           ",
"                                    u c C.6X9X0XfX0XP.7.U.&X X#XeX:XT ) eXGXLXKXJXcX].'.                                        ",
"                                  @ v _ -.7.0.q.q.q.0.r.1XlXcXFXKXPXS.T L }.vXLXKXSXOX].j                                       ",
"                                  w q #._ ] 4.9.9.9.9.e.s.`.$XaXHXJXCX:XT Y }.xXGXvX+XXXh                                       ",
"                                  e r , D J T ^ ^ ^ <.' I 5 E Z.eXFXKXCXS.T K h.#X@X#X].j                                       ",
"                                    > - 1 D D D J K P U _ &.<./ A.eXFXLXCX<XT Y ) ( ( ( p 6                                     ",
"                                      - , 3 0 I 5 5 s a.L.t.e.<.^ A.,XHXKXCXS.E P 2 1 1 3 < ;                                   ",
"                                      < 2 D ] -._ i  XpXiX9XP.4.' ~ ) lXFXJXCX:XK G K 5 , , ;                                   ",
"                                      0 U Q 4.7.] C wXZXVXmX/.5.Q D D ) +XHXKXnXY K R H 5 3 ;                                   ",
"                                  . 9 ` &.5.4.' q C wXVXZXjXT.%.U 1 , > s cXKXnXE L I ~ P 5 < ; -                               ",
"                                  g f.p.T./.e.R 3 A &XmXBXgX=X..i 4 : O . $XLXCX:XZ.Y Y P H < , >                               ",
"                              g h XX#XoX;X;Xh.W U f %XyXgXMXyX=XS r 5 - = ].GXLXCX<XW Y I G < - p j _.                          ",
"                              '.#X+XxXxXxXbXeX:Xh.} f.%X*X*X*X|.a.0 H 1 - ( #XHXKXaX^ E Y H , , 6 j j                           ",
"                          g _.XX+X@XlXbXGXKXHXvX:X' } A A A A Z ! P I H 3 - p cXKXaX^ ^ W I , 3 3 : s ).).h                     ",
"                          [.XX.XXXOXxXvXGXJXFXbX:X^ Q ! U U ! U T E E Y I - = #XLXCX>XZ.^ K 1 1 4 = = s '..X[.                  ",
"                      g '.XXOX'.'.XXxXbXSXSXcX+Xh.^ <.2.2.2.<.<.<.<.<.W Y D 1 $XDXLXPXaX^ R G 2 - - = = ( @XXXh                 ",
"                      j ].@XlX].].xXvXFXHXFXGXvXnXaXA.E <.1.1.1.1.1.2.^ Y G 3 ( @XGXLXCXaXeX,X,X#X$X[.`..XzX@X'.g               ",
"                      g '.#XlX@XlXbXFXKXKXKXKXKXKXKX,XK E <.<.1.<.1.2.W Y H 3 s h @XSXLXKXKXKXKXLXGXcX,X@X+XXXh                 ",
"                        ).[.OXlXcXbXGXLXKXKXKXKXKXKXeXJ T W W ^ W W E Y I G < > s [.@XcXSXGXLXKXKXGXxX#XXXXX[.                  ",
"                          g '.XX+X@XeXbXvXvXFXKXKXKX,XJ K Y P P P I 3 < 3 < ; - ; s j g )..XlXvXvXlXXX).g h h                   ",
"                                                                                                                                ",
"                                                                                                                                ",
"                                                                                                                                ",
"                                                                                                                                ",
"                                                  M M M M M M M M M                                                             ",
"                                                M  . .| | | | | X.M                                                             "
};
