/* XPM */
static char *_245354fefd54b7d998cb36c18e49fb4aWA1MFaehmx6g9aM[] = {
/* columns rows colors chars-per-pixel */
"64 64 256 2 ",
"   c None",
".  c #040000",
"X  c #00051E",
"o  c #340000",
"O  c #003900",
"+  c #3E2F00",
"@  c #000223",
"#  c #091724",
"$  c #363423",
"%  c #29292B",
"&  c #660000",
"*  c #443B26",
"=  c #400000",
"-  c #024B01",
";  c #055400",
":  c #125903",
">  c #036801",
",  c #156901",
"<  c #017400",
"1  c #017C00",
"2  c #1B7600",
"3  c #007D17",
"4  c #287B02",
"5  c #2E710A",
"6  c #38722F",
"7  c #3D5E3B",
"8  c #66531B",
"9  c #6D5612",
"0  c #58720D",
"q  c #6E6F11",
"w  c #574922",
"e  c #554929",
"r  c #665626",
"t  c #705C2E",
"y  c #466A2E",
"u  c #796538",
"i  c #776427",
"p  c #4F580E",
"a  c #443E41",
"s  c #545755",
"d  c #596855",
"f  c #796945",
"g  c #686869",
"h  c #767777",
"j  c #6F746B",
"k  c #615F5E",
"l  c #856B1A",
"z  c #987616",
"x  c #90740C",
"c  c #A07D0D",
"v  c #866A26",
"b  c #8E722A",
"n  c #92752E",
"m  c #97792A",
"M  c #9B7D32",
"N  c #967931",
"B  c #857032",
"V  c #D16F00",
"C  c #DC6220",
"Z  c #8C754F",
"A  c #A47B55",
"S  c #827E7E",
"D  c #F83A2D",
"F  c #018700",
"G  c #158A00",
"H  c #308E00",
"J  c #38A400",
"K  c #449300",
"L  c #499900",
"P  c #4A9107",
"I  c #768801",
"U  c #709200",
"Y  c #5AA700",
"T  c #4DA800",
"R  c #63AA00",
"E  c #68B800",
"W  c #73B007",
"Q  c #6FAA35",
"!  c #74C400",
"~  c #7BC601",
"^  c #7ED500",
"/  c #769176",
"(  c #7AA76D",
")  c #5A9243",
"_  c #928E0B",
"`  c #BB9404",
"'  c #AF8D10",
"]  c #86A900",
"[  c #88B108",
"{  c #A8AD00",
"}  c #9E8133",
"|  c #9F8C3F",
" . c #95892B",
".. c #A4852A",
"X. c #A38535",
"o. c #A98B37",
"O. c #AC923C",
"+. c #B3943B",
"@. c #BB9A3D",
"#. c #B69539",
"$. c #B49428",
"%. c #BEA132",
"&. c #C89B01",
"*. c #C7950B",
"=. c #CAA802",
"-. c #D7AB03",
";. c #D3B00E",
":. c #E8BB02",
">. c #FFB21B",
",. c #C1A13E",
"<. c #C8A937",
"1. c #CEAC2D",
"2. c #E19C20",
"3. c #85CB00",
"4. c #89CD00",
"5. c #88C705",
"6. c #90D200",
"7. c #BDCB03",
"8. c #9ACC2F",
"9. c #D1CB00",
"0. c #E9C702",
"q. c #F2CA01",
"w. c #FBD700",
"e. c #ECD108",
"r. c #C3E400",
"t. c #E9EB00",
"y. c #FBE702",
"u. c #FDF800",
"i. c #EEC932",
"p. c #FEF52E",
"a. c #CECE39",
"s. c #958353",
"d. c #BB9C41",
"f. c #B59948",
"g. c #A98C55",
"h. c #BDA245",
"j. c #968769",
"k. c #9A8B75",
"l. c #93876E",
"z. c #A7936C",
"x. c #B69878",
"c. c #AD906B",
"v. c #89B677",
"b. c #B6AA78",
"n. c #C3A442",
"m. c #CBAC45",
"M. c #CDAF49",
"N. c #C6A846",
"B. c #CEB14A",
"V. c #CDB044",
"C. c #D2B44B",
"Z. c #D4B94E",
"A. c #D4BA52",
"S. c #D6B955",
"D. c #CDB153",
"F. c #C69C72",
"G. c #D5BB69",
"H. c #D1AC76",
"J. c #DDAF51",
"K. c #A3D273",
"L. c #9ACC6B",
"P. c #DCC65B",
"I. c #DAC659",
"U. c #E4CC5A",
"Y. c #E8D354",
"T. c #F9EB4F",
"R. c #DAC964",
"E. c #D7C47C",
"W. c #E1CE63",
"Q. c #E3D365",
"!. c #E5D66A",
"~. c #E6D86C",
"^. c #E8DB6E",
"/. c #E7D769",
"(. c #E9DD72",
"). c #EADE7B",
"_. c #E5D675",
"`. c #F1D376",
"'. c #ECE17B",
"]. c #F6E86B",
"[. c #7E7E81",
"{. c #858587",
"}. c #8E8D92",
"|. c #959599",
" X c #928F89",
".X c #B39F8A",
"XX c #96B390",
"oX c #B9A88A",
"OX c #A8A7A8",
"+X c #AEADB2",
"@X c #B5B5B7",
"#X c #B4B4AA",
"$X c #A09EA4",
"%X c #C9AB86",
"&X c #D7B388",
"*X c #C2A896",
"=X c #C7B896",
"-X c #D9BA97",
";X c #CCB18A",
":X c #D2BB9A",
">X c #ACD883",
",X c #B7D492",
"<X c #B5E486",
"1X c #BACEB4",
"2X c #A6D097",
"3X c #D7C695",
"4X c #E8D788",
"5X c #E2C49B",
"6X c #ECDA90",
"7X c #EEE38D",
"8X c #EEE385",
"9X c #F5E78A",
"0X c #F4ED9D",
"qX c #F2EA95",
"wX c #FCF698",
"eX c #F1E996",
"rX c #DAC7A2",
"tX c #C9CBBA",
"yX c #E5C8A5",
"uX c #EAD5AA",
"iX c #EADAB4",
"pX c #F1DCB6",
"aX c #EBD5B2",
"sX c #F5E9A7",
"dX c #F6F1A2",
"fX c #F9F4A8",
"gX c #F5E3BB",
"hX c #F8E6BD",
"jX c #FBEDBC",
"kX c #F7E7B5",
"lX c #FFF2BD",
"zX c #EDE2BA",
"xX c #CAE9B0",
"cX c #BBBDC4",
"vX c #C4C5C8",
"bX c #C9D4CA",
"nX c #CDCED2",
"mX c #D6D6D8",
"MX c #D5CECF",
"NX c #E6DDD1",
"BX c #DBE6D8",
"VX c #CFE2C8",
"CX c #FBECC2",
"ZX c #F4E8C6",
"AX c #FEF2C6",
"SX c #FFF4CB",
"DX c #FFF8CC",
"FX c #E6F6DA",
"GX c #FFF9D6",
"HX c #DCDCE4",
"JX c #E3E4E6",
"KX c #E8E9E9",
"LX c #F4FAE7",
"PX c #FEFEFE",
"IX c #F7F6F6",
"UX c #EDF1EE",
/* pixels */
"                                                                                                                                ",
"                                                                                                                                ",
"                                                                                                                                ",
"                                                                                                                                ",
"                                                        M n N N n n n n n n                                                     ",
"                                                      z o.n.@.@.@.@.@.@.n.o.z                                                   ",
"                                            N M N b b ..@.V.m.m.m.m.m.m.B.n...b m M } N     * e                                 ",
"                                      n   m ..<.V.G.E.E.R.P.P.P.P.P.P.P.P.R.4XH.Z v ,.f.e 8 ` $.i                               ",
"                                    M X.m o.h.S.Q.'.dXdX'.Q.~.~.~.~.~.!.Q.'.dX6X/ 9 <.,.r z e.e...@                             ",
"                                  } o.m.B.R._.7XqXqXqX8X'.~.~.~.~.(.~.^.^._.K.b.a.{  .M <.:.q.q.;.l 9                           ",
"                                N @.@.I.Q.8X0XfXfXqX'.Q.Q.~.~.~.~.~.~.~.~.I.t _ t.w._ v 0.w.:.&.-.` v $                         ",
"                              M o.V.I.~.7XdXfXfX7X'.~.Q.~.~.~.~.~.~.(.R.g.| 7.e.>.>.*.` :.:.V V *.` q @                         ",
"                            N @.N.I.W.'.eXfXfX0X'.~.~.~.!.~.~.^.~.~.'.I.u _ t.y.C D >.Y.i.2.C C *.%.b w                         ",
"                        n X.+.C.I.Q.!.'.).eXdXfXdX7X^.Q.Q.Q.Q.Q.Q.Q.!.U.:.-.q.q.>.J.4XqX/.A.S.S.W.S.n.o.M n                     ",
"                        b @.m.P.!.(.~.!.Q.(.eXdXfXeX8X(.'._.).'.'.'.).(.T.T.i.J.:.Y.qXwX).!.^.^.(.!.U.M.,.n                     ",
"                        v f.P./.~.~.~.~.!.~.).'.).8XeXdXdXdX0X0X0X0X0XdXwX0XsX6XW.U.`.4X^.~.^.^.~.!.!.P.d.v                     ",
"                        M N.R.'.^.~.~.~././.!.Q.Q.~.eXdX0XeX0XdX0XdX0X0XeXeXdXqX'.Q.Q.Q.~.~.~.~.~.^.'.R.N.M                     ",
"                    n X.#.Z.W.^.^.~./.~.~.~.~.~.~.~.'._.R.G.~.'.'.'.'.~.G.A.!.~.~.Q.Y.Q.^.^.^.^.(.~.^.Q.Z.@.X.n                 ",
"                    b @.N.S.Q.^.~.~.~.~.~.~.~.~.~.!.W.I.M.Z.W./.~.Q.I.I.E.E.4X6X8X7X7X4XQ.I.P.W.R.W.^.Q.S.m.d.n                 ",
"                N n n o.n.A.Q.~.~.~.~.~.~.!.~.~.~.W.A.A.R.!.!.~.^.W.1.G.uXjXjXCXjXAXAXpXG.;.<.m.V.S././.Z.,.O.n                 ",
"              t X.@.} X.n.S.Q.^.~.~.~.~.~.~.~.~.^.Q.B.B.W.'.^.Q.W.R.E.uXjXDXSXSXDXSXDXgX3XG.H.G.D.m.P.P.A.n.d.b                 ",
"            X t d.n.X.} @.S.Q.(.^.~.~.~.~./.~.~.^.W.B.B.W.^.^.W.<.R.sXAXAXCXCXSXAXCXAXCXiXaXgXuXG.<.V.m.C.m.#.n                 ",
"          q { a.I.S.X.b o.N.S.Q.~.^.~.~.~.~.~.~.W.I.M.Z.Q.^.^.W.;.G.zXDXDXSXSXDXDXSXAXCXCXgXgXyXb.$.,.m.m.+.X.                  ",
"        @  .t.p./.R.f.b b X.,.A.R.^.~.~.~.~.(.W.Z.N.N.A.Q.^.^.W.<.G.zXSXAXAXAXAXCXAXAXAXAXCXhXrXj.b n.m.#.n                     ",
"      l $.q.y.p.T.T.I.h.+.o.o.@.S.R.~.^.(.~.Q.Z.o.m m O.Z.W.Q._.5XuXDXjX3Xb.oXoX.X=XkXAXDXjXhXrXZ i f.+.}                       ",
"    X ..0.w.w.w.u.p.].R.I.@.X.} d.A.Q.^.^.R.Z.d.Z f f Z @.C.U.8XjXDXDXuXl.. + + . l.iXDXAXCXhXrXk.i N M                         ",
"    % z -.q.w.w.9.Y.7XqX^.A.o.m @.C.A.S.U.Z.o.z.=XrX3XoXZ $.I.9XlXZX3X|.OX}.$ s |.tXZXSXAXCXhXrXz.r v                           ",
"    $ i ' -.q.0.=.D.eXdX'.I.g.M n.B.B.M.<.@.i k.zXDXCXrXj.s.I.9XlXiXu d nXnXg s cXKXZXCXAXAXhXrXz.8                             ",
"    $ l &.=.' ..$.Z.).8XW.M.X.X.@.A.P.P.C.#.q z.zXAX5X&X-X;XD.E.jXiX8 s mXHXh % |.vXZXSXAXCXCXyXz.w                             ",
"    $ i ' ' 9 t @.S.W.U.Z.@.M X.,.A./.^.I.h.i k.zXgX%XH.pXpXG.G.jXzXz. XUXJXS . k .XiXSXAXCXpX-Xz.r                             ",
"    w w 8 l c $.m.C.S.S.C.n.M M @.S./.(./.S.u l.iXpXH.%XpXjX_._.kXjXuXNXPXKX X. o k.iXDXSXCXaX-Xz.r                             ",
"    w w w l ` ;.<.N.n.,.N.d.o.o.,.A.P.~.^.I.g.s.=XrX%X&XgXjX).).kXSXAXGXPXJXk.= o Z iXDXAXgXyX%Xj.t                             ",
"    * i z ` &.*.#.O.+.o.o.o.,.N.m.M.C.C.Z.C.N.f.s.k.%XyXpXpX(.`.kXDXAXAXGXiXA & & A uXDXCXuX-XF.g.t                             ",
"    % l =.:.-.*.m B n n v o.N.C.M.M.m.m.n.m.J.n.z A *XyXyXuX4X6XjXAXAXAXDXpX%Xc.c.;XpXCXpXyX%XA Z t                             ",
"    @ ..e.w.:.&.        n d.N.C.M.M.M.m.m.V.M.m.<.D.&X5X5XyXaXpXjXAXAXAXAXCXhXhXgXgXgXpXuX-Xc.u                                 ",
"    # m :.q.;.c           X.d.N.n.N.m.B.M.M.m.M.m.H.&X-X-XrXyXaXZXAXjXCXCXCXCXCXCXhXuX-X-Xx.Z                                   ",
"    $ v &.=.m *             } O.X.+.m.C.M.V.V.M.F.F.F.H.-XrX5XyXaXpXpXgXgXpXyXyXrX5X&XF.c.f                                     ",
"      9 z z 8                 n v M #.,.%.' ` f.x.*X*X%X%Xx..X%X;X=X=X=X;XoXx.c.x.x.c.A u                                       ",
"        8 w                         M ..z x x g.#XcXcX+XS u Z f f f f f f f f f f f Z f                                         ",
"                                    f k..X#XtXMXJXmX#X/ 0 5 : 0 x ' ` N.oX=X=X*XoX.XZ r                                         ",
"                                    g $XvXKXIXPXPXFXXXG T P F 0 ' :.q.].lXDXDXlXkX5Xz.8                                         ",
"                                  {.}.cXKXIXIXJXbXXXR Q xXBXcX+XOXH.i.p.].wXwXwX9X`.M.' i                                       ",
"                                g |.OXnXIXPXKXvX( T ! <XUXPXHXnXcX=XU.w.u.u.u.u.y.q.-.' l $                                     ",
"                                h |.+XvXHXUXIXUXBXBXFXFXxXxXXXXXXXL.a.9.r.r.r.7.7.{ _ q i *                                     ",
"                                g }.+XvXnXJXIXPXIXPXPXUXL.T 1 G ! ~ ! ! ! ! ! E L F 1 > e w                                     ",
"                            ; : ; / @XmXUXIXsX).2X2X,X>X) < F F J J J H F F F F F < > ;                                         ",
"                            - , < ( bXIXPXLX9Xq._ H E E 0 0 U [ W ] [ W U U I U 4 < > ;                                         ",
"                            - 5 T K.KXIXLXAXjX6X<._ _ b ' =.0.w.q.e.t.t.t.t.w.;.U G 1 >                                         ",
"                            O K E <XLXPXGXjXDXgXE.#.Z v ..=.0.0.0.q.u.u.u.y.y.0.{ ] _ 0                                         ",
"                            O 4 E <XUXPXGXAXSXCXuX%XA t q 0 U I 0 { w.w.0.` [ { 0.q.=.c 9 .                                     ",
"                            O 0 Y K.JXIXZXpXhXaX:Xx.Z e 4 1 < < > U 9.0.=._ F Q ~.`.G.F.k.g                                     ",
"                        : ; - , H v.bXJXaXyXuX-Xc.f y 4 K L K K H Y 5.6.6.3.T ( tXmX@X#X#X$XS g                                 ",
"                      - : , ; , F ( nXnX%Xc.b.z.f 5 4 H L R R E W E ! ~ ^ ~ Y v.BXUXHXmXmXcX@X{.[.                              ",
"            h h [.j 7 - - : , 4 G ( bXnXk.9 Z u y 4 K Y P R ~ 4.3.3.3.3.3.3.! >XUXPXPXIXJXnXcXOX{.g                             ",
"          {.$X$Xh 7 5 > > , 4 H Y K.HXJX@X Xh d 5 1 H P K R 5.6.4.4.4.3.5.3.! K.BXIXIXUXHXnXvX@X+X}.{.                          ",
"        j |.@XOXd ; , 2 2 4 K R E K.LXPXJXvX|.d 6 < , 4 K R W 6.4.3.3.4.3.3.~ L.bXHXHXmXHXmXcX@XcX+X}.g                         ",
"          {.|.OX$X/ g 6 G H T E E K.LXPXPXJX$Xd 6 < , 4 K Y E W 3.4.4.3.~ L.<XFXKXUXKXUXIXKXmXvXvX@X$Xj                         ",
"            g }.@X@X}.j ) Q Q 8.^ >XUXPXPXKX$Xs 6 < 2 4 K Y L Y W 4.4.4.! >XUXPXPXPXPXPXPXIXJXnXvXOX}.g                         ",
"              S |.+X+XcX1XVXFXFXFXLXIXIXmX#X/ 6 5 G 2 4 H K T Y E ~ 6.6.4.<XPXPXPXPXPXPXPXIXHXvX@X}.{.                          ",
"                g [.OXvXmXKXPXPXPXPXKXvX}.s 5 < 2 5 4 4 , 4 P T L R ~ 3.! K.LXPXPXPXPXIXJXnXvXOX[.g                             ",
"                                                                                                                                ",
"                                                                                                                                ",
"                                                                                                                                ",
"                                                                                                                                "
};
