/* XPM */
static char *_3d5ac1b5daa4ba5f720c2263a531ea8ZRD7F6EGly5eOheH[] = {
/* columns rows colors chars-per-pixel */
"64 64 238 2 ",
"   c None",
".  c #4A3723",
"X  c #59381F",
"o  c #004600",
"O  c #044D00",
"+  c #055800",
"@  c #145800",
"#  c #006C00",
"$  c #066600",
"%  c #186300",
"&  c #197501",
"*  c #007600",
"=  c #246801",
"-  c #287A01",
";  c #327E00",
":  c #2D6C12",
">  c #2E5E1A",
",  c #5D4D1E",
"<  c #6B561B",
"1  c #665015",
"2  c #4F4324",
"3  c #746328",
"4  c #717221",
"5  c #6A6F1E",
"6  c #5C5C5E",
"7  c #4E7651",
"8  c #5E5E61",
"9  c #6A6A6C",
"0  c #656566",
"q  c #747476",
"w  c #6F6F71",
"e  c #8D6900",
"r  c #9B7600",
"t  c #90761C",
"y  c #A57D02",
"u  c #A07E1A",
"i  c #886A29",
"p  c #8F722D",
"a  c #8D7027",
"s  c #91742E",
"d  c #96782A",
"f  c #9B7D32",
"g  c #967C34",
"h  c #8D7331",
"j  c #298400",
"k  c #338200",
"l  c #3C8B02",
"z  c #398800",
"x  c #3A9600",
"c  c #2E9900",
"v  c #2E9400",
"b  c #428C00",
"n  c #439300",
"m  c #4B9500",
"M  c #4D9B00",
"N  c #439E00",
"B  c #529D00",
"V  c #478C15",
"C  c #47A300",
"Z  c #54A200",
"A  c #5AA400",
"S  c #5CA802",
"D  c #59B100",
"F  c #63AC00",
"G  c #6AAF00",
"H  c #6CB300",
"J  c #6EBA00",
"K  c #71B600",
"L  c #75BB00",
"P  c #79BE00",
"I  c #579935",
"U  c #749A22",
"Y  c #75C500",
"T  c #7DC200",
"R  c #7CCA00",
"E  c #7EC20F",
"W  c #7EC210",
"Q  c #7FC126",
"!  c #588652",
"~  c #699A5B",
"^  c #6FA653",
"/  c #6B8E67",
"(  c #7EA870",
")  c #938612",
"_  c #AB8506",
"`  c #B38905",
"'  c #A98516",
"]  c #9E8133",
"[  c #9D8538",
"{  c #9C842A",
"}  c #A4852B",
"|  c #A38434",
" . c #AC8D3A",
".. c #A78A38",
"X. c #AD923A",
"o. c #B3943B",
"O. c #BC9C3D",
"+. c #B59438",
"@. c #B39033",
"#. c #BEA13B",
"$. c #C69B0B",
"%. c #D6AB05",
"&. c #DCB700",
"*. c #D2A817",
"=. c #E8BD09",
"-. c #C09F3B",
";. c #C09C2F",
":. c #C4A23D",
">. c #C7A637",
",. c #D4B537",
"<. c #D2AF2D",
"1. c #E8BF25",
"2. c #81C500",
"3. c #86CA00",
"4. c #8ACE00",
"5. c #8CCF0B",
"6. c #8DD100",
"7. c #8DD00B",
"8. c #90D30A",
"9. c #8BCB2F",
"0. c #DEC705",
"q. c #E9C504",
"w. c #FCD800",
"e. c #FADA1C",
"r. c #EDCC0E",
"t. c #FEE803",
"y. c #FDF703",
"u. c #F5EA15",
"i. c #DFC83D",
"p. c #EDC92F",
"a. c #EBE122",
"s. c #B89B42",
"d. c #AA8E41",
"f. c #BCA144",
"g. c #A79577",
"h. c #AC936C",
"j. c #88B072",
"k. c #948C5F",
"l. c #C3A442",
"z. c #C7A946",
"x. c #CBAC45",
"c. c #CCAE49",
"v. c #C6A847",
"b. c #CFB14B",
"n. c #CDB143",
"m. c #D1B34C",
"M. c #D6B947",
"N. c #CEB559",
"B. c #D5BB52",
"V. c #D5BA57",
"C. c #CCAC50",
"Z. c #D4BB64",
"A. c #C09F41",
"S. c #92C953",
"D. c #99CB67",
"F. c #9ED16B",
"G. c #A2D272",
"H. c #A7D679",
"J. c #A1D26F",
"K. c #DBC45B",
"L. c #DECA5D",
"P. c #DAC257",
"I. c #DAC140",
"U. c #E1CE5E",
"Y. c #E1C855",
"T. c #E1D05C",
"R. c #DDCC63",
"E. c #D8C564",
"W. c #DFD168",
"Q. c #E0CE64",
"!. c #E0CE69",
"~. c #E3D465",
"^. c #E5D66A",
"/. c #E6D96C",
"(. c #E8DB6E",
"). c #ECD862",
"_. c #E9DD72",
"`. c #EADE7B",
"'. c #E6D875",
"]. c #ECE17C",
"[. c #EDE175",
"{. c #807E82",
"}. c #88878B",
"|. c #939296",
" X c #959398",
".X c #99989C",
"XX c #8F9292",
"oX c #AC9D87",
"OX c #93AC8F",
"+X c #99A59A",
"@X c #8BAA83",
"#X c #B5A386",
"$X c #B0B49C",
"%X c #9E9AA2",
"&X c #9FA6A3",
"*X c #A6A9A6",
"=X c #A9B5A9",
"-X c #AEAEB3",
";X c #B5B5B9",
":X c #B0B1B4",
">X c #C8B38D",
",X c #ACD982",
"<X c #AACB8F",
"1X c #B8C3B4",
"2X c #E9DD87",
"3X c #EADE90",
"4X c #ECE283",
"5X c #EEE58B",
"6X c #EFE696",
"7X c #F1EA94",
"8X c #F3ED9C",
"9X c #F1E98C",
"0X c #C5CFBC",
"qX c #F5EEA0",
"wX c #F6F1A4",
"eX c #F9F5AB",
"rX c #F8F3A7",
"tX c #BCBBC1",
"yX c #C3BBC5",
"uX c #BEC1C6",
"iX c #CBCACE",
"pX c #C5C5C9",
"aX c #D2DDCD",
"sX c #CECBD3",
"dX c #CAC6D1",
"fX c #D2CED7",
"gX c #D6D8D7",
"hX c #CDD3CA",
"jX c #DBD8E2",
"kX c #EDEAE6",
"lX c #E8E7EB",
"zX c #F1EDE8",
"xX c #F2FBEB",
"cX c #F9F6FC",
"vX c #FEFEFE",
"bX c #F5F4F7",
"nX c #EFEEF3",
"mX c #E1E6DB",
/* pixels */
"                                                                                                                                ",
"                                                                                                                                ",
"                                                      s s s s s s s s p s p s                                                   ",
"                                                    f O.o.o.o.@.o.o.o.o.o.O.@.|                                                 ",
"                                          s s s i a @.>.-.:.-.l.l.-.l.l.-.l.>.} i i s s s                                       ",
"                                        f ..O.@.o.A.N.E.V.M.B.B.B.B.B.M.B.V.E.N.f.o.@.O.|                                       ",
"                                  s p i | -.:.;.n.L.3X8X2XU.Q.~.!.!.!.Q.Q.`.8X2XK.x.;.>.O.] i a s                               ",
"                                  | s.s.c.m.K.Z.'.4X8XqX4X(.(.(.(.(.(.(.^.9XqX8X`.'.E.V.B.v.s.f.|                               ",
"                              i ] +.B.L.R.L.`.6XqXqX5X[.'././././././././.(.`.7XwXqX6X'.L.R.E.b.+.f i                           ",
"                              f v.b.L./.[.].7XeXeX8X4X~.~.^././././.^././.~.~.4X8XeXeX7X[._.^.L.c.l.f                           ",
"                          i f +.b.L.~./.].8XwXrX7X(./.^.^././././././././.^.^./.`.7XrXrX8X].~.^.K.m.@.g                         ",
"                          f l.m.L./.(.~.5XrXeXrX7X'./././.^./.^.^./.^.^./.^.^./.'.7XrXeXrX4X)./.~.K.m.A.f                       ",
"                        ] +.m.R.~./.^.~.5XrXeXwXwX6X].~.~.~.~.~.~.~.~.~.).~.~.].8XrXrXeXrX4X~.^.^.^.K.c.o.f                     ",
"                      s o.:.B.~.[./.^.^.2X8XwXwXeXeX7X`.`.`.].[.`.].`.`.`.`.`.7XeXeXwXwX7X`.^./.(._.Q.B.:. .s                   ",
"                      i | O.m.!._././././._.7XeXeXeXqX8X8X8X8X8X8X8X8X8X8X8X8XwXeXeXeX6X_.(./././.(.Q.m.O.f i                   ",
"                      f o.c.P.~././././.~.~.].8XqX8XwXeXeXeXeXeXeXeXeXeXeXeXeXwX8X8X8X`.~.^./././.(.~.B.c.X.f                   ",
"                    f @.c.K.^.^./././.(././.`.].`.`.7XeXeXeXeXeXeXeXeXeXeXeXeX7X`.].].`././././././.^.^.P.x. .f                 ",
"                  p  .x.B.!.(.(././.^.~.R.~.R.L.T./.5XqXqX8X8X8X8X8X8X8X8XqX8X5X~.T.L.U.~.W.W.^./././._.Q.m.:...s               ",
"                  s | A.m.Q.(././._.~.V.x.n.n.m.L./.].].].].`.].].`.].].`.4X].[./.K.b.x.n.x.B.W._././.(.R.m.O.]                 ",
"                  s | A.m.!.(./.^.^.K.b.V.Z.N.b.P.~.R.~.~.~.~.~.~.W.~.~.~.Q.T.~.Q.P.b.V.Z.N.B.L.^././.(.R.m.O.f                 ",
"                  s | -.m.Q.(.(.^.P.B.L.`.6X2XQ.B.b.m.V.W.(.'.'.~.W./.[./.Q.B.b.b.P.L.5X6X`.L.B.V.^._./.R.b.O.f                 ",
"                  s | -.m.Q.(.(.R.f.c.^.5XwX8X].R.m.:.>.P.).L.R.[.`.R.T.).P.>.:.B.R.4X8XwX4XW.z.v.!._./.R.b.O.f                 ",
"                  s f -.m.~.[._.E.X.f.W.[.].7X8X5X~.x.$.p.p.%.N.8X6Xc.*.p.p.$.b./.9XqX5X[.[.R.s.o.R.[._.Q.b.O.f                 ",
"                  s ..A.m.U.^.(.E.[ ..E.).~.4XwX5XT.,.%.w.t.0.M.3X2X,.q.w.w.%.,.W.5XwX4XQ.~.E.| ..R._.W.K.m.-.f                 ",
"                  s o.v.m.m.V.^.E.[ [ m.Q./.].].Q.<.q.w.t.y.y.a.b.M.a.y.y.t.w.&.,.R.4X[.^.L.c.f d.R.^.V.m.m.x.| s               ",
"                    f o.x.l.m.^.R.d.{ O.b.!.~.T.:.` %.w.t.y.y.y.&.0.y.y.y.t.w.%.` n.~.~.R.b.o.} s.!.~.c.:.v.o.f                 ",
"                      | o.-.m.^.W.c.@.] o.B.P.B...1 ` &.&.q.w.t.y.t.t.w.&.&.&._ 1 d.B.P.m.X.| o.N.^.~.m.:. .]                   ",
"                      i ..l.m.U.W.K.v.....-.:.O.] 3 u ` _ ` %.r.u.u.0.%.` _ _ t 3 | :.l.s.| ..c.K.W.R.m.O.| i                   ",
"                      s o.v.m.m.P.~.R.v.o.| f ] o.f.] 1 , < 4 t U ) t i < , < ..f.o.f f | o.c.R.Q.V.m.m.x. .p                   ",
"                        f s.x.x.m.R.Q.m.#.| f ] s.v.] . , < 2 . X X . 2 < , 2 [ x.O.] f ..:.B.~.R.b.>.x.o.f                     ",
"                          | A.x.B.B.b.b.x.l.l.l.o.| p i ' ' a a u u a a _ d i h | o.l.l.l.x.b.m.B.m.c.l.]                       ",
"                          i f s.x.z.x.x.c.b.m.b.s.] [ X.*.%.@.@.%.%.@.+.%.*. .[ | O.b.b.m.c.x.x.x.x.o.g                         ",
"                              } s.x.m.x.c.n.b.b.z.l.f.x.r.r.,.>.1.=.x.,.r.1.v.l.l.v.x.m.b.x.x.m.x.O.]                           ",
"                              3 | O.x.x.x.l.x.x.b.b.v.x.e.e.M.M.e.e.I.I.w.e.l.C.c.b.x.v.l.x.c.v.O.] 3                           ",
"                              > 4 f O.b.l...+.x.b.x.d.X.a.u.,.M.u.u.V.I.t.a...s.n.b.n.o...z.x.O.g 5 =                           ",
"                              O : 4 | :.@.a  .n.m.x...{ w.u.i.M.u.u.M.I.y.r.s d.b.m.x...d +.:.{ 4 = O                           ",
"                          @ @ $ ; V ) ) y e ' m.m.x...{ q.t.I.M.e.e.M.,.t.0.g d.b.m.x.` e r ) U V - $ +                         ",
"                          O % - z C U k.h.g.h.:.>.>.{ u %.=.<.>.q.=.>.<.q.%.t | O.>.:.h.g.h.k.U C z - % O                       ",
"                          o = ; Z L D.=XyXiX$Xr r r e e r _ r _ $.$.y r y y e e r r } $XiXyX$XS.J M - % o                       ",
"                          O - B J R S.=XdXgXyXg.g.#X#X#XoXoXoX#X>XZ.#XoXoX#X#X#X#Xh.g.pXjXuX+XS.T J B = O                       ",
"                        @ + z H 3.3.Q ^ OXuXiXiXmXzXzXkXkXkXkXzXzXzXkXkXkXkXkXzXzXgXiXsXtXOX^ Q 4.3.G ; + @                     ",
"                      @ % # b P 6.5.E x ~ +XpXgXnXvXvXvXvXvXvXvXvXvXvXvXvXvXvXvXvXnXgX;XOX~ N Y 5.6.P z # @ @                   ",
"                      O @ $ z P 6.6.Y B l ! .XpXgXlXcXvXvXvXvXvXvXvXvXvXvXvXvXbXlXjXpXXX! V A T 4.6.K k + @ @                   ",
"                      @ % $ m P 6.6.P S j # / +XtXgXlXcXcXcXvXvXvXvXvXvXcXcXcXlXsX;X&X! # j S T 4.4.L n $ % O                   ",
"                      o % k A T 4.6.P A j & : ! +XiXjXnXlXlXcXvXvXvXvXcXlXlXnXjXpX.X! : & z S T 6.4.P B ; @ O                   ",
"                      o = l F T 4.4.P A l : * * / =X1XpXiXgXlXbXbXbXbXlXgXpXpX1X&X~ * # - l S T 4.4.T F l = o                   ",
"                      o = b F T 6.4.P Z k & j V ! ^ ~ j.=XdXsXfXsXfXfXiXpX=X( ~ ~ I x - & z S Y 4.4.P F l @ o                   ",
"                      o % k A T 6.4.E F n k l Z S C C Z @X*X&X+X+X.X+X*X*Xj.M N Z Z Z l k V H R 4.4.P B ; % o                   ",
"                      o @ $ m 2.4.4.3.2.G m n B G T 2.P ^ ~ ! 7 ! 7 7 ! ~ ^ P T T G B n B K 3.4.4.6.P b $ @ o                   ",
"                      > $ $ z H 3.3.4.6.P A n B K 4.8.3.J M l j j j j l C L 4.8.4.H m n A P 4.4.4.3.G ; $ % >                   ",
"                    9 7 # # ; B K 3.4.4.L m n M K 4.4.4.2.P P L P P L P T 2.3.4.3.H M n B P 4.4.2.H m - # $ 7 9                 ",
"                  }..X/ & - ; ; B 2.4.4.P F B B H 4.4.3.4.4.4.4.7.5.6.6.4.4.4.4.3.H m B G P 4.4.T B k - & - /  X}.              ",
"                w %X-X( x x l & m 2.4.4.3.T F m H 4.4.4.3.4.3.4.4.4.3.4.4.3.3.4.4.G m G 3.3.4.6.P b & b x n @X;X.X9             ",
"              {.|.-X=X( M S A ; b K 3.3.4.6.P F H 2.2.4.3.3.3.4.3.3.3.3.3.3.4.2.T H S T 6.6.3.2.H l k F A M j.:X-XXX{.          ",
"            q .X-XOX^ I M L P B b B H 4.6.6.3.T G A L 4.4.3.3.3.3.3.4.3.3.4.4.K A H 2.3.4.6.3.G m b B P L M I ^ +X-X Xq         ",
"            q ;XtX@Xc N F 3.3.H S B F P T T 3.4.K A L 4.4.3.3.3.4.4.3.3.3.4.4.K A L 4.3.P T P F B F K 4.T S x c OXtX-Xq         ",
"            {.-XtX@Xc D Y Y R R W T L S Z Z H 3.3.T 3.4.3.3.3.3.3.3.3.3.3.3.3.2.T 3.3.H Z B F L E W R R Y Y D x OXtX-Xq         ",
"            q .X-XOX^ D.G.G.F.9.4.6.T S M Z J 3.4.3.3.R 3.3.3.R 2.3.3.3.3.3.3.3.3.4.R H Z M D T 6.6.9.D.G.G.D.^ +X-X Xw         ",
"              {.|.*X:XhXaXgX0XS.Y R T Y J Y Y Y Y Y Y Y Y Y Y Y Y Y Y Y Y Y Y Y Y Y Y Y Y J Y T R R J.hXgXaXpX=X*XXX{.          ",
"                w .X;XdXgXjXaX<XS.F.G.G.G.J.H.,X,X,X,X,X,X,X,X,X,X,X,X,X,X,X,X,X,X,X,XH.J.G.G.G.D.S.<XfXjXfXdX;X|.0             ",
"                  }..X.X*XtXpX;X1XhXaXaXaXaXlXxXxXxXxXxXxXxXxXxXxXxXxXxXxXxXxXxXxXxXxXmXaXaXaXaXhX1X1XpX;X*X%X X}.              ",
"                    w 8 w %X-X-X;XdXfXsXdXsXjXnXcXcXcXcXcXcXcXcXcXcXcXcXcXcXcXcXcXcXbXjXdXsXfXfXpX;X-X-X X9 8 9                 ",
"                          }.XX}.XX|. X|.|.|..X*X;XsXsXiXsXiXiXsXpXiXiXiXiXsXiXsXdX;X%X.X|. X|. X|.}.}.XX}.                      ",
"                          w q w w 9 0 9 9 0 8 8 XX:X:X:X-X-X-X:X-X-X:X:X:X:X:X:X-X}.6 6 9 9 9 0 9 w w q w                       "
};
