/* XPM */
static char *_9390e7977054076f943438a21b50820u3UhnqSyQUX8MeTn[] = {
/* columns rows colors chars-per-pixel */
"64 64 221 2 ",
"   c None",
".  c #000003",
"X  c #00002B",
"o  c #1B192B",
"O  c #000032",
"+  c #000D34",
"@  c #000A3A",
"#  c #00053A",
"$  c #001B39",
"%  c #001537",
"&  c #1D1B30",
"*  c #320038",
"=  c #320B35",
"-  c #00243D",
";  c #00293E",
":  c #0D2A3E",
">  c #19293E",
",  c #21212E",
"<  c #2C2D3B",
"1  c #242737",
"2  c #332B3D",
"3  c #38283C",
"4  c #2E303E",
"5  c #40263C",
"6  c #012C41",
"7  c #052942",
"8  c #162E41",
"9  c #003342",
"0  c #0E3344",
"q  c #0D3448",
"w  c #123343",
"e  c #1B3342",
"r  c #1A3849",
"t  c #282E40",
"y  c #233242",
"u  c #2C3343",
"i  c #273849",
"p  c #323443",
"a  c #3A3542",
"s  c #323A46",
"d  c #333748",
"f  c #353949",
"g  c #3B3C4C",
"h  c #393847",
"j  c #413644",
"k  c #4B3544",
"l  c #453844",
"z  c #4C3C47",
"x  c #5A3C4A",
"c  c #5A3A46",
"v  c #512C42",
"b  c #673849",
"n  c #733748",
"m  c #32454C",
"M  c #324A4C",
"N  c #324047",
"B  c #2F4A55",
"V  c #2E4C58",
"C  c #354452",
"Z  c #2D535E",
"A  c #335B53",
"S  c #33514E",
"D  c #33695A",
"F  c #34715E",
"G  c #2C5B64",
"H  c #2C5763",
"J  c #347A63",
"K  c #256774",
"L  c #286D73",
"P  c #23757D",
"I  c #25797D",
"U  c #0A5E54",
"Y  c #56444C",
"T  c #45485B",
"R  c #564A4F",
"E  c #6B434A",
"W  c #684347",
"Q  c #734549",
"!  c #7C4A4A",
"~  c #7A464B",
"^  c #644951",
"/  c #6A5958",
"(  c #795957",
")  c #79484F",
"_  c #4F5267",
"`  c #53576A",
"'  c #575A72",
"]  c #5E6376",
"[  c #8A374B",
"{  c #96384D",
"}  c #A6364F",
"|  c #AF3A51",
" . c #AF3750",
".. c #BA3752",
"X. c #B33A51",
"o. c #BD3A53",
"O. c #B13651",
"+. c #C33C54",
"@. c #834C4B",
"#. c #874C4C",
"$. c #93544E",
"%. c #9A544E",
"&. c #865A56",
"*. c #9A5A51",
"=. c #8D4D50",
"-. c #A2564E",
";. c #A9594F",
":. c #A35B51",
">. c #AA5E52",
",. c #AF5055",
"<. c #B6545A",
"1. c #896459",
"2. c #876259",
"3. c #97675A",
"4. c #9D705F",
"5. c #AE6C5B",
"6. c #A46457",
"7. c #B36F5D",
"8. c #B36456",
"9. c #AF715F",
"0. c #8A6762",
"q. c #996A64",
"w. c #9C7261",
"e. c #9E7B66",
"r. c #A26E68",
"t. c #AC766D",
"y. c #AC786E",
"u. c #A47664",
"i. c #BA7C66",
"p. c #B57762",
"a. c #B47D72",
"s. c #CB4A58",
"d. c #C44356",
"f. c #D14B59",
"g. c #D9565D",
"h. c #DC595E",
"j. c #D5595D",
"k. c #C6575A",
"l. c #E45E61",
"z. c #EB5E62",
"x. c #E56162",
"c. c #E96463",
"v. c #E96C66",
"b. c #F36766",
"n. c #EC7B6D",
"m. c #EB7369",
"M. c #E0575E",
"N. c #358B6C",
"B. c #29867E",
"V. c #2D917E",
"C. c #319A7D",
"Z. c #349876",
"A. c #36926F",
"S. c #36A57C",
"D. c #36A97E",
"F. c #38AA7C",
"G. c #BE836B",
"H. c #B5836B",
"J. c #BA8679",
"K. c #AA8B7A",
"L. c #C1846B",
"P. c #C38A6F",
"I. c #C48377",
"U. c #C58D71",
"Y. c #C88977",
"T. c #C79073",
"R. c #CB9274",
"E. c #CD9C7C",
"W. c #CC9778",
"Q. c #D49878",
"!. c #F29479",
"~. c #F3977A",
"^. c #F08B74",
"/. c #1F7F85",
"(. c #227C81",
"). c #656884",
"_. c #696D8A",
"`. c #626680",
"'. c #6D718E",
"]. c #717593",
"[. c #6D7090",
"{. c #248382",
"}. c #278A82",
"|. c #2B9181",
" X c #37AC81",
".X c #37B082",
"XX c #7B8398",
"oX c #BE9A86",
"OX c #B69482",
"+X c #8893A5",
"@X c #9AA8B5",
"#X c #838E9B",
"$X c #DA9584",
"%X c #C49F8A",
"&X c #E49C8A",
"*X c #E99D8B",
"=X c #E29887",
"-X c #CDA288",
";X c #D4A789",
":X c #D5AC94",
">X c #DCB590",
",X c #DEB892",
"<X c #DBB198",
"1X c #D5AD8F",
"2X c #E9A28E",
"3X c #ECAB94",
"4X c #EDA993",
"5X c #E6B899",
"6X c #F3B49B",
"7X c #F9B79D",
"8X c #F4AA94",
"9X c #ECBEA1",
"0X c #F7BCA1",
"qX c #FABDA1",
"wX c #FDC3A6",
"eX c #FAC6A8",
"rX c #FECBAC",
"tX c #F5C2A5",
"yX c #FFD0AF",
"uX c #FFD2B2",
"iX c #EFC0A3",
/* pixels */
"                                                                                                                                ",
"                                                                                                                                ",
"                                                                                                                                ",
"                                                                                                                                ",
"                                  f e 6 ; ; ; ;                                                                                 ",
"                                  f E <.<.<.<.k.~                                                                               ",
"                                  q #.b.v.M.M.z.=.                                                                              ",
"                                  r n z.h...} } b 6                                                                             ",
"                                  y b O. .| p 9 k n ) ) E y                                                                     ",
"                                      q 0 0 u 9 } l.z.c.k.6 h x x x x x x x x x x x x x x x                                     ",
"                                      j a h p 9 } +.[ 9 p u b c.c.c.c.c.c.c.c.c.c.c.c.c.c.b.=.q h                               ",
"                                  w @.z.l.X.k u j j 9 n +.X...o.o.x.z.^.n.n.~.~.!.!.~.c.c.c.l.c.,.; h                           ",
"                                  i b f.s.+.k u 6 { X.X.s.c.l.l.l.c.c.v.c.c.v.c.m.!.v.c.l.c.c.c.c.,.; h                         ",
"                                  f j b b b h 9 9 { +.o.o.f.v.c.c.c.x.c.x.c.l.m.^.!.^.c.^.m.c.c.v.l.<.; p                       ",
"                                  g d i y y y { { X.o.s.h.h.c.c.c.c.c.c.x.x.c.m.~.~.~.c.!.m.l.c.z.b.j.; p                       ",
"                          $ @             p w X.+.+...f.c.c.c.c.x.c.x.c.c.c.x.v.n.n.n.c.m.v.c.g.g.l.<.[ u d                     ",
"                        y 1.u.(           p w | o.o.o.s.v.c.v.c.c.c.c.c.c.c.x.c.z.l.l.c.l.c.c.g.h.l.s...e s                     ",
"                        - G.Q.q.7 y       p w | o.o.o.s.h.h.g.g.j.x.h.l.z.c.c.c.c.c.c.c.c.c.v.l.g.h.g. .e p                     ",
"                        - u.H.2.x c       p w X.+.o.o.o.o.d...d.d.c.s.h.c.c.z.c.c.x.c.c.c.c.v.f.d.+...X.e p                     ",
"                          - $ @.8.$.q p   p w | o.o.o.o.s.l.o.c.x.x.x.l.l.l.l.l.l.l.l.l.l.l.l.x.x.g...X.e d                     ",
"                          p w ! >.#.w p   p w | o.o.o.o.o.o.o.o...o.o...+.+.......o...o.o.o.o.o.....+.X.> s                     ",
"                          4 p 4 4 p p p   p w X.+.o.o.o.o.o.o.o.o.o.o.o.,.o.+...o.o.o.o.o.o.o.o.o.o.o.X.> s                     ",
"                      p & #X@XXXXX+X).).4 p s a w } { i k k k k k k k k k k k k k k k k k k k k k k k k s p                     ",
"                      p & +X@X#X#X@X'._.4 p w } X.o.+.[ 9 y $ $ $ $ $ $ $ $ $ $ $ $ $ $ $ $ $ $ $ $ - p p s                     ",
"                      p 2 ` ] _ _ ` T T 4 p u c n n n v O Y $XI.Y.I.I.I.I.I.I.I.I.I.I.I.I.I.I.I.I.Y.t.X p d                     ",
"                  p p p h , o , & o 1 4 p p y { c - X ( I.I.&X0XtX7XwXrXwXwXwXwX0X0XtXqXqX0XqXtXwXwX0XoX> p                     ",
"              p p h u < 1 _ ' ] ' ' ` 1 < p i [ v 1.t.I.2X&X&X6XrXyX-XK.OXOXK.-XyXrX6XrX6XrX:XOXoXOX-XeX$ p                     ",
"              g h f ` ` _ _.].].].]._.` ` p a 6 O J.6X6X3X6X3X3XeXyXoXd . / K.oXyXrX6XyX6XrX-XR . g %XtX$ p                     ",
"            p p < d ] ].].'.].] )._.] ).`.p < ( &.I.0XyXrXrXrXyXrXeXrXJ.E ;XuXyXeX:X:X:X:X:XrX-XE J.yXiX$ p                     ",
"        p g h f T T T '.'.'.].` ' ] a 1 < p - $X$X=X6XyXrXrXrXeXrXrX3X4X4X0XrXyX9XR / / / Y <XwX8X2X3XiX$ p                     ",
"        p d < T '.'.'.'._.'._._.'.'.] 4 u u ; $X^ t.6XrXeXrXeXrXrXrXrXrXrXrXrXrXrXrXrXrXrXyXrXrXrXrXrXiX$ a                     ",
"    p f h a h a a 2 2 4 2 2 4 j a 2 h j a a - $X&.J.*X=X3XeX&XrXrXeXrXrXrXrXeXrXrXeX&X&X$XtXrXrXrXrXrX9X$ s                     ",
"    p w @.:.-.-.:.:.:.:.:.:.%.:.:.:.:.:.:.:.> $X&X&X=X6XrXrXrXrXrXrXrXrXeXrXeXrXrXrXeXeXrXrXrXrXrXeXyXiX$ p                     ",
"    p 0 @.>.:.-.%.-.-.-.-.:.-.-.-.:.-.:.:.:.a Y ^ p t.2X2X2X2X&X$XeXrXrXrXrXrXrXrXrXrXrXrXeXrXrXrX0X2X$X- p                     ",
"    p w @.>.7.P.L.G.P.G.G.G.P.P.p.5.G.-.:.>.:.k % t.*X2X&X&X&XwXeXyXyXrXyXrXrXrXrXrXrXrXrXrXrXrXrXrX0XQ.6 h                     ",
"    s : @.-.-.p.R.U.U.T.U.T.p.5.:.:.5.:.%.W E j 8 ( 0.&.t.4X2X6X3X3X3X3X3X3X3X3X3X3X3X3X3X3X3X3X4X7X;X( u                       ",
"    d ; 3.G.H.G.U.U.U.U.U.U.i.p.H.p.%.>.:.< > 2 3 > - $ Y u.q.r.&X*X*X*X*X*X*X*X2X*X*X*X*X*X*X2XY.q.&.$                         ",
"    p 6 *.L.U.P.P.P.U.P.U.U.R.R.P.7.%.~ ! H H H G B p u ; $ - - t.y.y.y.t.y.y.y.y.y.y.t.y.y.y.a.( O 6 p                         ",
"    p 6 &.G.W.-XE.E.U.E.T.U.P.T.H.7.6.# 0 }.|.{.{.Z < c ! W u u % + + + % $ $ $ $ $ $ + + $ % 3 Q E y p h d                     ",
"    p 6 e.R.E.5X,X,XT.5XR.P.T.T.G.H.u.U D S.S.I (.Z > W *.#.e p B B V V f p p p p p p B V d e ! %.@.8 d V V                     ",
"    p 7 w.U.E.>X,X1XU.>XT.P.P.R.w.O U D.D.S.I B.(.Z 2 a l j p d {.{.{.}.Z 2 4 p p 4 a B.(.V u j l j u B }.{.C f                 ",
"    u 7 w.T.U.E.>XU.T.P.T.T.P.R.w.@ D D.S.S.S.D.}.Z > ! 8.*.w s S.S.F.D.J s N p p M m S.{.B - #.8.$.- S S.S.m h                 ",
"    p $ 4.R.E.5X,X,X,XU.>XE.P.R.w.@ A  XS.S.S.D.{.Z $ 1.W.i.- s S.S.S.S.S.S.N.* S D.S.S.{.B % 4.W.u.$ m (.S.m h                 ",
"    p 7 u.T.P.T.U.U.U.U.T.U.U.R.4.@ A D.S.S.D.D.}.Z $ 1.W.H.- s S.S.S. XD N.N.* A S.N S.{.B $ w.W.u.$ m (.S.m p                 ",
"    p - 3.;X;XR.>X>X>XU.U.U.U.R.4.@ A D.S.D.S M M s 6 2.W.H.- s S.S.S. XD J N.* A S.= D.{.B $ 4.Q.u.$ m (.S.m h                 ",
"    p - u.W.R.T.E.W.E.U.U.U.U.R.w.# D  XD. XS.M 2 a - 1.Q.H.- d I S.S.S.Z.Z.N.* M S.A.B.(.B $ w.Q.u.$ m {. XM h                 ",
"    p - 4.T.P.T.P.U.U.U.U.U.U.R.4.$ m F F F F N 4 p : ! 7.3.8 d Z.S.S.S.S.D.Z.N.A.S.S.C.{.B - $.7.*.6 h Z D d h                 ",
"    p - u.R.T.P.U.U.U.U.U.U.U.W.w.$ t O O O O < p p : ( L.5.; s V.B.S.S.S.S.D. XV.S.V.V.{.B - 1.i.3.6 u + O u f                 ",
"    p 6 1.L.T.U.U.U.U.U.p.P.i.i.&.- ^ r.r.q.r.Y u p ; &.L.9.: s P V.S.S.S.S.S.S.V.S.V.P (.B $ 3.L.3.- z r.r.l f                 ",
"    p 6 $.i.T.T.U.U.U.U.7.P.p.7.&.% 2.qX7X7XqX( 8 p 8 Q ;.$.e s P C.|.C.C.C.C.C.C.C.C.(.(.B : @.>.=.; ( 7X7XR f                 ",
"    p 6 4.P.G.G.U.U.U.U.T.L.L.P.4.5 0.9X5X5X9X/ > p y W %.@.y d L K K K K K L K K K K P L B > Q %.! - / 5X9XR u                 ",
"    p 0 @.%.%.9.T.U.U.U.T.5.>.:.:.8.$.X O O O t a p p a l j u p s f 2 2 2 < p s u s s P B p p h l h p t O O                     ",
"        y 7 2.R.P.U.P.U.P.U.T.p.-.:.$.p a p p p u p e Q >.$.e u P (.B p p 2 Z L f (.P P (.B : ! >.#.0 p p p                     ",
"        p r E >.:.:.:.:.:.:.:.:.:.:.:.:.:.a u p p p p p a p p p p p p p p p p p p p d p p p p a p a p p                         ",
"              z l l j l l l l l l l j l l p p p p p p p u p p p p p u p p p p p p p p p p p p p p p p p                         ",
"              g h f d d d f p f d d f f p p p p p p p p p p p p p p p p p p p p p p u p p p p p p p p p                         ",
"                                          p p p p p p p p h f f h h f h h f h f f h h p p p p p p p p p                         ",
"                                          p p p p p p p p p                           p p p p p p u h p                         ",
"                                          p p p p p p p p p                           p p p p u p p h u                         ",
"                                          p p p p p p p f p                           p p p p p p p f p                         ",
"                                          p p p p p p p p p                           p p p p p p p p p                         ",
"                                          p p p p p f u                               p p p p p f p                             ",
"                                          p p p p p p p                               p p p p p p p                             ",
"                                          p p p f                                     p p p f                                   "
};
