/* XPM */
static char *a55d3128389e4f20ef9176afe23304dfwFEFWxn0jBlpNhrS[] = {
/* columns rows colors chars-per-pixel */
"32 32 116 2 ",
"   c None",
".  c black",
"X  c #000009",
"o  c #02001C",
"O  c #0B0020",
"+  c #110624",
"@  c #120924",
"#  c #150F2B",
"$  c #171329",
"%  c #19142A",
"&  c #1D1A2D",
"*  c #221F2F",
"=  c #242333",
"-  c #31323F",
";  c #5C0000",
":  c #751C23",
">  c #69222F",
",  c #782225",
"<  c #7A2A2C",
"1  c #622830",
"2  c #333343",
"3  c #3B3D4A",
"4  c #3E414C",
"5  c #424552",
"6  c #464A55",
"7  c #4B4F58",
"8  c #4C515A",
"9  c #51555F",
"0  c #595A5F",
"q  c #525663",
"w  c #5A5E65",
"e  c #5A5E6B",
"r  c #465C72",
"t  c #5C616B",
"y  c #566976",
"u  c #586976",
"i  c #61646A",
"p  c #66696F",
"a  c #616572",
"s  c #656A74",
"d  c #666B79",
"f  c #6F7377",
"g  c #6B727C",
"h  c #717479",
"j  c #73787D",
"k  c #8D5400",
"l  c #80513F",
"z  c #916425",
"x  c #845847",
"c  c #A14342",
"v  c #A55B4B",
"b  c #AC5E51",
"n  c #8E6C4E",
"m  c #9F734B",
"M  c #867656",
"N  c #B66A52",
"B  c #BB6956",
"V  c #A3815B",
"C  c #9C8169",
"Z  c #9D9279",
"A  c #C89568",
"S  c #CFA272",
"D  c #D1A678",
"F  c #DEAC7B",
"G  c #6E7D8E",
"H  c #717783",
"J  c #767E86",
"K  c #7A7E82",
"L  c #737C8B",
"P  c #7B838C",
"I  c #6E8190",
"U  c #768691",
"Y  c #7B8691",
"T  c #838C96",
"R  c #868E9A",
"E  c #8C949C",
"W  c #959B9F",
"Q  c #8D96A1",
"!  c #8F98A4",
"~  c #929BA5",
"^  c #969FAA",
"/  c #96A1AC",
"(  c #9CA5AC",
")  c #9DA7B1",
"_  c #9DAAB4",
"`  c #A3A9AD",
"'  c #A2ACB6",
"]  c #A4AFB9",
"[  c #A7B0B6",
"{  c #AEB4B7",
"}  c #A6B1BA",
"|  c #AAB5BE",
" . c #B3BABE",
".. c #DDB986",
"X. c #ACB7C0",
"o. c #AFBBC3",
"O. c #B1BDC5",
"+. c #B3BFC8",
"@. c #B4C0C7",
"#. c #B5C2CA",
"$. c #B9C5CD",
"%. c #BECBD2",
"&. c #C1C9CC",
"*. c #C4CED3",
"=. c #C5D0D7",
"-. c #CAD3D7",
";. c #C7D3D9",
":. c #CBD6DB",
">. c #CED8DD",
",. c #D2DBDF",
"<. c #D3DEE2",
"1. c #D5DEE2",
"2. c #D5DFE4",
"3. c #D5E0E4",
"4. c #D6E0E4",
"5. c #DBE4E8",
/* pixels */
"                                p i 6 t                         ",
"                            h W 4.;.$.@.8                       ",
"            w (           j >.4.| o.[ 4                         ",
"          . >.[           &.>._ o.$.T                           ",
"        @ -.;.E           ! $. .o.#.!           = * & o         ",
"        * 1.X.#.Y     - P @.o.o.o.o.@.J -     ( 5.<.#.} &       ",
"        % o.o.o.$.P t #.O.o.o.o.o.o.o.@.#.t E >.| O.O.@.) =     ",
"        $ ] #.o.o.#.$.o.o.o.o.o.o.o.o.o.o.#.@.| o.O.] d H a     ",
"          t } O.o.o.| O.O.o.o.O.o.O.o.o.o.o.o.o.O.} e           ",
"            g #.o.o.o.o.O.| o.o.o.o.o.o.o.o.o.o.@.g             ",
"            s #.o.o.O.o.O.O.| | X.X.o.o.o.o.o.o.#.s             ",
"  i       - #.o.o.o.o.o.O.| $.=.=.$.| o.o.o.o.O.o.#.2           ",
"s 4.0     J O.o.o.o.O.o.| =.@.| | $.*.| o.o.o.o.o.O.P           ",
"4 %.*.{  .#.O.o.O.o.o.O.| / Z z k C _ | o.o.o.o.o.o.@.R } K     ",
"9 O.#.>.;.O.o.o.o.o.o.O.L M ..F D l ; U o.o.o.o.o.o.o.#.%.,.h   ",
"8 @.| | | o.o.o.o.o.O.| r V F A v b < y o.O.o.o.o.o.o.o.' 4.W   ",
"  H $.o.O.o.O.o.o.o.O. .r m S v N B : u | O.O.o.o.o.o.O.O.| <.s ",
"  2 ^ X.| O.o.o.o.o.o.| G n x b B c 1 U | o.O.O.O.o.O.X.| | >.t ",
"    5 H t ] o.o.o.o.O.O.O.I > , : 1 U O.O.o.o.o.o.O.' s e R O.8 ",
"          t @.o.o.O.O.| O.O.U y y Y O.O.o.o.o.O.| @.t     # / 9 ",
"          4 #.o.o.o.o.o.o.O.o.o.| O.O.| O.o.o.o.o.#.5       2   ",
"            t #.o.o.o.o.o.o.o.o.O.o.o.o.o.O.O.| $.t             ",
"            E +.o.o.o.O.o.o.o.o.o.O.o.o.o.O.o.o.O.E             ",
"          ` >.X.o.X.o.o.o.o.o.o.o.o.o.o.o.| o.o.| >.`           ",
"    P ) ! ;.| o.O.#.#.O.O.o.o.o.o.o.o.O.O.#.#.O.O.| ;.*         ",
"    w ^ #.o.O.@.] g s ~ ' O.o.o.o.o.O.' ~ s g ] O.O.| $         ",
"      . Y ! R ! d     & q ' O.o.o.O.' q *     t ] @.o.%         ",
"        O @ @ @           d | O.X.$.Q           d o.T o         ",
"                          e } O.O.#.R           L Y X           ",
"                        = Q O.O.} ^ 3           a 4             ",
"                      3 R ) / ^ q 3                             ",
"                        6 2 2 2                                 "
};
