/* XPM */
static char *_322c1580102494a8d9a3aa71cf5fe5fknsdxm0nZb22kPII[] = {
/* columns rows colors chars-per-pixel */
"32 28 140 2 ",
"   c None",
".  c black",
"X  c #000015",
"o  c #00001D",
"O  c #000024",
"+  c #00002C",
"@  c #00132F",
"#  c #001230",
"$  c #001A32",
"%  c #181E32",
"&  c #351A30",
"*  c #23242E",
"=  c #212232",
"-  c #262932",
";  c #333734",
":  c #451E31",
">  c #4E1F32",
",  c #4E2637",
"<  c #482E35",
"1  c #552936",
"2  c #542D38",
"3  c #5F2B38",
"4  c #4E3D3A",
"5  c #5C3236",
"6  c #56333A",
"7  c #5A3B3C",
"8  c #672033",
"9  c #692A36",
"0  c #6D3338",
"q  c #653C3C",
"w  c #6E3D3D",
"e  c #70303F",
"r  c #733D3E",
"t  c #6F423E",
"y  c #73403E",
"u  c #7A433E",
"i  c #713340",
"p  c #7B3641",
"a  c #763F43",
"s  c #7E3A42",
"d  c #7D4A43",
"f  c #735947",
"g  c #7E604C",
"h  c #786A56",
"j  c #97313D",
"k  c #883646",
"l  c #8D3C47",
"z  c #8C3948",
"x  c #933742",
"c  c #933942",
"v  c #983D43",
"b  c #923F49",
"n  c #824043",
"m  c #804D43",
"M  c #8B4D45",
"N  c #8D444A",
"B  c #844C48",
"V  c #964344",
"C  c #994042",
"Z  c #974748",
"A  c #91484C",
"S  c #9B4E4A",
"D  c #86534B",
"F  c #855B4A",
"G  c #93544D",
"H  c #955D4C",
"J  c #985551",
"K  c #A34C46",
"L  c #A5564C",
"P  c #AA574A",
"I  c #A6594D",
"U  c #AD5E4E",
"Y  c #B25A4C",
"T  c #AC5F50",
"R  c #8B664E",
"E  c #886A52",
"W  c #976350",
"Q  c #906F53",
"!  c #8E775C",
"~  c #8E785E",
"^  c #9D7759",
"/  c #907A5F",
"(  c #9E795A",
")  c #A7614E",
"_  c #AD624E",
"`  c #B2634F",
"'  c #A16656",
"]  c #AD6351",
"[  c #AD6A52",
"{  c #B36650",
"}  c #B86550",
"|  c #B46952",
" . c #B96E54",
".. c #BC7255",
"X. c #BB7658",
"o. c #C47758",
"O. c #C27A5B",
"+. c #A7825E",
"@. c #998364",
"#. c #958668",
"$. c #A38465",
"%. c #A88C6C",
"&. c #BD8B65",
"*. c #BC9066",
"=. c #AF9A78",
"-. c #B19E7B",
";. c #B3A17E",
":. c #C5815E",
">. c #C78561",
",. c #C88661",
"<. c #C48C65",
"1. c #C69067",
"2. c #CB9367",
"3. c #CC9669",
"4. c #C7986B",
"5. c #CB9A6C",
"6. c #D19467",
"7. c #D19D6D",
"8. c #CFA06F",
"9. c #D3A16F",
"0. c #D3A371",
"q. c #D9A773",
"w. c #DAA974",
"e. c #D8AA78",
"r. c #DCB07C",
"t. c #B9A580",
"y. c #DFBA87",
"u. c #D2B389",
"i. c #DEBA89",
"p. c #E0B784",
"a. c #E1BC8A",
"s. c #E6C38F",
"d. c #E7C591",
"f. c #E6C795",
"g. c #E8C693",
"h. c #E6C895",
"j. c #E6C996",
"k. c #E7CA97",
"l. c #E9C892",
"z. c #EAC994",
/* pixels */
"                                                                ",
"                                                                ",
"            + O O O O O O O O O O . o X . . . . . .             ",
"          5 W +.( ( ( ( ( ( ( ( ( =.$.%.;.-.;.;.t.t.h           ",
"          d O.<.0.w.w.w.q.w.w.0.q.d.e.a.z.d.l.d.u.g.@.          ",
"          d { S 1.3.3.3.3.3.3.3.3.2.3.3.3.2.3.<.Z <.R           ",
"          3 K { | | [ { | | | | | { | | { _ { | { | t           ",
"          % , z k 1 = i z k k k k k k z i - 2 k l 1 =           ",
"          1 V { ) < 9 v v v v v v v v v C 0 & V U ) q           ",
"          r ..6.2.B S  .` { ` { ` ` | ` Y c p | 2.6.F           ",
"          y O.0.8.J P X..... .Y  .{ U  .` c b X.0.y.!           ",
"          y O.9.5.G P ..| ..| P  .K j _ ` c l  .7.z.#.          ",
"          d X.0.5.J L .. . . ... .P K ` ` x l ..7.j.#.          ",
"          w O.9.8.G L X. . . ... . . ...` x l ..7.j.#.          ",
"          r O.9.5.G I .. . . . . . . ...` x l ..7.j.#.          ",
"          y O.9.5.G I o. . . . . . .P ` { c l ..7.e.E           ",
"          y O.9.5.G I .. . . . . . .{ | ` x l ..5.a./           ",
"          y X.9.5.J L ..|  . . . . . ..._ j b ..5.y.~           ",
"          d O.w.0.D I o...X...........o.} z s X.q.q.R           ",
"          q [ 1.&.4 u ` _ U T ] T T U ] L 8 : ] <.*.f           ",
"          = 6 A N 7 ; a N N N N N N N N d ; 7 N A 7 -           ",
"          r X.4.5.4.4.4.5.5.4.4.4.4.4.3.4.1.5.5.5.5.g           ",
"          m  .' 5.0.0.0.0.0.0.0.0.0.0.0.0.0.0.8.' 3.Q           ",
"          a Y T >.,.,.,.,.:.,.,.,.,.,.,.>.>.<.O.T >.F           ",
"          > n H M M M M M M M M M M M M M M M M H G 5           ",
"            $ O @ @ # @ @ @ @ @ @ @ # # # # # # O #             ",
"                                                                ",
"                                                                "
};
