/* XPM */
static char *b0a19803db5e4e86a36daf495c7e0f71EhRctYlYhr1pZFZi[] = {
/* columns rows colors chars-per-pixel */
"64 64 194 2 ",
"   c #001D2D",
".  c #121E2F",
"X  c #001D31",
"o  c #151E30",
"O  c #181F30",
"+  c #241B2F",
"@  c #2D1F31",
"#  c #341F32",
"$  c #01202D",
"%  c #0B222E",
"&  c #14212E",
"*  c #1A202F",
"=  c #23212E",
"-  c #2B232F",
";  c #32232F",
":  c #39242F",
">  c #272030",
",  c #332230",
"<  c #3B2231",
"1  c #471C34",
"2  c #4E1E35",
"3  c #551E36",
"4  c #671E3D",
"5  c #6C1D3E",
"6  c #751F3F",
"7  c #7A1C3D",
"8  c #422530",
"9  c #4C2532",
"0  c #432830",
"q  c #4F2831",
"w  c #562534",
"e  c #5A2335",
"r  c #552932",
"t  c #5D2834",
"y  c #463C3B",
"u  c #632536",
"i  c #6D2136",
"p  c #632A34",
"a  c #6A2B35",
"s  c #632239",
"d  c #6A253A",
"f  c #7D2737",
"g  c #752D36",
"h  c #7A2E37",
"j  c #74243C",
"k  c #7B233D",
"l  c #783036",
"z  c #741E40",
"x  c #7B1D42",
"c  c #7E2240",
"v  c #7D3143",
"b  c #921939",
"n  c #822934",
"m  c #84243D",
"M  c #8B253B",
"N  c #8B2B3C",
"B  c #94263D",
"V  c #9A263F",
"C  c #95283D",
"Z  c #9B293E",
"A  c #853238",
"S  c #8B3338",
"D  c #94333C",
"F  c #9C363C",
"G  c #A42234",
"H  c #A3353C",
"J  c #A3383D",
"K  c #AA3A3E",
"L  c #9E0049",
"P  c #821D45",
"I  c #8B1F41",
"U  c #8E1C48",
"Y  c #96144D",
"T  c #9D144B",
"R  c #921B4A",
"E  c #9A1A4D",
"W  c #A80147",
"Q  c #A5004A",
"!  c #A0174E",
"~  c #A21C4E",
"^  c #AB1E4C",
"/  c #B61947",
"(  c #A51B50",
")  c #832441",
"_  c #8C2344",
"`  c #852840",
"'  c #8A2C44",
"]  c #932344",
"[  c #9D2443",
"{  c #9B2E42",
"}  c #9B2449",
"|  c #953040",
" . c #9C3142",
".. c #A42644",
"X. c #AA2646",
"o. c #A52D46",
"O. c #AD2B41",
"+. c #A5224D",
"@. c #AA234D",
"#. c #AC294C",
"$. c #B22B43",
"%. c #BC2D45",
"&. c #B4254A",
"*. c #B8274B",
"=. c #B42C4C",
"-. c #BB294A",
";. c #A53343",
":. c #AC3742",
">. c #B43546",
",. c #B33B42",
"<. c #BB3B45",
"1. c #B73148",
"2. c #BE344C",
"3. c #BE3948",
"4. c #AB3F56",
"5. c #C11C45",
"6. c #CA1A43",
"7. c #CC2144",
"8. c #C32E46",
"9. c #CB2E46",
"0. c #C22C4A",
"q. c #C92F48",
"w. c #D22F4A",
"e. c #C73046",
"r. c #CF3147",
"t. c #C13F44",
"y. c #CB3C43",
"u. c #C2364C",
"i. c #CD3048",
"p. c #C5394B",
"a. c #CB3C4B",
"s. c #D23347",
"d. c #D23B46",
"f. c #DB3D45",
"g. c #D33149",
"h. c #D9324A",
"j. c #D03F4B",
"k. c #E23641",
"l. c #BF4042",
"z. c #AE4B50",
"x. c #B84353",
"c. c #BB5557",
"v. c #C44143",
"b. c #CB4245",
"n. c #CD4048",
"m. c #D34446",
"M. c #DB4447",
"N. c #D4424B",
"B. c #DE464A",
"V. c #DE4849",
"C. c #C24C55",
"Z. c #CC5257",
"A. c #D45F57",
"S. c #D45B58",
"D. c #E34145",
"F. c #EA4247",
"G. c #E34549",
"H. c #E44A4A",
"J. c #E94C4A",
"K. c #F14F4C",
"L. c #EB554F",
"P. c #E25B55",
"I. c #EB5D53",
"U. c #F35A52",
"Y. c #DD625C",
"T. c #EA6157",
"R. c #E2665E",
"E. c #EA6458",
"W. c #E6685B",
"Q. c #EA6B5D",
"!. c #EE6E5E",
"~. c #F06357",
"^. c #F46F5F",
"/. c #EE705F",
"(. c #CA6863",
"). c #D06D66",
"_. c #D17066",
"`. c #DD7B6B",
"'. c #E77766",
"]. c #EE7966",
"[. c #EF7E69",
"{. c #E3816E",
"}. c #F0846D",
"|. c #F1896F",
" X c #EE8572",
".X c #EB8A71",
"XX c #F28D74",
"oX c #F28E74",
"OX c #F39277",
"+X c #F59276",
"@X c #F69276",
"#X c #F89477",
"$X c #F5A68D",
"%X c #FAC4AC",
/* pixels */
"D.].+XXXXXXXXX+Xc.W L.}.OXXXXXXX.XOXXXXXXXXX.XOXXXXXXXXXOX+X_.L M.].OXOXXXXXOXoX.XXX+XXXXXXX.XXXOXXXXX+X{.} 9.!.XXXX.XOXXX|.$X%X",
"d.P.Q.Q.Q.Q.Q.Q.x.&.H.E.Q.Q.Q.Q.Q.Q.Q.Q.Q.Q.Q.Q.Q.Q.Q.Q.Q.!.Z.T M.T.Q.Q.Q.W.Q.Q.Q.Q.Q.Q.Q.Q.Q.Q.Q.Q.Q.!.Y.+.s.I.Q.Q.Q.Q.Q.E. X$X",
"0.f.D.D.D.D.D.D.=.=.H.G.k.M.D.D.D.D.D.D.D.D.D.D.D.D.k.G.G.D.e.+.G.D.D.D.D.D.D.D.D.D.D.D.D.D.D.D.D.D.D.D.f.E N.H.D.D.D.D.D.k.E..X",
"q.M.J.H.H.H.H.J.=.#.H.H.H.H.H.H.H.H.H.H.H.H.H.H.H.H.H.H.H.J.a.E B.H.J.H.H.H.H.H.H.H.H.H.H.H.H.H.H.H.H.J.N.E a.J.H.H.H.H.H.D.Q.XX",
"w.G.J.J.J.J.J.K.F N J.J.J.H.J.L.J.J.J.J.J.J.J.J.J.J.J.J.J.K.<.u H.K.J.J.J.J.J.K.J.J.J.J.J.J.J.J.J.J.J.K.N.e y.K.J.J.J.J.J.H.L.~.",
"C 1.a.p.p.p.p.,.r 0 K u.a.a.p.p.p.p.p.p.u.p.u.p.u.u.u.u.p.<.g   F 3.p.p.:.K ,.K <.p.p.u.u.p.u.p.u.u.p.3.D   A <.p.p.p.p.p.a.%.G ",
"X x ! ! ! ( R 1 9 1 1 U ! E E Y R +.~ +.+.+.+.~ +.+.+.+.+.d 9 t : ) ^ E d     : _ ( ~ +.+.+.+.~ +.+.+.k 8 t 8 j +.+.~ ~ R ~ ' y ",
"R *.9.q.e.e.q.8.8.8.8.q.q.q.q.^ =.H.V.V.V.V.V.B.V.V.V.B.V.N.V.V.N.H.B.H.H.F : m.H.V.V.V.V.V.B.V.V.V.B.B.M.V.B.B.B.B.H.j.E r.W..X",
"! *.g.i.i.i.i.i.g.r.i.i.i.i.i.( 1.J.L.H.H.J.H.H.J.H.J.H.H.H.J.H.J.H.J.H.K.3._ H.J.H.H.J.J.H.J.H.H.J.H.H.J.H.J.J.H.J.J.N.E s.^.+X",
"E *.r.i.i.i.i.i.e.r.i.i.i.i.r.^ =.H.H.H.H.H.H.H.H.H.H.H.H.H.H.H.J.H.H.H.J.p.^ B.H.H.H.H.H.H.H.H.H.H.H.H.H.H.H.H.H.H.J.N.~ d.!.XX",
"E =.g.i.i.i.r.i.r.i.i.i.r.9.r.^ =.H.H.H.H.H.H.H.H.H.J.H.H.H.H.H.H.H.H.H.J.a.+.B.H.H.H.H.H.H.H.H.H.H.H.H.H.H.H.H.H.H.J.N.E s.!.XX",
"E -.g.g.g.i.r.r.r.i.i.i.r.g.g.k D K.J.J.J.J.J.J.K.J.J.J.J.J.J.J.J.J.J.J.K.K s H.J.J.J.J.J.J.J.J.J.J.J.J.J.J.J.H.J.J.J.N.w y.U.I.",
"E ] C Z N ..&.&.&.&.@.&.&.@.] + 8 :.2.u.u.2.p.>. .:.J :.2.u.u.u.u.u.u.u.,.a   F 3.p.2.u.u.3.;.K :.J 3.p.u.u.u.2.u.p.,.A   A $.5.",
"( z =   < ` @.+.+.+.@.+.@.} p p t w } +.+.+.@._ 8   $ j +.+.+.+.+.+.+.+.d r p 9 _ @.+.+.^ } e     e } @.+.+.+.+.^ +.) q a 9 v z.",
"E -.O.% v.J.V.H.H.H.H.H.H.H.V.V.V.H.B.H.H.B.V.H.M.: J J.H.H.G.H.H.H.M.H.V.V.B.B.B.H.H.H.B.H.H.g h H.B.G.H.B.B.H.V.V.G.V.B.f.R. X",
"E -.8.P N.J.H.H.H.H.H.H.H.H.H.J.J.H.H.J.H.H.J.J.H._ 3.J.H.H.H.H.H.H.H.H.H.J.J.J.H.H.H.H.H.H.J.o.o.J.H.H.J.H.H.J.H.H.H.J.J.D.Q.@X",
"E -.8.( N.J.H.H.H.H.H.H.H.H.H.H.H.H.H.H.H.H.H.H.V.+.p.J.H.H.H.H.H.H.H.H.H.H.H.H.H.H.H.H.H.H.H.=.=.H.H.H.H.H.H.H.H.H.H.H.H.D.Q.oX",
"E -.0.E N.J.H.H.H.H.H.H.H.H.H.H.H.H.H.H.H.H.H.H.V.~ p.J.H.H.H.H.H.H.H.H.H.H.H.H.H.H.H.H.H.H.J.=.=.H.H.H.H.H.H.H.H.H.H.H.H.D.Q.oX",
"Y -.8.( N.J.H.H.H.H.H.H.H.H.H.H.H.V.H.H.H.H.H.J.B.^ p.J.H.H.H.H.H.H.H.H.H.H.H.H.H.H.H.H.H.H.H.=.=.H.H.H.H.H.H.H.H.H.H.H.H.D.Q.OX",
"E 0.0.z N.K.H.J.J.J.J.J.H.J.J.J.J.J.J.J.J.J.J.J.H.c <.K.J.H.J.J.J.H.L.J.J.H.J.J.J.H.J.J.H.J.K. .{ K.J.J.J.J.J.J.J.J.J.J.J.F.I.'.",
"E *.Z $ ,.N.N.b.b.m.b.M.B.N.N.N.N.N.N.N.m.N.N.N.v.= D N.N.N.N.N.N.N.N.N.N.N.N.N.N.N.B.N.N.N.m.p a N.N.N.b.m.b.m.V.N.N.N.M.N.M.s.",
"E 5 $ X $ c E 8 @ - @ U ~ E ~ E ~ E ~ E E E ( ) X X $ e } ( ( E E E E ~ E E E ( E E ( E ( R < X X , R x $ < $ 4 ~ E ~ E E E E T ",
"E X.$.O.O.$.%.O.2 r v.n.N.a.a.n.N.n.n.j.a.N.j.a.<.t.v.v.j.N.2.E a.N.N.N.N.j.j.j.N.n.n.N.j.a.l.l.v.t.j.n.:.  F n.N.a.a.a.N.s.A.`.",
"E -.g.g.g.g.g.g._  .J.J.J.J.J.J.J.J.J.J.J.J.J.J.K.J.K.J.J.J.a.E V.J.J.J.J.J.H.J.H.J.J.H.J.J.J.K.J.J.J.K.N.s n.K.J.J.J.J.J.D.!.+X",
"E -.w.9.i.i.i.i.( =.J.H.H.H.H.H.H.H.H.H.H.H.H.H.H.H.H.H.H.J.a.} V.H.H.H.H.H.H.H.H.H.H.H.H.H.H.H.H.H.H.J.N.~ N.J.H.H.H.H.H.M.Q.XX",
"R -.r.r.r.e.i.i.@.=.J.H.H.H.H.H.H.H.H.H.H.H.H.H.H.H.H.H.H.J.a.+.B.H.H.H.H.H.H.H.H.H.H.H.H.H.H.H.H.H.H.J.N.~ a.J.H.H.H.J.H.D.Q.XX",
"T 0.g.r.g.r.g.g.]  .J.J.J.J.J.J.J.J.J.J.J.J.H.J.J.J.J.H.J.K.<.c H.K.J.J.J.J.J.J.H.J.J.J.H.J.J.J.J.H.J.K.B.z n.K.J.J.J.J.J.J.I./.",
"P #.8.-.0.0.-.%.e p n.N.N.N.b.b.b.v.N.N.N.N.N.N.N.N.N.N.N.m.D X <.N.N.N.b.v.b.b.N.N.N.N.N.N.N.N.N.m.N.m.,.  H N.N.N.b.b.N.b.y.s.",
"X x ( E E E R <     @ U ~ R # O * , U ! E E E E E ~ E E E e X o X x ( E e $ > X c ( E E ! E E E E E ! z   O   4 ~ ~ 5   -   5 ! ",
"P #.0.0.0.0.-.$.$.$.O.-.0.-.$.2 p b.N.N.N.N.N.N.N.N.N.N.N.n.v.b.v.n.N.n.n.S & l.N.N.N.n.N.N.N.N.N.N.N.b.t.b.v.b.j.j.m.K   H A.'.",
"T 0.g.g.r.g.r.g.g.g.g.i.s.g.g.I  .K.J.J.H.J.H.J.H.H.J.J.H.J.J.J.J.J.J.J.K.<.j H.K.H.J.J.H.H.J.H.J.H.H.J.J.J.J.J.J.J.K.N.5 y.^.+X",
"E *.r.e.r.e.e.i.i.i.i.i.9.r.r.^ =.H.H.H.H.H.H.H.H.H.H.H.H.H.H.H.H.H.H.H.J.p.( H.H.H.H.H.H.H.H.H.H.H.H.H.H.H.H.H.H.H.J.N.~ s.!.oX",
"E *.r.s.r.e.r.e.i.i.i.i.i.q.s.^ =.J.H.H.H.H.H.H.H.H.H.H.H.H.H.H.H.H.H.H.J.p.( V.H.H.H.H.H.H.H.H.H.H.H.H.H.H.H.H.H.H.J.N.( s.^.OX",
"E 0.g.g.g.g.r.g.i.i.i.g.g.g.g._  .J.J.J.J.H.J.H.K.J.J.J.J.H.J.J.J.J.J.H.K.<.c H.J.J.J.J.J.J.J.J.J.J.J.J.J.H.J.H.J.J.J.m.4 j.U.!.",
"E X.$.$.O.&.0.-.-.0.0.-.-.-.$.1 a b.n.N.N.N.N.b.v.v.v.v.N.j.N.j.N.N.N.N.b.S o l.N.N.N.N.N.N.v.v.v.v.N.j.N.N.N.N.N.N.n.K   :.y.s.",
"E z   O   d ~ E E E E E ( R , * O , U ( E E ~ P X . X e E ! E E E E E E e $ > $ x ( E E E R #   X # U ( E E E E E ( z   >   d ( ",
"E &.{   K V.N.N.N.N.N.N.N.N.b.b.b.b.N.N.N.N.N.m.v.* S N.N.N.N.N.N.N.N.N.b.b.b.b.n.N.N.N.N.N.N.p p b.N.N.N.N.N.N.N.M.n.v.b.y.Y.`.",
"R 0.0.5 N.J.J.J.J.J.J.J.H.J.K.J.J.J.J.H.J.H.J.K.H.k 3.K.J.J.J.J.J.J.J.H.H.J.J.J.J.J.J.J.J.J.J. .{ K.J.J.J.J.J.J.J.J.J.J.J.F./.OX",
"E -.0.~ N.J.H.H.H.H.J.H.H.H.H.H.H.H.H.H.H.H.H.H.N.^ p.J.H.H.H.H.H.H.H.H.H.H.H.H.H.H.H.H.H.H.H.=.=.H.H.H.H.H.H.H.H.H.H.H.H.D.W.OX",
"Y -.8.E m.J.H.H.H.H.H.H.H.H.H.H.H.H.H.H.H.H.H.H.H.+.p.J.H.H.H.H.H.H.H.H.H.H.H.H.H.H.H.H.H.H.H.=.=.H.H.H.H.H.H.H.H.H.H.H.H.D.Q.XX",
"E -.0.~ N.J.H.H.H.H.H.H.H.H.H.H.H.H.H.H.H.H.H.H.B.+.p.J.H.H.H.H.H.H.H.H.H.H.H.H.H.H.H.H.H.H.H.=.=.J.H.H.H.H.H.H.H.H.H.H.H.D.Q.OX",
"E 0.%.U N.J.H.J.H.H.H.H.H.H.H.H.H.H.H.H.L.H.H.J.H.] 3.J.H.J.H.J.H.J.H.H.H.H.H.H.J.H.J.H.H.H.J.o.o.J.H.H.J.H.H.H.H.J.H.J.H.G.T.}.",
"E 0.$.. v.H.H.H.H.H.H.H.H.H.V.H.H.H.H.H.H.H.H.H.V.: K J.H.H.H.H.H.H.H.H.H.H.G.H.V.H.H.H.H.H.J.l h H.H.H.H.H.H.V.V.J.H.H.B.H.H.B.",
"E x -   0 ' #.@.#.#.+.+.+.#.+.@.+.@.+.+.+.+.@.] 9   & j +.j t a w _ @.+.+.+.+.@.+.#.+.+.@.} p $ X d } @.+.#.#.+.+.+.+.+.X.X.~ W ",
"E ] N ] M [ &.@.T +.2.2.2.2.2.2.2.2.2.2.2.2.u.>.F :.F ;.2.:.a   S >.u.2.2.2.2.2.2.2.2.2.u.2. .:.J F 2.p.=.E =.u.2.2.2.2.2.0.C.(.",
"E 0.h.g.g.g.r.s.@.=.J.J.J.J.J.H.J.J.J.H.J.J.J.H.J.J.J.J.J.K.3.e H.L.J.H.J.J.J.H.J.J.J.H.J.H.J.J.J.J.J.J.B.E N.J.J.J.H.H.H.D.!.#X",
"R -.i.i.i.i.9.9.^ =.H.H.H.H.H.H.H.H.H.H.H.H.H.H.H.H.H.H.H.J.p.E B.J.H.H.H.H.H.H.H.H.H.H.H.H.H.H.H.H.H.J.N.E n.J.H.H.H.H.H.D.Q.XX",
"E *.r.i.q.r.9.g.@.=.H.H.H.H.H.H.H.H.H.H.H.H.H.H.H.H.H.H.H.J.a.^ B.H.H.H.H.H.H.H.H.H.H.H.H.H.H.H.H.H.H.J.N.( N.J.H.H.H.H.H.D.Q.OX",
"T -.g.r.g.r.r.g.E ;.J.H.H.H.H.J.J.H.J.H.H.H.H.H.H.H.H.H.H.J.u.) B.J.H.H.H.H.H.H.H.H.H.H.H.H.H.J.H.J.H.J.N.P n.J.J.J.H.H.J.F.E.[.",
"R *.r.q.e.8.e.r.i g H.H.H.H.V.B.V.V.V.H.H.H.H.V.H.H.V.H.H.J.K : m.H.H.H.H.B.H.H.H.H.H.V.H.V.H.V.V.H.H.H.b.% l.H.B.H.H.V.V.V.B.B.",
"@ P ( ~ E ^ E e   $ t } @.} t p p w } +.+.+.+.+.+.+.+.+.+.j   X < _ @.+.+.+.#.+.+.+.+.+.+.+.+.+.+.+.+.) ;   > c +.@.c 9 a 9 7 W ",
"4 } =.&.*.*.#.] C C M #.*.@.C + < :.2.p.2.u.u.u.u.u.u.u.p.:.J :.J >.p.u.p.#.Y 2.u.2.u.u.u.2.u.2.u.u.u.>.F K ;.,.p.u.>.S   n c.(.",
"~ -.s.r.r.r.i.g.g.g.g.g.w.g.g.k | K.J.J.J.J.J.J.J.H.J.J.J.J.J.K.J.J.J.J.J.a.+.H.J.J.J.J.J.J.J.J.J.J.J.J.J.K.J.J.J.J.J.m.2 y.^.#X",
"Y -.g.9.r.9.i.i.q.i.e.q.9.r.9.^ =.H.H.H.H.H.H.H.H.H.H.H.H.H.H.H.H.H.H.H.J.u.+.B.H.H.H.H.H.H.H.H.H.H.H.H.H.H.H.H.H.H.J.N.T s.^.XX",
"E *.s.q.i.i.i.i.g.q.q.r.q.r.r.^ =.J.H.H.H.H.H.H.H.H.H.H.H.H.H.H.H.H.H.H.J.a.+.B.H.H.H.H.H.H.H.H.H.H.H.H.H.H.H.H.H.H.J.N.~ s.!.OX",
"E -.g.g.i.i.i.i.r.g.r.r.r.g.g.R ;.J.J.J.H.H.H.J.J.J.H.J.H.H.J.H.H.J.H.H.J.3._ H.J.J.H.J.H.J.H.J.H.J.H.H.H.H.J.H.H.J.J.M.P d.~.].",
"E &.8.8.8.u.i.e.0.e.8.q.q.e.e.s l H.V.V.H.B.V.V.V.V.V.N.B.H.V.B.H.B.V.H.H.J < m.H.B.B.V.V.B.V.V.V.V.B.V.H.V.B.V.V.B.H.l.$ l.H.M.",
"~ 6 : e # c ( ( ( ( +.E ^ R 9   $ w } +.+.+.@._ 0 p q d +.+.+.+.+.+.+.+.d % $ < _ @.+.+.@.} w t w w } @.+.+.+.+.+.@.) -   - 7 Q ",
"T [ f   f X.&.&.*.*.=.*.*.&.V V [ C &.&.&.&.&.#.M   e X.&.&.&.&.&.&.&.&.[ Z { C X.&.&.&.*.@.[ , , [ @.*.&.&.&.&.-.&...B X.b z.(.",
"E 8.%.3 8.g.r.g.r.i.i.i.i.g.g.g.w.g.r.r.r.r.r.g.9.s o.h.i.r.r.g.r.r.r.r.g.g.g.g.g.r.r.g.i.g.g.m m g.g.r.i.i.r.g.r.r.g.g.g.6.R.#X",
"E -.0.! 0.g.r.e.i.i.i.i.i.i.i.i.r.q.r.i.i.9.r.9.q.E *.i.r.e.r.q.r.9.q.r.i.i.i.i.e.i.i.q.r.e.r.@.@.i.i.i.9.r.q.e.i.i.i.i.i.6.Y.OX",
"R 0.e.E 8.s.r.r.i.i.i.i.i.i.i.i.r.r.r.i.i.r.r.s.r.~ -.s.r.g.r.r.i.r.r.g.i.i.i.i.r.g.g.r.r.r.r.@.@.s.s.i.r.r.g.r.i.i.i.i.i.6.Y.+X",
"E @.&.E &.-.-.-.-.-.-.-.-.-.-.-.*.-.*.=.*.-.*.-.-.~ #.-.*.*.-.*.*.*.*.-.-.-.-.-.-.-.*.*.*.-.-.^ ^ -.-.-.-.*.-.-.-.-.-.-.-./ Z.'.",
"E E E ( E R E R E Y Y E E R E Y E E Y E E E E E R E E Y E E R E E E E R E R E Y R E E Y E E R E E E Y R E E R E R Y E Y E Y @.7."
};
